<?xml version="1.0" encoding="utf-8"?>
<!-- Generator: Adobe Illustrator 16.0.0, SVG Export Plug-In . SVG Version: 6.00 Build 0)  -->
<!DOCTYPE svg PUBLIC "-//W3C//DTD SVG 1.1//EN" "http://www.w3.org/Graphics/SVG/1.1/DTD/svg11.dtd">
<svg version="1.1" xmlns="http://www.w3.org/2000/svg" xmlns:xlink="http://www.w3.org/1999/xlink" x="0px" y="0px" width="589px"
	 height="310px" viewBox="0 0 589 310" enable-background="new 0 0 589 310" xml:space="preserve">
<g id="Layer_1">
	<path fill="#008FC3" d="M429.84,9C365.36,9,310.76,51.39,292.42,109.84v86.32C310.76,254.61,365.36,297,429.84,297
		c79.53,0,144-64.47,144-144C573.84,73.47,509.37,9,429.84,9z M518.94,242.1C495.14,265.89,463.5,279,429.84,279
		c-33.649,0-65.29-13.11-89.09-36.9c-23.8-23.8-36.91-55.439-36.91-89.1s13.11-65.3,36.91-89.1c23.8-23.79,55.44-36.9,89.09-36.9
		c33.66,0,65.3,13.11,89.101,36.9c23.8,23.8,36.899,55.44,36.899,89.1S542.74,218.3,518.94,242.1z"/>
	<path fill="#2AAF6B" d="M155,9C75.47,9,11,73.47,11,153c0,79.53,64.47,144,144,144c64.49,0,119.08-42.39,137.42-100.84v-86.32
		C274.08,51.39,219.49,9,155,9z M244.1,242.1C220.3,265.89,188.66,279,155,279s-65.3-13.11-89.1-36.9C42.11,218.3,29,186.66,29,153
		s13.11-65.3,36.9-89.1C89.7,40.11,121.34,27,155,27s65.3,13.11,89.1,36.9C267.89,87.7,281,119.34,281,153S267.89,218.3,244.1,242.1
		z"/>
</g>
<g id="Layer_2">
	<g>
		<rect x="263.276" y="113.612" fill="#FFFFFF" width="52.698" height="23.721"/>
		<g>
			<path fill="#133551" d="M306.45,85.038c-1.203,0-2.341-0.399-3.235-1.129c-0.658,0.18-1.349,0.271-2.056,0.271
				c-3.317,0-6.022-2.042-6.077-4.568c-2.183-0.875-3.623-2.978-3.623-5.347c0-3.18,2.598-5.768,5.791-5.768
				c1.137,0,2.227,0.327,3.174,0.949c0.828-0.559,1.768-0.853,2.737-0.853c1.78,0,3.428,0.994,4.44,2.669
				c2.275,0.838,3.734,2.645,3.734,4.646c0,0.803-0.239,1.596-0.695,2.311c0.456,0.699,0.695,1.492,0.695,2.313
				C311.336,83.018,309.145,85.038,306.45,85.038z"/>
			<path fill="#FFFFFF" d="M297.25,68.998c1.194,0,2.293,0.399,3.179,1.063c0.781-0.61,1.721-0.967,2.732-0.967
				c1.716,0,3.224,1.026,4.102,2.58c2.103,0.714,3.573,2.341,3.573,4.236c0,0.845-0.296,1.634-0.806,2.315
				c0.506,0.653,0.806,1.448,0.806,2.309c0,2.211-1.963,4.004-4.386,4.004c-1.218,0-2.319-0.454-3.114-1.186
				c-0.669,0.211-1.404,0.328-2.177,0.328c-3.081,0-5.578-1.857-5.578-4.147c0-0.089,0.011-0.177,0.019-0.265
				c-2.113-0.691-3.641-2.668-3.641-5.003C291.959,71.356,294.327,68.998,297.25,68.998 M297.25,67.998
				c-3.469,0-6.291,2.812-6.291,6.268c0,2.467,1.438,4.668,3.644,5.684c0.271,2.644,3.108,4.731,6.557,4.731
				c0.665,0,1.315-0.076,1.942-0.226c0.949,0.703,2.118,1.084,3.349,1.084c2.97,0,5.386-2.245,5.386-5.004
				c0-0.815-0.21-1.604-0.612-2.315c0.402-0.724,0.612-1.51,0.612-2.309c0-2.166-1.518-4.116-3.898-5.053
				c-1.111-1.737-2.872-2.762-4.776-2.762c-0.964,0-1.898,0.262-2.74,0.762C299.459,68.292,298.376,67.998,297.25,67.998
				L297.25,67.998z"/>
		</g>
		<path fill="#133551" d="M305.395,86.714l0.039,24.768l-14.133-8.785v8.785l-14.211-8.747v8.747l-14.788-8.747v36.354h54.646
			V86.714H305.395z M274.779,135.277h-10.051v-5.083h10.051V135.277z M274.779,127.305h-10.051v-5.084h10.051V127.305z
			 M274.779,119.449h-10.051v-5.083h10.051V119.449z M289.625,135.277h-10.051v-5.083h10.051V135.277z M289.625,127.305h-10.051
			v-5.084h10.051V127.305z M289.625,119.449h-10.051v-5.083h10.051V119.449z M304.413,135.277h-10.051v-5.083h10.051V135.277z
			 M304.413,127.305h-10.051v-5.084h10.051V127.305z M304.413,119.449h-10.051v-5.083h10.051V119.449z M314.464,135.277h-5.719
			v-5.083h5.719V135.277z M314.464,127.305h-5.719v-5.084h5.719V127.305z M314.464,119.449h-5.719v-5.083h5.719V119.449z"/>
		<g>
			<path d="M326.178,111.748c-0.055-1.034-0.121-2.277-0.11-3.202h-0.032c-0.253,0.869-0.562,1.793-0.936,2.816l-1.31,3.598h-0.726
				l-1.199-3.532c-0.353-1.045-0.649-2.002-0.858-2.882h-0.021c-0.022,0.924-0.077,2.167-0.144,3.278l-0.198,3.18h-0.913
				l0.518-7.415h1.221l1.266,3.586c0.308,0.913,0.561,1.728,0.748,2.498h0.033c0.187-0.748,0.451-1.563,0.781-2.498l1.32-3.586
				h1.221l0.462,7.415h-0.935L326.178,111.748z"/>
			<path d="M333.625,112.297c0,1.969-1.364,2.828-2.651,2.828c-1.441,0-2.553-1.056-2.553-2.739c0-1.782,1.166-2.828,2.641-2.828
				C332.591,109.558,333.625,110.669,333.625,112.297z M329.4,112.353c0,1.166,0.671,2.046,1.617,2.046
				c0.924,0,1.617-0.869,1.617-2.068c0-0.902-0.451-2.046-1.596-2.046C329.896,110.284,329.4,111.34,329.4,112.353z"/>
			<path d="M339.301,113.552c0,0.55,0.011,1.034,0.044,1.452h-0.858l-0.055-0.869h-0.022c-0.253,0.429-0.813,0.99-1.76,0.99
				c-0.836,0-1.837-0.462-1.837-2.333v-3.113h0.968v2.948c0,1.012,0.308,1.694,1.188,1.694c0.648,0,1.1-0.451,1.275-0.88
				c0.056-0.143,0.089-0.319,0.089-0.495v-3.268h0.968V113.552z"/>
			<path d="M340.773,114.014c0.286,0.187,0.792,0.385,1.276,0.385c0.704,0,1.034-0.352,1.034-0.792c0-0.462-0.275-0.715-0.99-0.979
				c-0.957-0.341-1.408-0.869-1.408-1.507c0-0.858,0.693-1.562,1.837-1.562c0.539,0,1.013,0.154,1.31,0.33l-0.242,0.704
				c-0.209-0.132-0.594-0.308-1.089-0.308c-0.572,0-0.892,0.33-0.892,0.726c0,0.44,0.319,0.638,1.013,0.902
				c0.924,0.352,1.397,0.814,1.397,1.606c0,0.935-0.727,1.595-1.992,1.595c-0.583,0-1.122-0.143-1.496-0.363L340.773,114.014z"/>
			<path d="M345.8,112.518c0.022,1.309,0.858,1.848,1.826,1.848c0.693,0,1.111-0.121,1.475-0.275l0.165,0.693
				c-0.341,0.154-0.924,0.33-1.771,0.33c-1.639,0-2.618-1.078-2.618-2.684c0-1.606,0.946-2.872,2.497-2.872
				c1.738,0,2.201,1.529,2.201,2.508c0,0.198-0.022,0.352-0.033,0.451H345.8z M348.639,111.824c0.011-0.616-0.253-1.573-1.342-1.573
				c-0.979,0-1.408,0.902-1.485,1.573H348.639z"/>
			<path d="M321.128,122.671l-0.77,2.333h-0.99l2.519-7.415h1.155l2.53,7.415h-1.022l-0.792-2.333H321.128z M323.56,121.923
				l-0.727-2.134c-0.165-0.484-0.274-0.924-0.385-1.353h-0.022c-0.109,0.44-0.23,0.891-0.374,1.342l-0.726,2.145H323.56z"/>
			<path d="M326.43,124.014c0.286,0.187,0.792,0.385,1.276,0.385c0.704,0,1.034-0.352,1.034-0.792c0-0.462-0.275-0.715-0.99-0.979
				c-0.957-0.341-1.408-0.869-1.408-1.507c0-0.858,0.693-1.562,1.837-1.562c0.539,0,1.013,0.154,1.31,0.33l-0.242,0.704
				c-0.209-0.132-0.594-0.308-1.089-0.308c-0.572,0-0.892,0.33-0.892,0.726c0,0.44,0.319,0.638,1.013,0.902
				c0.924,0.352,1.397,0.814,1.397,1.606c0,0.935-0.727,1.595-1.992,1.595c-0.583,0-1.122-0.143-1.496-0.363L326.43,124.014z"/>
			<path d="M330.785,124.014c0.286,0.187,0.792,0.385,1.276,0.385c0.704,0,1.034-0.352,1.034-0.792c0-0.462-0.275-0.715-0.99-0.979
				c-0.957-0.341-1.408-0.869-1.408-1.507c0-0.858,0.693-1.562,1.837-1.562c0.539,0,1.013,0.154,1.31,0.33l-0.242,0.704
				c-0.209-0.132-0.594-0.308-1.089-0.308c-0.572,0-0.892,0.33-0.892,0.726c0,0.44,0.319,0.638,1.013,0.902
				c0.924,0.352,1.397,0.814,1.397,1.606c0,0.935-0.727,1.595-1.992,1.595c-0.583,0-1.122-0.143-1.496-0.363L330.785,124.014z"/>
			<path d="M335.812,122.518c0.022,1.309,0.858,1.848,1.826,1.848c0.693,0,1.111-0.121,1.475-0.275l0.165,0.693
				c-0.341,0.154-0.924,0.33-1.771,0.33c-1.639,0-2.618-1.078-2.618-2.684c0-1.606,0.946-2.872,2.497-2.872
				c1.738,0,2.201,1.529,2.201,2.508c0,0.198-0.022,0.352-0.033,0.451H335.812z M338.65,121.824
				c0.011-0.616-0.253-1.573-1.342-1.573c-0.979,0-1.408,0.902-1.485,1.573H338.65z"/>
			<path d="M340.783,121.12c0-0.55-0.011-1.001-0.044-1.441h0.848l0.044,0.858h0.033c0.297-0.506,0.792-0.979,1.672-0.979
				c0.727,0,1.276,0.44,1.507,1.067h0.022c0.165-0.297,0.374-0.528,0.594-0.693c0.319-0.242,0.671-0.374,1.178-0.374
				c0.704,0,1.749,0.462,1.749,2.311v3.135h-0.946v-3.015c0-1.023-0.374-1.639-1.155-1.639c-0.55,0-0.979,0.407-1.144,0.88
				c-0.044,0.132-0.077,0.308-0.077,0.484v3.29h-0.946v-3.19c0-0.847-0.374-1.463-1.111-1.463c-0.605,0-1.045,0.484-1.199,0.968
				c-0.055,0.143-0.077,0.308-0.077,0.473v3.212h-0.946V121.12z"/>
			<path d="M349.913,125.004c0.022-0.363,0.044-0.902,0.044-1.375v-6.436h0.958v3.344h0.021c0.341-0.594,0.957-0.979,1.815-0.979
				c1.32,0,2.255,1.1,2.244,2.717c0,1.903-1.199,2.85-2.388,2.85c-0.77,0-1.386-0.297-1.782-1.001h-0.032l-0.044,0.88H349.913z
				 M350.915,122.87c0,0.121,0.021,0.242,0.044,0.352c0.187,0.671,0.748,1.133,1.452,1.133c1.012,0,1.617-0.825,1.617-2.046
				c0-1.067-0.551-1.98-1.585-1.98c-0.66,0-1.275,0.451-1.474,1.188c-0.022,0.11-0.055,0.242-0.055,0.396V122.87z"/>
			<path d="M356.216,117.193h0.969v7.811h-0.969V117.193z"/>
			<path d="M359.164,119.679l1.166,3.146c0.121,0.352,0.253,0.77,0.341,1.089h0.022c0.099-0.319,0.209-0.726,0.341-1.111
				l1.057-3.125h1.022l-1.452,3.795c-0.693,1.826-1.166,2.762-1.826,3.333c-0.473,0.418-0.946,0.583-1.188,0.627l-0.241-0.814
				c0.241-0.077,0.561-0.231,0.847-0.473c0.264-0.209,0.594-0.583,0.814-1.078c0.044-0.099,0.077-0.176,0.077-0.231
				s-0.022-0.132-0.066-0.253l-1.97-4.907H359.164z"/>
			<path d="M363.179,125.444l3.069-7.976h0.748l-3.08,7.976H363.179z"/>
			<path d="M319.929,127.688c0.583-0.088,1.276-0.154,2.035-0.154c1.376,0,2.354,0.319,3.004,0.924
				c0.66,0.605,1.045,1.463,1.045,2.662c0,1.21-0.374,2.201-1.067,2.883c-0.692,0.693-1.837,1.067-3.278,1.067
				c-0.682,0-1.254-0.033-1.738-0.088V127.688z M320.886,134.245c0.242,0.044,0.595,0.055,0.969,0.055
				c2.046,0,3.157-1.144,3.157-3.146c0.011-1.749-0.979-2.86-3.004-2.86c-0.495,0-0.869,0.044-1.122,0.099V134.245z"/>
			<path d="M328.3,128.183c0.012,0.33-0.23,0.594-0.615,0.594c-0.342,0-0.584-0.264-0.584-0.594c0-0.341,0.254-0.605,0.605-0.605
				C328.069,127.578,328.3,127.842,328.3,128.183z M327.222,135.004v-5.325h0.969v5.325H327.222z"/>
			<path d="M329.664,134.014c0.286,0.187,0.792,0.385,1.276,0.385c0.704,0,1.034-0.352,1.034-0.792c0-0.462-0.275-0.715-0.99-0.979
				c-0.957-0.341-1.408-0.869-1.408-1.507c0-0.858,0.693-1.562,1.837-1.562c0.539,0,1.013,0.154,1.31,0.33l-0.242,0.704
				c-0.209-0.132-0.594-0.308-1.089-0.308c-0.572,0-0.892,0.33-0.892,0.726c0,0.44,0.319,0.638,1.013,0.902
				c0.924,0.352,1.397,0.814,1.397,1.606c0,0.935-0.727,1.595-1.992,1.595c-0.583,0-1.122-0.143-1.496-0.363L329.664,134.014z"/>
			<path d="M335.318,128.15v1.529h1.386v0.737h-1.386v2.872c0,0.66,0.187,1.034,0.726,1.034c0.253,0,0.44-0.033,0.562-0.066
				l0.044,0.726c-0.188,0.077-0.484,0.132-0.858,0.132c-0.451,0-0.814-0.143-1.045-0.407c-0.275-0.286-0.374-0.759-0.374-1.386
				v-2.905h-0.825v-0.737h0.825v-1.276L335.318,128.15z"/>
			<path d="M337.792,131.34c0-0.627-0.011-1.166-0.044-1.661h0.848l0.033,1.045h0.044c0.241-0.715,0.825-1.166,1.474-1.166
				c0.11,0,0.188,0.011,0.275,0.033v0.913c-0.1-0.022-0.198-0.033-0.33-0.033c-0.683,0-1.166,0.517-1.298,1.243
				c-0.022,0.132-0.045,0.286-0.045,0.451v2.838h-0.957V131.34z"/>
			<path d="M342.511,128.183c0.012,0.33-0.23,0.594-0.615,0.594c-0.342,0-0.584-0.264-0.584-0.594c0-0.341,0.254-0.605,0.605-0.605
				C342.28,127.578,342.511,127.842,342.511,128.183z M341.433,135.004v-5.325h0.969v5.325H341.433z"/>
			<path d="M343.963,135.004c0.022-0.363,0.044-0.902,0.044-1.375v-6.436h0.957v3.344h0.022c0.341-0.594,0.957-0.979,1.815-0.979
				c1.32,0,2.255,1.1,2.244,2.717c0,1.903-1.199,2.85-2.388,2.85c-0.77,0-1.386-0.297-1.782-1.001h-0.032l-0.044,0.88H343.963z
				 M344.964,132.87c0,0.121,0.022,0.242,0.045,0.352c0.187,0.671,0.748,1.133,1.452,1.133c1.012,0,1.617-0.825,1.617-2.046
				c0-1.067-0.551-1.98-1.585-1.98c-0.66,0-1.275,0.451-1.474,1.188c-0.022,0.11-0.056,0.242-0.056,0.396V132.87z"/>
			<path d="M354.722,133.552c0,0.55,0.011,1.034,0.044,1.452h-0.858l-0.055-0.869h-0.022c-0.253,0.429-0.813,0.99-1.76,0.99
				c-0.836,0-1.837-0.462-1.837-2.333v-3.113h0.968v2.948c0,1.012,0.308,1.694,1.188,1.694c0.648,0,1.1-0.451,1.275-0.88
				c0.056-0.143,0.089-0.319,0.089-0.495v-3.268h0.968V133.552z"/>
			<path d="M357.493,128.15v1.529h1.386v0.737h-1.386v2.872c0,0.66,0.187,1.034,0.726,1.034c0.253,0,0.44-0.033,0.562-0.066
				l0.044,0.726c-0.188,0.077-0.484,0.132-0.858,0.132c-0.451,0-0.814-0.143-1.045-0.407c-0.275-0.286-0.374-0.759-0.374-1.386
				v-2.905h-0.825v-0.737h0.825v-1.276L357.493,128.15z"/>
			<path d="M361.045,128.183c0.012,0.33-0.23,0.594-0.615,0.594c-0.342,0-0.584-0.264-0.584-0.594c0-0.341,0.254-0.605,0.605-0.605
				C360.814,127.578,361.045,127.842,361.045,128.183z M359.967,135.004v-5.325h0.969v5.325H359.967z"/>
			<path d="M367.36,132.297c0,1.969-1.364,2.828-2.651,2.828c-1.441,0-2.553-1.056-2.553-2.739c0-1.782,1.166-2.828,2.641-2.828
				C366.326,129.558,367.36,130.669,367.36,132.297z M363.136,132.353c0,1.166,0.671,2.046,1.617,2.046
				c0.924,0,1.617-0.869,1.617-2.068c0-0.902-0.451-2.046-1.596-2.046C363.631,130.284,363.136,131.34,363.136,132.353z"/>
			<path d="M368.58,131.12c0-0.55-0.011-1.001-0.044-1.441h0.858l0.055,0.88h0.022c0.264-0.506,0.88-1.001,1.76-1.001
				c0.737,0,1.882,0.44,1.882,2.266v3.18h-0.969v-3.069c0-0.858-0.318-1.573-1.231-1.573c-0.639,0-1.134,0.451-1.299,0.99
				c-0.044,0.121-0.065,0.286-0.065,0.451v3.202h-0.969V131.12z"/>
		</g>
		<g>
			<path fill="#FFFFFF" d="M316.948,86.714v52.374h-54.646v-36.354l14.788,8.747v-8.747l14.211,8.747v-8.785l14.133,8.785
				l-0.039-24.768H316.948 M317.948,85.714h-1h-11.554h-1.002l0.002,1.001l0.036,22.965l-12.602-7.833l-1.528-0.95v1.799v6.996
				l-12.687-7.809l-1.524-0.938v1.79v6.994l-13.279-7.854l-1.509-0.893v1.753v36.354v1h1h54.646h1v-1V86.714V85.714L317.948,85.714z
				"/>
		</g>
	</g>
	<g>
		<g>
			<path d="M316.445,161.414v6.387c0,2.418,1.072,3.441,2.513,3.441c1.601,0,2.625-1.056,2.625-3.441v-6.387h1.408v6.291
				c0,3.313-1.744,4.674-4.081,4.674c-2.209,0-3.874-1.264-3.874-4.609v-6.355H316.445z"/>
			<path d="M325.068,170.763c0.416,0.272,1.152,0.56,1.856,0.56c1.024,0,1.505-0.512,1.505-1.152c0-0.672-0.4-1.04-1.44-1.424
				c-1.393-0.496-2.049-1.265-2.049-2.193c0-1.248,1.008-2.273,2.673-2.273c0.784,0,1.473,0.225,1.904,0.48l-0.352,1.025
				c-0.305-0.193-0.864-0.449-1.585-0.449c-0.832,0-1.296,0.48-1.296,1.057c0,0.641,0.464,0.929,1.472,1.313
				c1.345,0.512,2.033,1.185,2.033,2.338c0,1.359-1.057,2.32-2.897,2.32c-0.848,0-1.632-0.208-2.177-0.528L325.068,170.763z"/>
			<path d="M332.381,168.586c0.031,1.904,1.248,2.689,2.656,2.689c1.009,0,1.617-0.177,2.146-0.4l0.24,1.008
				c-0.496,0.225-1.345,0.48-2.577,0.48c-2.385,0-3.81-1.568-3.81-3.906c0-2.336,1.376-4.178,3.634-4.178
				c2.528,0,3.201,2.226,3.201,3.65c0,0.287-0.032,0.512-0.049,0.656H332.381z M336.51,167.577c0.017-0.896-0.368-2.288-1.952-2.288
				c-1.425,0-2.049,1.313-2.161,2.288H336.51z"/>
		</g>
		<g>
			<path fill="#133551" d="M264.553,193.37c-7.613,0.687-14.885-0.461-16.873-6.285c-1.987-5.824,4.246-11.564,7.251-13.264
				c3.006-1.698,7.179-2.988,15.99-3.627c8.811-0.638,14.014,1.014,16.829,7.151c2.815,6.137,4.693,18.001,2.927,19.507
				c-6.474,5.52-16.561-3.756-19.506-3.796C268.318,193.018,269.869,192.892,264.553,193.37z"/>
			<g>
				<path fill="#FFFFFF" d="M255.868,178.077c-0.001,0-0.608,0.19-1.64,0.553c-1.011,0.364-2.485,0.923-4.092,1.798
					c-0.381,0.235-0.805,0.463-1.154,0.752c-0.208,0.133-0.314,0.29-0.468,0.434c-0.02-0.004-0.138,0.203-0.174,0.275
					c-0.034,0.096-0.076,0.157-0.114,0.279c-0.327,0.898-0.429,2.011-0.207,3.029c0.227,1.022,0.854,1.929,1.834,2.43
					c0.228,0.149,0.504,0.225,0.766,0.326l0.158,0.059l0.23,0.047l0.462,0.093l0.926,0.186l0.883,0.033
					c0.296,0.009,0.587,0.033,0.887,0.033l0.918-0.069c0.61-0.039,1.221-0.086,1.827-0.197c1.208-0.178,2.409-0.383,3.58-0.584
					c1.168-0.199,2.304-0.377,3.383-0.529c1.079-0.158,2.107-0.249,3.058-0.32c0.948-0.082,1.825-0.091,2.597-0.122
					c0.776,0.027,1.45,0.034,2.004,0.07c1.103,0.124,1.732,0.195,1.732,0.195l-0.006,0.064c0,0-0.63-0.002-1.732-0.006
					c-1.1,0.045-2.665,0.146-4.528,0.413c-0.933,0.127-1.937,0.309-3,0.491c-1.063,0.191-2.18,0.41-3.336,0.652
					c-1.152,0.248-2.354,0.496-3.603,0.688c-0.615,0.123-1.253,0.183-1.896,0.233l-0.964,0.086c-0.33,0.005-0.669-0.015-1.005-0.021
					l-1.008-0.036l-0.928-0.173l-0.463-0.086l-0.231-0.043c-0.166-0.034-0.186-0.058-0.286-0.088
					c-0.323-0.117-0.653-0.208-0.955-0.392c-0.631-0.292-1.171-0.786-1.603-1.327c-0.429-0.56-0.674-1.213-0.83-1.851
					c-0.27-1.297-0.149-2.551,0.259-3.688c0.043-0.138,0.134-0.313,0.203-0.463c0.094-0.158,0.097-0.195,0.254-0.393
					c0.218-0.229,0.438-0.484,0.663-0.628c0.443-0.356,0.891-0.602,1.319-0.852c1.741-0.898,3.243-1.425,4.314-1.786
					c1.061-0.346,1.662-0.52,1.661-0.52L255.868,178.077z"/>
			</g>
			<g>
				<path fill="#FFFFFF" d="M320.968,182.816c-6.897-2.67-5.709-2.063-10.696-6.123c-4.986-4.062-9.521-7.57-11.739-8.534
					c-2.217-0.965-6.29-3.859-11.899-7.523c-5.607-3.664-5.375-2.032-9.272-0.64c-3.897,1.394-1.885,1.65-3.772,1.978
					c-1.888,0.325-5.181,1.789-9.184,3.458c-4.002,1.669-6.755,4.533-7.517,6.154c-0.762,1.619,2.057,2.618,3.198,2.767
					s5.181-2.451,5.495-2.617c0.314-0.164,3.079-0.978,5.328-1.01s7.259,2.965,7.259,2.965c-1.692-0.354-7.57-1.476-10.51-1.175
					c-2.939,0.302-11.871,5.127-13.954,6.135c-2.083,1.009-2.05,3.919,1.749,4.788s3.658-0.506,8.036-1.089
					c4.379-0.58,4.991,0.217,8.57,0.248c3.581,0.03,3.187,0.07,7.328,1.695c4.141,1.623,3.727,3.397,4.639,6.483
					c0.912,3.088,0.757,3.5-0.71,4.711c-1.465,1.21-6.84-0.822-7.855-1.05c-1.018-0.226-2.315-2.545-4.382-2.663
					c-2.064-0.12-6.713-0.602-6.353,2.638c0.155,1.402,4.721,7.629,7.069,9.41c1.784,1.354,7.546,1.347,9.842,1.773
					c2.296,0.426,7.421,1.954,9.696,2.185c2.275,0.232,6.033,2.627,13.729,0.812c6.775-1.601,7.647-2.937,13.103-3.362"/>
				<path d="M320.92,182.937c-1.931-0.763-3.888-1.429-5.768-2.375c-1.819-1.05-3.383-2.441-4.995-3.734
					c-1.618-1.299-3.231-2.599-4.878-3.856c-1.646-1.253-3.303-2.504-5.042-3.604c-1.729-1.067-3.69-1.86-5.409-3.054
					c-1.783-1.1-3.483-2.268-5.229-3.396c-1.74-1.113-3.448-2.334-5.234-3.311c-0.893-0.465-1.842-0.927-2.777-0.892
					c-0.93,0.027-1.825,0.611-2.783,1.033c-0.955,0.446-1.971,0.748-2.864,1.191c-0.222,0.106-0.441,0.216-0.621,0.355
					c-0.216,0.134-0.307,0.254-0.478,0.484c-0.132,0.152-0.282,0.267-0.438,0.317c-0.162,0.082-0.293,0.102-0.429,0.134
					c-0.286,0.061-0.484,0.117-0.754,0.189c-0.494,0.146-1.015,0.246-1.488,0.43l-1.428,0.532c-0.953,0.361-1.911,0.781-2.866,1.169
					c-1.89,0.828-3.896,1.532-5.56,2.629c-1.692,1.095-3.282,2.472-4.357,4.115l-0.177,0.313c-0.021,0.033-0.077,0.146-0.071,0.113
					l-0.063,0.185c-0.065,0.15-0.014,0.167-0.04,0.239c0.023,0.077,0.01,0.16,0.058,0.238c0.121,0.327,0.498,0.634,0.903,0.861
					c0.411,0.232,0.872,0.415,1.342,0.543c0.213,0.063,0.519,0.122,0.648,0.138c0.14,0.003,0.259-0.007,0.322-0.034
					c0.067-0.009,0.194-0.053,0.304-0.086c0.909-0.317,1.823-0.824,2.71-1.326l1.326-0.788c0.241-0.131,0.39-0.274,0.741-0.412
					c0.25-0.081,0.477-0.18,0.75-0.243c1.068-0.302,2.092-0.509,3.149-0.649c0.557-0.036,1.018-0.123,1.653-0.113l0.772,0.092
					c0.265,0.053,0.544,0.145,0.815,0.219c2.106,0.658,3.912,1.638,5.757,2.678l0.001,0.001l2.548,1.502l-2.907-0.584
					c-3.068-0.616-6.206-1.169-9.291-1.235c-0.359,0.018-0.802,0.023-1.092,0.049l-1.157,0.26c-0.732,0.24-1.423,0.481-2.149,0.774
					c-1.448,0.594-2.879,1.248-4.3,1.93c-1.421,0.684-2.831,1.39-4.241,2.104c-0.687,0.356-1.451,0.719-2.095,1.064
					c-0.598,0.32-0.995,0.915-0.99,1.537c0.001,0.625,0.406,1.221,0.991,1.614c0.574,0.406,1.307,0.653,2.02,0.799
					c0.385,0.063,0.788,0.164,1.157,0.193c0.361,0.004,0.725,0.075,1.086,0.008c0.725-0.036,1.434-0.335,2.202-0.575
					c0.38-0.13,0.767-0.245,1.163-0.337c0.391-0.11,0.787-0.194,1.187-0.252l0.598-0.102l0.322-0.052l0.296-0.022l1.183-0.089
					l1.183-0.09l1.228,0.066c0.834,0.023,1.593,0.163,2.383,0.254l2.339,0.153c0.797,0.037,1.567,0.003,2.385,0.101
					c0.409,0.067,0.831,0.104,1.229,0.202l1.155,0.391c0.759,0.271,1.476,0.58,2.216,0.869c0.191,0.079,0.351,0.132,0.568,0.233
					l0.539,0.248c0.358,0.171,0.72,0.306,1.072,0.563c0.351,0.234,0.725,0.438,1.008,0.762c0.15,0.15,0.307,0.295,0.449,0.451
					l0.35,0.536c0.254,0.35,0.35,0.764,0.518,1.145c0.104,0.39,0.229,0.787,0.312,1.17c0.179,0.782,0.374,1.509,0.59,2.287
					c0.206,0.754,0.44,1.552,0.413,2.433c0.006,0.448-0.219,0.908-0.484,1.261c-0.147,0.153-0.293,0.319-0.445,0.458
					c-0.171,0.143-0.271,0.243-0.499,0.42c-0.275,0.223-0.869,0.377-1.252,0.396c-0.423,0.028-0.835,0.006-1.24-0.037
					c-0.811-0.092-1.595-0.267-2.367-0.466c-0.773-0.201-1.536-0.433-2.291-0.668l-0.563-0.172l-0.272-0.076l-0.067-0.019
					c-0.114-0.035-0.07-0.026-0.113-0.042l-0.136-0.061c-0.178-0.059-0.369-0.205-0.554-0.344c-0.201-0.141-0.318-0.271-0.478-0.407
					c-0.589-0.538-1.154-1.061-1.803-1.43c-0.648-0.373-1.37-0.397-2.182-0.448c-0.783-0.044-1.564-0.064-2.331,0.002
					c-0.754,0.076-1.54,0.21-2.118,0.624c-0.298,0.196-0.494,0.482-0.624,0.796c-0.044,0.166-0.083,0.337-0.1,0.512
					c0.011,0.171-0.009,0.384,0.023,0.52c0.183,0.695,0.618,1.369,1.021,2.036c0.832,1.327,1.771,2.597,2.75,3.827
					c0.991,1.203,2.029,2.448,3.217,3.374c0.643,0.429,1.369,0.612,2.139,0.79c0.762,0.163,1.54,0.278,2.321,0.369
					c1.564,0.19,3.14,0.278,4.724,0.486c3.133,0.582,6.155,1.576,9.248,2.123c0.767,0.15,1.571,0.248,2.334,0.476
					c0.781,0.21,1.522,0.445,2.292,0.621c1.521,0.407,3.094,0.532,4.661,0.566c0.784,0.007,1.567-0.095,2.352-0.137
					c0.781-0.078,1.55-0.263,2.326-0.389c1.54-0.297,3.075-0.732,4.578-1.184c1.508-0.467,2.989-1.02,4.514-1.467
					c1.528-0.45,3.112-0.646,4.689-0.797l0.014,0.184c-1.567,0.159-3.135,0.361-4.645,0.815c-1.509,0.45-2.99,1.013-4.502,1.489
					c-1.521,0.465-3.033,0.903-4.596,1.214c-0.782,0.132-1.558,0.322-2.348,0.405c-0.794,0.048-1.586,0.153-2.382,0.151
					c-1.589-0.024-3.191-0.146-4.735-0.549c-0.772-0.173-1.543-0.411-2.289-0.608c-0.756-0.22-1.529-0.311-2.314-0.459
					c-3.141-0.539-6.161-1.515-9.251-2.071c-1.555-0.195-3.141-0.277-4.718-0.46c-0.789-0.088-1.578-0.199-2.363-0.363
					c-0.764-0.167-1.604-0.386-2.285-0.837c-1.316-1.014-2.315-2.229-3.342-3.452c-0.996-1.239-1.949-2.511-2.804-3.858
					c-0.411-0.68-0.868-1.351-1.097-2.187c-0.053-0.25-0.024-0.439-0.037-0.662c0.018-0.215,0.064-0.437,0.124-0.647
					c0.161-0.419,0.438-0.802,0.805-1.047c0.724-0.514,1.57-0.642,2.37-0.731c0.809-0.075,1.613-0.056,2.408-0.016
					c0.753,0.039,1.666,0.07,2.416,0.501c0.732,0.412,1.336,0.972,1.917,1.495c0.142,0.12,0.298,0.278,0.425,0.361
					c0.131,0.098,0.241,0.213,0.445,0.281l0.136,0.059c0.003,0.003,0.09,0.036,0.023,0.015l0.076,0.02l0.298,0.081l0.572,0.172
					c0.756,0.231,1.509,0.455,2.268,0.647c0.758,0.191,1.522,0.356,2.286,0.438c0.381,0.038,0.76,0.056,1.126,0.029
					c0.17-0.028,0.379-0.034,0.502-0.089c0.132-0.013,0.306-0.116,0.477-0.226l0.401-0.35c0.139-0.128,0.252-0.264,0.381-0.394
					c0.191-0.281,0.349-0.559,0.34-0.913c0.017-0.7-0.186-1.456-0.404-2.216c-0.211-0.745-0.43-1.545-0.606-2.303
					c-0.087-0.391-0.205-0.747-0.305-1.121c-0.154-0.336-0.24-0.718-0.462-1.007c-0.748-1.269-2.229-1.9-3.665-2.49
					c-0.734-0.281-1.473-0.594-2.204-0.851l-1.093-0.364c-0.368-0.088-0.741-0.113-1.11-0.176c-0.75-0.089-1.569-0.053-2.352-0.086
					l-2.396-0.145c-0.78-0.086-1.583-0.224-2.333-0.236l-1.141-0.062l-1.183,0.096l-1.182,0.096l-0.296,0.024l-0.262,0.046
					l-0.572,0.101c-0.383,0.057-0.76,0.139-1.13,0.246c-0.374,0.088-0.744,0.2-1.112,0.328c-0.733,0.231-1.507,0.567-2.373,0.624
					c-0.423,0.076-0.853,0.005-1.279-0.006c-0.418-0.035-0.786-0.129-1.182-0.19c-0.83-0.167-1.632-0.426-2.359-0.927
					c-0.717-0.475-1.348-1.302-1.357-2.289c-0.02-0.979,0.621-1.867,1.407-2.289c0.747-0.404,1.413-0.721,2.128-1.097
					c1.406-0.723,2.82-1.44,4.246-2.136c1.428-0.693,2.869-1.362,4.345-1.977c0.736-0.305,1.543-0.588,2.31-0.836l1.156-0.267
					c0.493-0.058,0.846-0.048,1.275-0.074c3.244,0.055,6.371,0.598,9.5,1.206l-0.359,0.918l0,0c-1.75-1.013-3.624-2.019-5.477-2.611
					c-0.228-0.063-0.44-0.148-0.681-0.2l-0.771-0.099c-0.396-0.004-0.969,0.07-1.445,0.101c-0.996,0.122-2.013,0.328-2.942,0.575
					c-0.234,0.047-0.487,0.153-0.731,0.229c-0.139,0.033-0.402,0.226-0.613,0.343l-1.354,0.791c-0.921,0.508-1.83,1.016-2.884,1.376
					c-0.215,0.079-0.688,0.181-0.895,0.155c-0.386-0.036-0.587-0.1-0.873-0.174c-0.529-0.15-1.039-0.354-1.529-0.635
					c-0.476-0.287-0.991-0.637-1.257-1.291c-0.077-0.153-0.087-0.34-0.11-0.516c0.011-0.183,0.038-0.435,0.086-0.522l0.064-0.184
					c0.067-0.146,0.078-0.146,0.12-0.225l0.208-0.363c1.215-1.821,2.861-3.198,4.643-4.341c1.831-1.171,3.785-1.822,5.691-2.645
					c0.97-0.386,1.915-0.793,2.903-1.159l1.492-0.54c0.496-0.186,1.002-0.277,1.502-0.421c0.476-0.151,1.115-0.208,1.26-0.395
					c0.307-0.458,0.869-0.816,1.34-1.02c0.97-0.468,1.959-0.75,2.887-1.176c0.928-0.388,1.842-1.018,3.021-1.066
					c1.164-0.021,2.153,0.504,3.076,0.984c1.847,1.03,3.51,2.244,5.254,3.377c1.729,1.137,3.441,2.33,5.182,3.421
					c1.688,1.194,3.603,1.979,5.396,3.1c1.758,1.131,3.406,2.396,5.05,3.666c1.641,1.272,3.248,2.587,4.854,3.897
					c1.606,1.31,3.158,2.706,4.922,3.74c1.823,0.937,3.795,1.628,5.716,2.402L320.92,182.937z"/>
			</g>
			<g>
				<path d="M274.581,161.494c0.052-0.154,0.087-0.076,0.193-0.051c0.103,0.037,0.254,0.091,0.445,0.159
					c0.384,0.138,0.932,0.335,1.589,0.572c0.649,0.268,1.407,0.58,2.219,0.914c0.818,0.319,1.668,0.71,2.507,1.12
					c0.844,0.4,1.688,0.801,2.479,1.177c0.395,0.188,0.753,0.42,1.102,0.618c0.347,0.204,0.674,0.396,0.977,0.575
					c1.207,0.711,2.013,1.186,2.013,1.186l-0.146,0.225c0,0-0.814-0.446-2.035-1.116c-0.305-0.167-0.635-0.349-0.984-0.54
					c-0.354-0.184-0.707-0.414-1.103-0.596c-0.791-0.364-1.634-0.754-2.478-1.143c-0.839-0.398-1.687-0.777-2.499-1.084
					c-0.807-0.322-1.559-0.623-2.204-0.881c-0.659-0.229-1.209-0.421-1.594-0.555c-0.192-0.066-0.344-0.118-0.447-0.154
					c-0.099-0.047-0.174-0.007-0.122-0.161L274.581,161.494z"/>
			</g>
		</g>
	</g>
	<path fill="#008FC3" stroke="#FFFFFF" stroke-width="2" stroke-miterlimit="10" d="M467.951,295.623
		c0,5.363-4.604,9.711-10.286,9.711h-59.426c-5.682,0-10.286-4.348-10.286-9.711v-27.698c0-5.364,4.604-9.712,10.286-9.712h59.426
		c5.682,0,10.286,4.348,10.286,9.712V295.623z"/>
	<g>
		<path fill="#FFFFFF" d="M398.268,279.644v-8.531h3.082c1.004,0,1.844,0.327,2.52,0.981s1.014,1.493,1.014,2.517v1.535
			c0,1.027-0.338,1.867-1.014,2.52s-1.516,0.979-2.52,0.979H398.268z M400.254,272.636v5.484h0.961c0.527,0,0.939-0.181,1.236-0.542
			s0.445-0.839,0.445-1.433v-1.547c0-0.59-0.148-1.064-0.445-1.424s-0.709-0.539-1.236-0.539H400.254z"/>
		<path fill="#FFFFFF" d="M408.076,271.833h-1.986v-1.33h1.986V271.833z M408.076,279.644h-1.986v-6.34h1.986V279.644z"/>
		<path fill="#FFFFFF" d="M412.594,277.862c0-0.156-0.089-0.296-0.267-0.419s-0.501-0.233-0.97-0.331
			c-0.738-0.145-1.295-0.369-1.67-0.674s-0.563-0.721-0.563-1.248c0-0.559,0.234-1.032,0.703-1.421s1.104-0.583,1.904-0.583
			c0.844,0,1.516,0.188,2.016,0.565s0.738,0.864,0.715,1.462l-0.012,0.035h-1.922c0-0.25-0.063-0.439-0.19-0.568
			s-0.331-0.193-0.612-0.193c-0.207,0-0.381,0.057-0.521,0.17s-0.211,0.258-0.211,0.434c0,0.168,0.081,0.311,0.243,0.428
			s0.489,0.223,0.981,0.316c0.773,0.152,1.347,0.38,1.72,0.683s0.56,0.731,0.56,1.286c0,0.57-0.253,1.04-0.759,1.409
			s-1.175,0.554-2.007,0.554c-0.863,0-1.546-0.219-2.048-0.656s-0.741-0.926-0.718-1.465l0.012-0.035h1.793
			c0.008,0.301,0.099,0.518,0.272,0.65s0.421,0.199,0.741,0.199c0.266,0,0.467-0.052,0.604-0.155S412.594,278.054,412.594,277.862z"
			/>
		<path fill="#FFFFFF" d="M421.301,276.608c0,0.953-0.215,1.718-0.645,2.294s-1.035,0.864-1.816,0.864
			c-0.305,0-0.575-0.059-0.812-0.176s-0.442-0.287-0.618-0.51v3h-1.98v-8.777h1.852l0.07,0.697c0.18-0.262,0.391-0.463,0.633-0.604
			s0.523-0.211,0.844-0.211c0.785,0,1.394,0.303,1.825,0.908s0.647,1.402,0.647,2.391V276.608z M419.326,276.485
			c0-0.535-0.078-0.965-0.234-1.289s-0.406-0.486-0.75-0.486c-0.223,0-0.411,0.041-0.565,0.123s-0.276,0.201-0.366,0.357v2.648
			c0.094,0.137,0.218,0.238,0.372,0.305s0.345,0.1,0.571,0.1c0.348,0,0.597-0.144,0.747-0.431s0.226-0.688,0.226-1.204V276.485z"/>
		<path fill="#FFFFFF" d="M421.91,276.415c0-0.953,0.27-1.729,0.809-2.329s1.291-0.899,2.256-0.899c0.969,0,1.723,0.3,2.262,0.899
			s0.809,1.376,0.809,2.329v0.123c0,0.957-0.27,1.734-0.809,2.332s-1.289,0.896-2.25,0.896c-0.973,0-1.729-0.299-2.268-0.896
			s-0.809-1.375-0.809-2.332V276.415z M423.891,276.538c0,0.531,0.083,0.948,0.249,1.251s0.448,0.454,0.847,0.454
			c0.387,0,0.664-0.152,0.832-0.457s0.252-0.721,0.252-1.248v-0.123c0-0.516-0.084-0.929-0.252-1.239s-0.449-0.466-0.844-0.466
			c-0.391,0-0.669,0.156-0.835,0.469s-0.249,0.725-0.249,1.236V276.538z"/>
		<path fill="#FFFFFF" d="M432.223,277.862c0-0.156-0.089-0.296-0.267-0.419s-0.501-0.233-0.97-0.331
			c-0.738-0.145-1.295-0.369-1.67-0.674s-0.563-0.721-0.563-1.248c0-0.559,0.234-1.032,0.703-1.421s1.104-0.583,1.904-0.583
			c0.844,0,1.516,0.188,2.016,0.565s0.738,0.864,0.715,1.462l-0.012,0.035h-1.922c0-0.25-0.063-0.439-0.19-0.568
			s-0.331-0.193-0.612-0.193c-0.207,0-0.381,0.057-0.521,0.17s-0.211,0.258-0.211,0.434c0,0.168,0.081,0.311,0.243,0.428
			s0.489,0.223,0.981,0.316c0.773,0.152,1.347,0.38,1.72,0.683s0.56,0.731,0.56,1.286c0,0.57-0.253,1.04-0.759,1.409
			s-1.175,0.554-2.007,0.554c-0.863,0-1.546-0.219-2.048-0.656s-0.741-0.926-0.718-1.465l0.012-0.035h1.793
			c0.008,0.301,0.099,0.518,0.272,0.65s0.421,0.199,0.741,0.199c0.266,0,0.467-0.052,0.604-0.155S432.223,278.054,432.223,277.862z"
			/>
		<path fill="#FFFFFF" d="M438.703,279.638c-0.055-0.102-0.104-0.215-0.149-0.34s-0.083-0.254-0.114-0.387
			c-0.188,0.262-0.414,0.47-0.68,0.624s-0.588,0.231-0.967,0.231c-0.602,0-1.091-0.174-1.468-0.521s-0.565-0.811-0.565-1.389
			c0-0.629,0.235-1.114,0.706-1.456s1.187-0.513,2.147-0.513h0.721v-0.451c0-0.27-0.063-0.477-0.19-0.621s-0.323-0.217-0.589-0.217
			c-0.227,0-0.396,0.054-0.507,0.161s-0.167,0.274-0.167,0.501l-1.916-0.006l-0.012-0.035c-0.027-0.578,0.213-1.062,0.721-1.45
			s1.18-0.583,2.016-0.583c0.781,0,1.415,0.195,1.901,0.586s0.729,0.949,0.729,1.676v2.391c0,0.34,0.028,0.654,0.085,0.943
			s0.142,0.576,0.255,0.861L438.703,279.638z M437.396,278.354c0.195,0,0.375-0.039,0.539-0.117s0.297-0.18,0.398-0.305v-0.99
			h-0.703c-0.313,0-0.54,0.076-0.683,0.229s-0.214,0.346-0.214,0.58c0,0.18,0.062,0.325,0.185,0.437
			S437.201,278.354,437.396,278.354z"/>
		<path fill="#FFFFFF" d="M443.496,279.644h-1.986v-9.141h1.986V279.644z"/>
		<path fill="#FFFFFF" d="M447.434,276.415c0-0.953,0.27-1.729,0.809-2.329s1.291-0.899,2.256-0.899c0.969,0,1.723,0.3,2.262,0.899
			s0.809,1.376,0.809,2.329v0.123c0,0.957-0.27,1.734-0.809,2.332s-1.289,0.896-2.25,0.896c-0.973,0-1.729-0.299-2.268-0.896
			s-0.809-1.375-0.809-2.332V276.415z M449.414,276.538c0,0.531,0.083,0.948,0.249,1.251s0.448,0.454,0.847,0.454
			c0.387,0,0.664-0.152,0.832-0.457s0.252-0.721,0.252-1.248v-0.123c0-0.516-0.084-0.929-0.252-1.239s-0.449-0.466-0.844-0.466
			c-0.391,0-0.669,0.156-0.835,0.469s-0.249,0.725-0.249,1.236V276.538z"/>
		<path fill="#FFFFFF" d="M454.863,279.644v-4.969h-0.914v-1.371h0.914v-0.656c0-0.73,0.219-1.291,0.656-1.682
			s1.057-0.586,1.857-0.586c0.148,0,0.301,0.011,0.457,0.032s0.33,0.052,0.521,0.091l-0.146,1.459
			c-0.105-0.02-0.2-0.034-0.284-0.044s-0.187-0.015-0.308-0.015c-0.246,0-0.436,0.064-0.568,0.193s-0.199,0.313-0.199,0.551v0.656
			h1.23v1.371h-1.23v4.969H454.863z"/>
		<path fill="#FFFFFF" d="M405.572,290.985h-2.689l-0.48,1.658h-1.992l2.754-8.531h2.127l2.76,8.531h-1.992L405.572,290.985z
			 M403.322,289.462h1.811l-0.891-3.053h-0.035L403.322,289.462z"/>
		<path fill="#FFFFFF" d="M410.623,292.644h-1.986v-9.141h1.986V292.644z"/>
		<path fill="#FFFFFF" d="M415.639,291.894c-0.203,0.281-0.452,0.497-0.747,0.647s-0.628,0.226-0.999,0.226
			c-0.656,0-1.171-0.211-1.544-0.633s-0.56-1.076-0.56-1.963v-3.867h1.975v3.879c0,0.355,0.067,0.621,0.202,0.797
			s0.327,0.264,0.577,0.264c0.211,0,0.396-0.029,0.557-0.088s0.297-0.146,0.41-0.264v-4.588h1.98v6.34h-1.729L415.639,291.894z"/>
		<path fill="#FFFFFF" d="M420.443,286.304l0.07,0.838c0.199-0.305,0.45-0.54,0.753-0.706s0.649-0.249,1.04-0.249
			c0.395,0,0.734,0.086,1.02,0.258s0.5,0.434,0.645,0.785c0.195-0.332,0.446-0.589,0.753-0.771s0.665-0.272,1.075-0.272
			c0.617,0,1.103,0.212,1.456,0.636s0.53,1.077,0.53,1.96v3.861h-1.986v-3.861c0-0.41-0.063-0.691-0.19-0.844
			s-0.317-0.229-0.571-0.229c-0.191,0-0.36,0.034-0.507,0.103s-0.271,0.163-0.372,0.284c0,0.066,0.002,0.124,0.006,0.173
			s0.006,0.097,0.006,0.144v4.23h-1.98v-3.861c0-0.41-0.063-0.691-0.188-0.844s-0.318-0.229-0.58-0.229
			c-0.18,0-0.343,0.034-0.489,0.103s-0.271,0.163-0.372,0.284v4.547h-1.98v-6.34H420.443z"/>
		<path fill="#FFFFFF" d="M430.99,284.833h-1.986v-1.33h1.986V284.833z M430.99,292.644h-1.986v-6.34h1.986V292.644z"/>
		<path fill="#FFFFFF" d="M434.025,286.304l0.076,0.891c0.207-0.316,0.463-0.563,0.768-0.741s0.645-0.267,1.02-0.267
			c0.621,0,1.106,0.201,1.456,0.604s0.524,1.043,0.524,1.922v3.932h-1.98v-3.938c0-0.363-0.075-0.62-0.226-0.771
			s-0.372-0.226-0.665-0.226c-0.184,0-0.347,0.033-0.489,0.1s-0.265,0.158-0.366,0.275v4.559h-1.975v-6.34H434.025z"/>
		<path fill="#FFFFFF" d="M442.75,291.894c-0.203,0.281-0.452,0.497-0.747,0.647s-0.628,0.226-0.999,0.226
			c-0.656,0-1.171-0.211-1.544-0.633s-0.56-1.076-0.56-1.963v-3.867h1.975v3.879c0,0.355,0.067,0.621,0.202,0.797
			s0.327,0.264,0.577,0.264c0.211,0,0.396-0.029,0.557-0.088s0.297-0.146,0.41-0.264v-4.588h1.98v6.34h-1.729L442.75,291.894z"/>
		<path fill="#FFFFFF" d="M447.555,286.304l0.07,0.838c0.199-0.305,0.45-0.54,0.753-0.706s0.649-0.249,1.04-0.249
			c0.395,0,0.734,0.086,1.02,0.258s0.5,0.434,0.645,0.785c0.195-0.332,0.446-0.589,0.753-0.771s0.665-0.272,1.075-0.272
			c0.617,0,1.103,0.212,1.456,0.636s0.53,1.077,0.53,1.96v3.861h-1.986v-3.861c0-0.41-0.063-0.691-0.19-0.844
			s-0.317-0.229-0.571-0.229c-0.191,0-0.36,0.034-0.507,0.103s-0.271,0.163-0.372,0.284c0,0.066,0.002,0.124,0.006,0.173
			s0.006,0.097,0.006,0.144v4.23h-1.98v-3.861c0-0.41-0.063-0.691-0.188-0.844s-0.318-0.229-0.58-0.229
			c-0.18,0-0.343,0.034-0.489,0.103s-0.271,0.163-0.372,0.284v4.547h-1.98v-6.34H447.555z"/>
	</g>
	<path fill="#008FC3" stroke="#FFFFFF" stroke-width="2" stroke-miterlimit="10" d="M480.667,41.623
		c0,5.363-6.068,9.711-13.556,9.711h-78.318c-7.487,0-13.556-4.348-13.556-9.711V13.925c0-5.364,6.068-9.712,13.556-9.712h78.318
		c7.487,0,13.556,4.348,13.556,9.712V41.623z"/>
	<g>
		<path fill="#FFFFFF" d="M390.457,23.985h-2.689l-0.48,1.658h-1.992l2.754-8.531h2.127l2.76,8.531h-1.992L390.457,23.985z
			 M388.207,22.462h1.811l-0.891-3.053h-0.035L388.207,22.462z"/>
		<path fill="#FFFFFF" d="M395.508,25.644h-1.986v-9.141h1.986V25.644z"/>
		<path fill="#FFFFFF" d="M400.523,24.894c-0.203,0.281-0.452,0.497-0.747,0.647s-0.628,0.226-0.999,0.226
			c-0.656,0-1.171-0.211-1.544-0.633s-0.56-1.076-0.56-1.963v-3.867h1.975v3.879c0,0.355,0.067,0.621,0.202,0.797
			s0.327,0.264,0.577,0.264c0.211,0,0.396-0.029,0.557-0.088s0.297-0.146,0.41-0.264v-4.588h1.98v6.34h-1.729L400.523,24.894z"/>
		<path fill="#FFFFFF" d="M405.328,19.304l0.07,0.838c0.199-0.305,0.45-0.54,0.753-0.706s0.649-0.249,1.04-0.249
			c0.395,0,0.734,0.086,1.02,0.258s0.5,0.434,0.645,0.785c0.195-0.332,0.446-0.589,0.753-0.771s0.665-0.272,1.075-0.272
			c0.617,0,1.103,0.212,1.456,0.636s0.53,1.077,0.53,1.96v3.861h-1.986v-3.861c0-0.41-0.063-0.691-0.19-0.844
			s-0.317-0.229-0.571-0.229c-0.191,0-0.36,0.034-0.507,0.103s-0.271,0.163-0.372,0.284c0,0.066,0.002,0.124,0.006,0.173
			s0.006,0.097,0.006,0.144v4.23h-1.98v-3.861c0-0.41-0.063-0.691-0.188-0.844s-0.318-0.229-0.58-0.229
			c-0.18,0-0.343,0.034-0.489,0.103s-0.271,0.163-0.372,0.284v4.547h-1.98v-6.34H405.328z"/>
		<path fill="#FFFFFF" d="M415.875,17.833h-1.986v-1.33h1.986V17.833z M415.875,25.644h-1.986v-6.34h1.986V25.644z"/>
		<path fill="#FFFFFF" d="M418.91,19.304l0.076,0.891c0.207-0.316,0.463-0.563,0.768-0.741s0.645-0.267,1.02-0.267
			c0.621,0,1.106,0.201,1.456,0.604s0.524,1.043,0.524,1.922v3.932h-1.98v-3.938c0-0.363-0.075-0.62-0.226-0.771
			s-0.372-0.226-0.665-0.226c-0.184,0-0.347,0.033-0.489,0.1s-0.265,0.158-0.366,0.275v4.559h-1.975v-6.34H418.91z"/>
		<path fill="#FFFFFF" d="M427.635,24.894c-0.203,0.281-0.452,0.497-0.747,0.647s-0.628,0.226-0.999,0.226
			c-0.656,0-1.171-0.211-1.544-0.633s-0.56-1.076-0.56-1.963v-3.867h1.975v3.879c0,0.355,0.067,0.621,0.202,0.797
			s0.327,0.264,0.577,0.264c0.211,0,0.396-0.029,0.557-0.088s0.297-0.146,0.41-0.264v-4.588h1.98v6.34h-1.729L427.635,24.894z"/>
		<path fill="#FFFFFF" d="M432.439,19.304l0.07,0.838c0.199-0.305,0.45-0.54,0.753-0.706s0.649-0.249,1.04-0.249
			c0.395,0,0.734,0.086,1.02,0.258s0.5,0.434,0.645,0.785c0.195-0.332,0.446-0.589,0.753-0.771s0.665-0.272,1.075-0.272
			c0.617,0,1.103,0.212,1.456,0.636s0.53,1.077,0.53,1.96v3.861h-1.986v-3.861c0-0.41-0.063-0.691-0.19-0.844
			s-0.317-0.229-0.571-0.229c-0.191,0-0.36,0.034-0.507,0.103s-0.271,0.163-0.372,0.284c0,0.066,0.002,0.124,0.006,0.173
			s0.006,0.097,0.006,0.144v4.23h-1.98v-3.861c0-0.41-0.063-0.691-0.188-0.844s-0.318-0.229-0.58-0.229
			c-0.18,0-0.343,0.034-0.489,0.103s-0.271,0.163-0.372,0.284v4.547h-1.98v-6.34H432.439z"/>
		<path fill="#FFFFFF" d="M448.535,23.382c0-0.301-0.1-0.533-0.299-0.697s-0.557-0.338-1.072-0.521
			c-1.078-0.34-1.877-0.704-2.396-1.093s-0.779-0.95-0.779-1.685c0-0.715,0.31-1.293,0.929-1.734s1.405-0.662,2.358-0.662
			c0.945,0,1.72,0.243,2.323,0.729s0.896,1.112,0.876,1.878l-0.012,0.035h-1.922c0-0.34-0.115-0.616-0.346-0.829
			s-0.549-0.319-0.955-0.319c-0.398,0-0.711,0.088-0.938,0.264s-0.34,0.393-0.34,0.65c0,0.25,0.114,0.45,0.343,0.601
			s0.657,0.339,1.286,0.565c0.969,0.289,1.698,0.645,2.188,1.066s0.735,1.002,0.735,1.74c0,0.75-0.292,1.337-0.876,1.761
			s-1.358,0.636-2.323,0.636c-0.969,0-1.807-0.243-2.514-0.729s-1.051-1.187-1.031-2.101l0.012-0.035h1.928
			c0,0.492,0.133,0.844,0.398,1.055s0.668,0.316,1.207,0.316c0.41,0,0.716-0.082,0.917-0.246S448.535,23.647,448.535,23.382z"/>
		<path fill="#FFFFFF" d="M453.398,20.089c0.191-0.285,0.425-0.507,0.7-0.665s0.579-0.237,0.911-0.237
			c0.656,0,1.172,0.229,1.547,0.686s0.563,1.166,0.563,2.127v3.645h-1.98v-3.656c0-0.484-0.073-0.818-0.22-1.002
			s-0.37-0.275-0.671-0.275c-0.191,0-0.357,0.028-0.498,0.085s-0.258,0.136-0.352,0.237v4.611h-1.98v-9.141h1.98V20.089z"/>
		<path fill="#FFFFFF" d="M461.115,25.767c-0.934,0-1.679-0.293-2.235-0.879s-0.835-1.32-0.835-2.203v-0.223
			c0-0.965,0.253-1.753,0.759-2.364s1.229-0.915,2.171-0.911c0.859,0,1.533,0.258,2.021,0.773s0.732,1.215,0.732,2.098v1.037h-3.621
			l-0.012,0.035c0.043,0.324,0.176,0.591,0.398,0.8s0.52,0.313,0.891,0.313c0.375,0,0.675-0.029,0.899-0.088s0.509-0.16,0.853-0.305
			l0.469,1.207c-0.277,0.203-0.636,0.372-1.075,0.507S461.619,25.767,461.115,25.767z M460.975,20.71
			c-0.285,0-0.499,0.102-0.642,0.305s-0.229,0.475-0.261,0.814l0.018,0.029h1.705v-0.152c0-0.32-0.066-0.566-0.199-0.738
			S461.256,20.71,460.975,20.71z"/>
		<path fill="#FFFFFF" d="M466.641,25.644h-1.986v-9.141h1.986V25.644z"/>
		<path fill="#FFFFFF" d="M469.928,25.644h-1.986v-9.141h1.986V25.644z"/>
		<path fill="#FFFFFF" d="M400.732,35.72v2.924h-1.986v-8.531h3.463c1.012,0,1.814,0.259,2.408,0.776s0.891,1.194,0.891,2.03
			c0,0.84-0.297,1.517-0.891,2.03s-1.396,0.771-2.408,0.771H400.732z M400.732,34.196h1.477c0.43,0,0.757-0.118,0.981-0.354
			s0.337-0.54,0.337-0.911c0-0.379-0.112-0.689-0.337-0.932s-0.552-0.363-0.981-0.363h-1.477V34.196z"/>
		<path fill="#FFFFFF" d="M410.096,34.05l-0.721-0.006c-0.227,0-0.412,0.038-0.557,0.114s-0.252,0.185-0.322,0.325v4.16h-1.98v-6.34
			h1.863l0.07,0.932c0.133-0.332,0.309-0.59,0.527-0.773s0.475-0.275,0.768-0.275c0.094,0,0.189,0.007,0.287,0.021
			s0.184,0.03,0.258,0.05L410.096,34.05z"/>
		<path fill="#FFFFFF" d="M410.57,35.415c0-0.953,0.27-1.729,0.809-2.329s1.291-0.899,2.256-0.899c0.969,0,1.723,0.3,2.262,0.899
			s0.809,1.376,0.809,2.329v0.123c0,0.957-0.27,1.734-0.809,2.332s-1.289,0.896-2.25,0.896c-0.973,0-1.729-0.299-2.268-0.896
			s-0.809-1.375-0.809-2.332V35.415z M412.551,35.538c0,0.531,0.083,0.948,0.249,1.251s0.448,0.454,0.847,0.454
			c0.387,0,0.664-0.152,0.832-0.457s0.252-0.721,0.252-1.248v-0.123c0-0.516-0.084-0.929-0.252-1.239s-0.449-0.466-0.844-0.466
			c-0.391,0-0.669,0.156-0.835,0.469s-0.249,0.725-0.249,1.236V35.538z"/>
		<path fill="#FFFFFF" d="M417.314,35.485c0-0.988,0.216-1.785,0.647-2.391s1.04-0.908,1.825-0.908c0.293,0,0.558,0.067,0.794,0.202
			s0.448,0.327,0.636,0.577v-3.463h1.98v9.141h-1.717l-0.141-0.779c-0.195,0.293-0.423,0.517-0.683,0.671s-0.554,0.231-0.882,0.231
			c-0.781,0-1.387-0.289-1.816-0.867s-0.645-1.342-0.645-2.291V35.485z M419.295,35.608c0,0.516,0.075,0.917,0.226,1.204
			s0.403,0.431,0.759,0.431c0.207,0,0.39-0.038,0.548-0.114s0.288-0.188,0.39-0.337v-2.561c-0.102-0.168-0.23-0.297-0.387-0.387
			s-0.336-0.135-0.539-0.135c-0.352,0-0.605,0.162-0.762,0.486s-0.234,0.754-0.234,1.289V35.608z"/>
		<path fill="#FFFFFF" d="M428.125,37.894c-0.203,0.281-0.452,0.497-0.747,0.647s-0.628,0.226-0.999,0.226
			c-0.656,0-1.171-0.211-1.544-0.633s-0.56-1.076-0.56-1.963v-3.867h1.975v3.879c0,0.355,0.067,0.621,0.202,0.797
			s0.327,0.264,0.577,0.264c0.211,0,0.396-0.029,0.557-0.088s0.297-0.146,0.41-0.264v-4.588h1.98v6.34h-1.729L428.125,37.894z"/>
		<path fill="#FFFFFF" d="M433.773,37.243c0.266,0,0.463-0.072,0.592-0.217s0.193-0.357,0.193-0.639h1.811l0.012,0.035
			c0.016,0.691-0.224,1.255-0.718,1.69s-1.124,0.653-1.89,0.653c-0.961,0-1.702-0.299-2.224-0.896s-0.782-1.373-0.782-2.326v-0.135
			c0-0.949,0.26-1.724,0.779-2.323s1.256-0.899,2.209-0.899c0.805,0,1.447,0.225,1.928,0.674s0.713,1.061,0.697,1.834l-0.012,0.035
			h-1.811c0-0.301-0.066-0.546-0.199-0.735s-0.334-0.284-0.604-0.284c-0.375,0-0.638,0.154-0.788,0.463s-0.226,0.721-0.226,1.236
			v0.135c0,0.531,0.075,0.947,0.226,1.248S433.387,37.243,433.773,37.243z"/>
		<path fill="#FFFFFF" d="M439.539,30.728v1.576h1.072v1.371h-1.072v2.906c0,0.227,0.046,0.39,0.138,0.489s0.216,0.149,0.372,0.149
			c0.125,0,0.224-0.004,0.296-0.012s0.165-0.023,0.278-0.047l0.141,1.465c-0.219,0.051-0.416,0.087-0.592,0.108
			s-0.383,0.032-0.621,0.032c-0.652,0-1.146-0.174-1.482-0.521s-0.504-0.898-0.504-1.652v-2.918h-0.891v-1.371h0.891v-1.576H439.539
			z"/>
		<path fill="#FFFFFF" d="M443.617,30.833h-1.986v-1.33h1.986V30.833z M443.617,38.644h-1.986v-6.34h1.986V38.644z"/>
		<path fill="#FFFFFF" d="M444.566,35.415c0-0.953,0.27-1.729,0.809-2.329s1.291-0.899,2.256-0.899c0.969,0,1.723,0.3,2.262,0.899
			s0.809,1.376,0.809,2.329v0.123c0,0.957-0.27,1.734-0.809,2.332s-1.289,0.896-2.25,0.896c-0.973,0-1.729-0.299-2.268-0.896
			s-0.809-1.375-0.809-2.332V35.415z M446.547,35.538c0,0.531,0.083,0.948,0.249,1.251s0.448,0.454,0.847,0.454
			c0.387,0,0.664-0.152,0.832-0.457s0.252-0.721,0.252-1.248v-0.123c0-0.516-0.084-0.929-0.252-1.239s-0.449-0.466-0.844-0.466
			c-0.391,0-0.669,0.156-0.835,0.469s-0.249,0.725-0.249,1.236V35.538z"/>
		<path fill="#FFFFFF" d="M453.396,32.304l0.076,0.891c0.207-0.316,0.463-0.563,0.768-0.741s0.645-0.267,1.02-0.267
			c0.621,0,1.106,0.201,1.456,0.604s0.524,1.043,0.524,1.922v3.932h-1.98v-3.938c0-0.363-0.075-0.62-0.226-0.771
			s-0.372-0.226-0.665-0.226c-0.184,0-0.347,0.033-0.489,0.1s-0.265,0.158-0.366,0.275v4.559h-1.975v-6.34H453.396z"/>
	</g>
	<path fill="#2AAF6B" stroke="#FFFFFF" stroke-width="2" stroke-miterlimit="10" d="M191.709,295.623
		c0,5.363-4.604,9.711-10.286,9.711h-59.426c-5.682,0-10.286-4.348-10.286-9.711v-27.698c0-5.364,4.604-9.712,10.286-9.712h59.426
		c5.682,0,10.286,4.348,10.286,9.712V295.623z"/>
	<g>
		<path fill="#FFFFFF" d="M122.025,273.311v-8.531h3.082c1.004,0,1.844,0.327,2.52,0.981s1.014,1.493,1.014,2.517v1.535
			c0,1.027-0.338,1.867-1.014,2.52s-1.516,0.979-2.52,0.979H122.025z M124.012,266.303v5.484h0.961c0.527,0,0.939-0.181,1.236-0.542
			s0.445-0.839,0.445-1.433v-1.547c0-0.59-0.148-1.064-0.445-1.424s-0.709-0.539-1.236-0.539H124.012z"/>
		<path fill="#FFFFFF" d="M131.834,265.5h-1.986v-1.33h1.986V265.5z M131.834,273.311h-1.986v-6.34h1.986V273.311z"/>
		<path fill="#FFFFFF" d="M136.352,271.529c0-0.156-0.089-0.296-0.267-0.419s-0.501-0.233-0.97-0.331
			c-0.738-0.145-1.295-0.369-1.67-0.674s-0.563-0.721-0.563-1.248c0-0.559,0.234-1.032,0.703-1.421s1.104-0.583,1.904-0.583
			c0.844,0,1.516,0.188,2.016,0.565s0.738,0.864,0.715,1.462l-0.012,0.035h-1.922c0-0.25-0.063-0.439-0.19-0.568
			s-0.331-0.193-0.612-0.193c-0.207,0-0.381,0.057-0.521,0.17s-0.211,0.258-0.211,0.434c0,0.168,0.081,0.311,0.243,0.428
			s0.489,0.223,0.981,0.316c0.773,0.152,1.347,0.38,1.72,0.683s0.56,0.731,0.56,1.286c0,0.57-0.253,1.04-0.759,1.409
			s-1.175,0.554-2.007,0.554c-0.863,0-1.546-0.219-2.048-0.656s-0.741-0.926-0.718-1.465l0.012-0.035h1.793
			c0.008,0.301,0.099,0.518,0.272,0.65s0.421,0.199,0.741,0.199c0.266,0,0.467-0.052,0.604-0.155S136.352,271.721,136.352,271.529z"
			/>
		<path fill="#FFFFFF" d="M145.059,270.275c0,0.953-0.215,1.718-0.645,2.294s-1.035,0.864-1.816,0.864
			c-0.305,0-0.575-0.059-0.812-0.176s-0.442-0.287-0.618-0.51v3h-1.98v-8.777h1.852l0.07,0.697c0.18-0.262,0.391-0.463,0.633-0.604
			s0.523-0.211,0.844-0.211c0.785,0,1.394,0.303,1.825,0.908s0.647,1.402,0.647,2.391V270.275z M143.084,270.152
			c0-0.535-0.078-0.965-0.234-1.289s-0.406-0.486-0.75-0.486c-0.223,0-0.411,0.041-0.565,0.123s-0.276,0.201-0.366,0.357v2.648
			c0.094,0.137,0.218,0.238,0.372,0.305s0.345,0.1,0.571,0.1c0.348,0,0.597-0.144,0.747-0.431s0.226-0.688,0.226-1.204V270.152z"/>
		<path fill="#FFFFFF" d="M145.668,270.082c0-0.953,0.27-1.729,0.809-2.329s1.291-0.899,2.256-0.899c0.969,0,1.723,0.3,2.262,0.899
			s0.809,1.376,0.809,2.329v0.123c0,0.957-0.27,1.734-0.809,2.332s-1.289,0.896-2.25,0.896c-0.973,0-1.729-0.299-2.268-0.896
			s-0.809-1.375-0.809-2.332V270.082z M147.648,270.205c0,0.531,0.083,0.948,0.249,1.251s0.448,0.454,0.847,0.454
			c0.387,0,0.664-0.152,0.832-0.457s0.252-0.721,0.252-1.248v-0.123c0-0.516-0.084-0.929-0.252-1.239s-0.449-0.466-0.844-0.466
			c-0.391,0-0.669,0.156-0.835,0.469s-0.249,0.725-0.249,1.236V270.205z"/>
		<path fill="#FFFFFF" d="M155.98,271.529c0-0.156-0.089-0.296-0.267-0.419s-0.501-0.233-0.97-0.331
			c-0.738-0.145-1.295-0.369-1.67-0.674s-0.563-0.721-0.563-1.248c0-0.559,0.234-1.032,0.703-1.421s1.104-0.583,1.904-0.583
			c0.844,0,1.516,0.188,2.016,0.565s0.738,0.864,0.715,1.462l-0.012,0.035h-1.922c0-0.25-0.063-0.439-0.19-0.568
			s-0.331-0.193-0.612-0.193c-0.207,0-0.381,0.057-0.521,0.17s-0.211,0.258-0.211,0.434c0,0.168,0.081,0.311,0.243,0.428
			s0.489,0.223,0.981,0.316c0.773,0.152,1.347,0.38,1.72,0.683s0.56,0.731,0.56,1.286c0,0.57-0.253,1.04-0.759,1.409
			s-1.175,0.554-2.007,0.554c-0.863,0-1.546-0.219-2.048-0.656s-0.741-0.926-0.718-1.465l0.012-0.035h1.793
			c0.008,0.301,0.099,0.518,0.272,0.65s0.421,0.199,0.741,0.199c0.266,0,0.467-0.052,0.604-0.155S155.98,271.721,155.98,271.529z"/>
		<path fill="#FFFFFF" d="M162.461,273.305c-0.055-0.102-0.104-0.215-0.149-0.34s-0.083-0.254-0.114-0.387
			c-0.188,0.262-0.414,0.47-0.68,0.624s-0.588,0.231-0.967,0.231c-0.602,0-1.091-0.174-1.468-0.521s-0.565-0.811-0.565-1.389
			c0-0.629,0.235-1.114,0.706-1.456s1.187-0.513,2.147-0.513h0.721v-0.451c0-0.27-0.063-0.477-0.19-0.621s-0.323-0.217-0.589-0.217
			c-0.227,0-0.396,0.054-0.507,0.161s-0.167,0.274-0.167,0.501l-1.916-0.006l-0.012-0.035c-0.027-0.578,0.213-1.062,0.721-1.45
			s1.18-0.583,2.016-0.583c0.781,0,1.415,0.195,1.901,0.586s0.729,0.949,0.729,1.676v2.391c0,0.34,0.028,0.654,0.085,0.943
			s0.142,0.576,0.255,0.861L162.461,273.305z M161.154,272.021c0.195,0,0.375-0.039,0.539-0.117s0.297-0.18,0.398-0.305v-0.99
			h-0.703c-0.313,0-0.54,0.076-0.683,0.229s-0.214,0.346-0.214,0.58c0,0.18,0.062,0.325,0.185,0.437
			S160.959,272.021,161.154,272.021z"/>
		<path fill="#FFFFFF" d="M167.254,273.311h-1.986v-9.141h1.986V273.311z"/>
		<path fill="#FFFFFF" d="M171.191,270.082c0-0.953,0.27-1.729,0.809-2.329s1.291-0.899,2.256-0.899c0.969,0,1.723,0.3,2.262,0.899
			s0.809,1.376,0.809,2.329v0.123c0,0.957-0.27,1.734-0.809,2.332s-1.289,0.896-2.25,0.896c-0.973,0-1.729-0.299-2.268-0.896
			s-0.809-1.375-0.809-2.332V270.082z M173.172,270.205c0,0.531,0.083,0.948,0.249,1.251s0.448,0.454,0.847,0.454
			c0.387,0,0.664-0.152,0.832-0.457s0.252-0.721,0.252-1.248v-0.123c0-0.516-0.084-0.929-0.252-1.239s-0.449-0.466-0.844-0.466
			c-0.391,0-0.669,0.156-0.835,0.469s-0.249,0.725-0.249,1.236V270.205z"/>
		<path fill="#FFFFFF" d="M178.621,273.311v-4.969h-0.914v-1.371h0.914v-0.656c0-0.73,0.219-1.291,0.656-1.682
			s1.057-0.586,1.857-0.586c0.148,0,0.301,0.011,0.457,0.032s0.33,0.052,0.521,0.091l-0.146,1.459
			c-0.105-0.02-0.2-0.034-0.284-0.044s-0.187-0.015-0.308-0.015c-0.246,0-0.436,0.064-0.568,0.193s-0.199,0.313-0.199,0.551v0.656
			h1.23v1.371h-1.23v4.969H178.621z"/>
		<path fill="#FFFFFF" d="M130.438,283.387v2.924h-1.986v-8.531h3.463c1.012,0,1.814,0.259,2.408,0.776s0.891,1.194,0.891,2.03
			c0,0.84-0.297,1.517-0.891,2.03s-1.396,0.771-2.408,0.771H130.438z M130.438,281.863h1.477c0.43,0,0.757-0.118,0.981-0.354
			s0.337-0.54,0.337-0.911c0-0.379-0.112-0.689-0.337-0.932s-0.552-0.363-0.981-0.363h-1.477V281.863z"/>
		<path fill="#FFFFFF" d="M138.295,286.311h-1.986v-9.141h1.986V286.311z"/>
		<path fill="#FFFFFF" d="M143.152,286.305c-0.055-0.102-0.104-0.215-0.149-0.34s-0.083-0.254-0.114-0.387
			c-0.188,0.262-0.414,0.47-0.68,0.624s-0.588,0.231-0.967,0.231c-0.602,0-1.091-0.174-1.468-0.521s-0.565-0.811-0.565-1.389
			c0-0.629,0.235-1.114,0.706-1.456s1.187-0.513,2.147-0.513h0.721v-0.451c0-0.27-0.063-0.477-0.19-0.621s-0.323-0.217-0.589-0.217
			c-0.227,0-0.396,0.054-0.507,0.161s-0.167,0.274-0.167,0.501l-1.916-0.006l-0.012-0.035c-0.027-0.578,0.213-1.062,0.721-1.45
			s1.18-0.583,2.016-0.583c0.781,0,1.415,0.195,1.901,0.586s0.729,0.949,0.729,1.676v2.391c0,0.34,0.028,0.654,0.085,0.943
			s0.142,0.576,0.255,0.861L143.152,286.305z M141.846,285.021c0.195,0,0.375-0.039,0.539-0.117s0.297-0.18,0.398-0.305v-0.99
			h-0.703c-0.313,0-0.54,0.076-0.683,0.229s-0.214,0.346-0.214,0.58c0,0.18,0.062,0.325,0.185,0.437S141.65,285.021,141.846,285.021
			z"/>
		<path fill="#FFFFFF" d="M149.176,284.529c0-0.156-0.089-0.296-0.267-0.419s-0.501-0.233-0.97-0.331
			c-0.738-0.145-1.295-0.369-1.67-0.674s-0.563-0.721-0.563-1.248c0-0.559,0.234-1.032,0.703-1.421s1.104-0.583,1.904-0.583
			c0.844,0,1.516,0.188,2.016,0.565s0.738,0.864,0.715,1.462l-0.012,0.035h-1.922c0-0.25-0.063-0.439-0.19-0.568
			s-0.331-0.193-0.612-0.193c-0.207,0-0.381,0.057-0.521,0.17s-0.211,0.258-0.211,0.434c0,0.168,0.081,0.311,0.243,0.428
			s0.489,0.223,0.981,0.316c0.773,0.152,1.347,0.38,1.72,0.683s0.56,0.731,0.56,1.286c0,0.57-0.253,1.04-0.759,1.409
			s-1.175,0.554-2.007,0.554c-0.863,0-1.546-0.219-2.048-0.656s-0.741-0.926-0.718-1.465l0.012-0.035h1.793
			c0.008,0.301,0.099,0.518,0.272,0.65s0.421,0.199,0.741,0.199c0.266,0,0.467-0.052,0.604-0.155S149.176,284.721,149.176,284.529z"
			/>
		<path fill="#FFFFFF" d="M154.355,278.395v1.576h1.072v1.371h-1.072v2.906c0,0.227,0.046,0.39,0.138,0.489s0.216,0.149,0.372,0.149
			c0.125,0,0.224-0.004,0.296-0.012s0.165-0.023,0.278-0.047l0.141,1.465c-0.219,0.051-0.416,0.087-0.592,0.108
			s-0.383,0.032-0.621,0.032c-0.652,0-1.146-0.174-1.482-0.521s-0.504-0.898-0.504-1.652v-2.918h-0.891v-1.371h0.891v-1.576H154.355
			z"/>
		<path fill="#FFFFFF" d="M158.434,278.5h-1.986v-1.33h1.986V278.5z M158.434,286.311h-1.986v-6.34h1.986V286.311z"/>
		<path fill="#FFFFFF" d="M162.354,284.91c0.266,0,0.463-0.072,0.592-0.217s0.193-0.357,0.193-0.639h1.811l0.012,0.035
			c0.016,0.691-0.224,1.255-0.718,1.69s-1.124,0.653-1.89,0.653c-0.961,0-1.702-0.299-2.224-0.896s-0.782-1.373-0.782-2.326v-0.135
			c0-0.949,0.26-1.724,0.779-2.323s1.256-0.899,2.209-0.899c0.805,0,1.447,0.225,1.928,0.674s0.713,1.061,0.697,1.834l-0.012,0.035
			h-1.811c0-0.301-0.066-0.546-0.199-0.735s-0.334-0.284-0.604-0.284c-0.375,0-0.638,0.154-0.788,0.463s-0.226,0.721-0.226,1.236
			v0.135c0,0.531,0.075,0.947,0.226,1.248S161.967,284.91,162.354,284.91z"/>
		<path fill="#FFFFFF" d="M169.08,284.529c0-0.156-0.089-0.296-0.267-0.419s-0.501-0.233-0.97-0.331
			c-0.738-0.145-1.295-0.369-1.67-0.674s-0.563-0.721-0.563-1.248c0-0.559,0.234-1.032,0.703-1.421s1.104-0.583,1.904-0.583
			c0.844,0,1.516,0.188,2.016,0.565s0.738,0.864,0.715,1.462l-0.012,0.035h-1.922c0-0.25-0.063-0.439-0.19-0.568
			s-0.331-0.193-0.612-0.193c-0.207,0-0.381,0.057-0.521,0.17s-0.211,0.258-0.211,0.434c0,0.168,0.081,0.311,0.243,0.428
			s0.489,0.223,0.981,0.316c0.773,0.152,1.347,0.38,1.72,0.683s0.56,0.731,0.56,1.286c0,0.57-0.253,1.04-0.759,1.409
			s-1.175,0.554-2.007,0.554c-0.863,0-1.546-0.219-2.048-0.656s-0.741-0.926-0.718-1.465l0.012-0.035h1.793
			c0.008,0.301,0.099,0.518,0.272,0.65s0.421,0.199,0.741,0.199c0.266,0,0.467-0.052,0.604-0.155S169.08,284.721,169.08,284.529z"/>
		<path fill="#FFFFFF" d="M172.584,287.043h-1.4l2.912-9.264h1.406L172.584,287.043z"/>
		<path fill="#FFFFFF" d="M127.525,295.66h-3.346v2.127h3.943v1.523h-5.93v-8.531h5.941v1.523h-3.955v1.834h3.346V295.66z"/>
		<path fill="#FFFFFF" d="M130.988,299.311h-1.986v-9.141h1.986V299.311z"/>
		<path fill="#FFFFFF" d="M135.096,299.434c-0.934,0-1.679-0.293-2.235-0.879s-0.835-1.32-0.835-2.203v-0.223
			c0-0.965,0.253-1.753,0.759-2.364s1.229-0.915,2.171-0.911c0.859,0,1.533,0.258,2.021,0.773s0.732,1.215,0.732,2.098v1.037h-3.621
			l-0.012,0.035c0.043,0.324,0.176,0.591,0.398,0.8s0.52,0.313,0.891,0.313c0.375,0,0.675-0.029,0.899-0.088s0.509-0.16,0.853-0.305
			l0.469,1.207c-0.277,0.203-0.636,0.372-1.075,0.507S135.6,299.434,135.096,299.434z M134.955,294.377
			c-0.285,0-0.499,0.102-0.642,0.305s-0.229,0.475-0.261,0.814l0.018,0.029h1.705v-0.152c0-0.32-0.066-0.566-0.199-0.738
			S135.236,294.377,134.955,294.377z"/>
		<path fill="#FFFFFF" d="M141.254,297.91c0.266,0,0.463-0.072,0.592-0.217s0.193-0.357,0.193-0.639h1.811l0.012,0.035
			c0.016,0.691-0.224,1.255-0.718,1.69s-1.124,0.653-1.89,0.653c-0.961,0-1.702-0.299-2.224-0.896s-0.782-1.373-0.782-2.326v-0.135
			c0-0.949,0.26-1.724,0.779-2.323s1.256-0.899,2.209-0.899c0.805,0,1.447,0.225,1.928,0.674s0.713,1.061,0.697,1.834l-0.012,0.035
			h-1.811c0-0.301-0.066-0.546-0.199-0.735s-0.334-0.284-0.604-0.284c-0.375,0-0.638,0.154-0.788,0.463s-0.226,0.721-0.226,1.236
			v0.135c0,0.531,0.075,0.947,0.226,1.248S140.867,297.91,141.254,297.91z"/>
		<path fill="#FFFFFF" d="M147.02,291.395v1.576h1.072v1.371h-1.072v2.906c0,0.227,0.046,0.39,0.138,0.489s0.216,0.149,0.372,0.149
			c0.125,0,0.224-0.004,0.296-0.012s0.165-0.023,0.278-0.047l0.141,1.465c-0.219,0.051-0.416,0.087-0.592,0.108
			s-0.383,0.032-0.621,0.032c-0.652,0-1.146-0.174-1.482-0.521s-0.504-0.898-0.504-1.652v-2.918h-0.891v-1.371h0.891v-1.576H147.02z
			"/>
		<path fill="#FFFFFF" d="M152.604,294.717l-0.721-0.006c-0.227,0-0.412,0.038-0.557,0.114s-0.252,0.185-0.322,0.325v4.16h-1.98
			v-6.34h1.863l0.07,0.932c0.133-0.332,0.309-0.59,0.527-0.773s0.475-0.275,0.768-0.275c0.094,0,0.189,0.007,0.287,0.021
			s0.184,0.03,0.258,0.05L152.604,294.717z"/>
		<path fill="#FFFFFF" d="M153.078,296.082c0-0.953,0.27-1.729,0.809-2.329s1.291-0.899,2.256-0.899c0.969,0,1.723,0.3,2.262,0.899
			s0.809,1.376,0.809,2.329v0.123c0,0.957-0.27,1.734-0.809,2.332s-1.289,0.896-2.25,0.896c-0.973,0-1.729-0.299-2.268-0.896
			s-0.809-1.375-0.809-2.332V296.082z M155.059,296.205c0,0.531,0.083,0.948,0.249,1.251s0.448,0.454,0.847,0.454
			c0.387,0,0.664-0.152,0.832-0.457s0.252-0.721,0.252-1.248v-0.123c0-0.516-0.084-0.929-0.252-1.239s-0.449-0.466-0.844-0.466
			c-0.391,0-0.669,0.156-0.835,0.469s-0.249,0.725-0.249,1.236V296.205z"/>
		<path fill="#FFFFFF" d="M161.908,292.971l0.076,0.891c0.207-0.316,0.463-0.563,0.768-0.741s0.645-0.267,1.02-0.267
			c0.621,0,1.106,0.201,1.456,0.604s0.524,1.043,0.524,1.922v3.932h-1.98v-3.938c0-0.363-0.075-0.62-0.226-0.771
			s-0.372-0.226-0.665-0.226c-0.184,0-0.347,0.033-0.489,0.1s-0.265,0.158-0.366,0.275v4.559h-1.975v-6.34H161.908z"/>
		<path fill="#FFFFFF" d="M168.904,291.5h-1.986v-1.33h1.986V291.5z M168.904,299.311h-1.986v-6.34h1.986V299.311z"/>
		<path fill="#FFFFFF" d="M172.824,297.91c0.266,0,0.463-0.072,0.592-0.217s0.193-0.357,0.193-0.639h1.811l0.012,0.035
			c0.016,0.691-0.224,1.255-0.718,1.69s-1.124,0.653-1.89,0.653c-0.961,0-1.702-0.299-2.224-0.896s-0.782-1.373-0.782-2.326v-0.135
			c0-0.949,0.26-1.724,0.779-2.323s1.256-0.899,2.209-0.899c0.805,0,1.447,0.225,1.928,0.674s0.713,1.061,0.697,1.834l-0.012,0.035
			h-1.811c0-0.301-0.066-0.546-0.199-0.735s-0.334-0.284-0.604-0.284c-0.375,0-0.638,0.154-0.788,0.463s-0.226,0.721-0.226,1.236
			v0.135c0,0.531,0.075,0.947,0.226,1.248S172.438,297.91,172.824,297.91z"/>
		<path fill="#FFFFFF" d="M179.551,297.529c0-0.156-0.089-0.296-0.267-0.419s-0.501-0.233-0.97-0.331
			c-0.738-0.145-1.295-0.369-1.67-0.674s-0.563-0.721-0.563-1.248c0-0.559,0.234-1.032,0.703-1.421s1.104-0.583,1.904-0.583
			c0.844,0,1.516,0.188,2.016,0.565s0.738,0.864,0.715,1.462l-0.012,0.035h-1.922c0-0.25-0.063-0.439-0.19-0.568
			s-0.331-0.193-0.612-0.193c-0.207,0-0.381,0.057-0.521,0.17s-0.211,0.258-0.211,0.434c0,0.168,0.081,0.311,0.243,0.428
			s0.489,0.223,0.981,0.316c0.773,0.152,1.347,0.38,1.72,0.683s0.56,0.731,0.56,1.286c0,0.57-0.253,1.04-0.759,1.409
			s-1.175,0.554-2.007,0.554c-0.863,0-1.546-0.219-2.048-0.656s-0.741-0.926-0.718-1.465l0.012-0.035h1.793
			c0.008,0.301,0.099,0.518,0.272,0.65s0.421,0.199,0.741,0.199c0.266,0,0.467-0.052,0.604-0.155S179.551,297.721,179.551,297.529z"
			/>
	</g>
	<path fill="#2AAF6B" stroke="#FFFFFF" stroke-width="2" stroke-miterlimit="10" d="M204.425,41.623
		c0,5.363-6.068,9.711-13.556,9.711h-78.318c-7.487,0-13.556-4.348-13.556-9.711V13.925c0-5.364,6.068-9.712,13.556-9.712h78.318
		c7.487,0,13.556,4.348,13.556,9.712V41.623z"/>
	<g>
		<path fill="#FFFFFF" d="M130.596,15.66h-3.346v2.127h3.943v1.523h-5.93v-8.531h5.941v1.523h-3.955v1.834h3.346V15.66z"/>
		<path fill="#FFFFFF" d="M134.059,19.311h-1.986V10.17h1.986V19.311z"/>
		<path fill="#FFFFFF" d="M138.166,19.434c-0.934,0-1.679-0.293-2.235-0.879s-0.835-1.32-0.835-2.203v-0.223
			c0-0.965,0.253-1.753,0.759-2.364s1.229-0.915,2.171-0.911c0.859,0,1.533,0.258,2.021,0.773s0.732,1.215,0.732,2.098v1.037h-3.621
			l-0.012,0.035c0.043,0.324,0.176,0.591,0.398,0.8s0.52,0.313,0.891,0.313c0.375,0,0.675-0.029,0.899-0.088s0.509-0.16,0.853-0.305
			l0.469,1.207c-0.277,0.203-0.636,0.372-1.075,0.507S138.67,19.434,138.166,19.434z M138.025,14.377
			c-0.285,0-0.499,0.102-0.642,0.305s-0.229,0.475-0.261,0.814l0.018,0.029h1.705v-0.152c0-0.32-0.066-0.566-0.199-0.738
			S138.307,14.377,138.025,14.377z"/>
		<path fill="#FFFFFF" d="M144.324,17.91c0.266,0,0.463-0.072,0.592-0.217s0.193-0.357,0.193-0.639h1.811l0.012,0.035
			c0.016,0.691-0.224,1.255-0.718,1.69s-1.124,0.653-1.89,0.653c-0.961,0-1.702-0.299-2.224-0.896s-0.782-1.373-0.782-2.326v-0.135
			c0-0.949,0.26-1.724,0.779-2.323s1.256-0.899,2.209-0.899c0.805,0,1.447,0.225,1.928,0.674s0.713,1.061,0.697,1.834l-0.012,0.035
			h-1.811c0-0.301-0.066-0.546-0.199-0.735s-0.334-0.284-0.604-0.284c-0.375,0-0.638,0.154-0.788,0.463s-0.226,0.721-0.226,1.236
			v0.135c0,0.531,0.075,0.947,0.226,1.248S143.938,17.91,144.324,17.91z"/>
		<path fill="#FFFFFF" d="M150.09,11.395v1.576h1.072v1.371h-1.072v2.906c0,0.227,0.046,0.39,0.138,0.489s0.216,0.149,0.372,0.149
			c0.125,0,0.224-0.004,0.296-0.012s0.165-0.023,0.278-0.047l0.141,1.465c-0.219,0.051-0.416,0.087-0.592,0.108
			s-0.383,0.032-0.621,0.032c-0.652,0-1.146-0.174-1.482-0.521s-0.504-0.898-0.504-1.652v-2.918h-0.891v-1.371h0.891v-1.576H150.09z
			"/>
		<path fill="#FFFFFF" d="M155.674,14.717l-0.721-0.006c-0.227,0-0.412,0.038-0.557,0.114s-0.252,0.185-0.322,0.325v4.16h-1.98
			v-6.34h1.863l0.07,0.932c0.133-0.332,0.309-0.59,0.527-0.773s0.475-0.275,0.768-0.275c0.094,0,0.189,0.007,0.287,0.021
			s0.184,0.03,0.258,0.05L155.674,14.717z"/>
		<path fill="#FFFFFF" d="M156.148,16.082c0-0.953,0.27-1.729,0.809-2.329s1.291-0.899,2.256-0.899c0.969,0,1.723,0.3,2.262,0.899
			s0.809,1.376,0.809,2.329v0.123c0,0.957-0.27,1.734-0.809,2.332s-1.289,0.896-2.25,0.896c-0.973,0-1.729-0.299-2.268-0.896
			s-0.809-1.375-0.809-2.332V16.082z M158.129,16.205c0,0.531,0.083,0.948,0.249,1.251s0.448,0.454,0.847,0.454
			c0.387,0,0.664-0.152,0.832-0.457s0.252-0.721,0.252-1.248v-0.123c0-0.516-0.084-0.929-0.252-1.239s-0.449-0.466-0.844-0.466
			c-0.391,0-0.669,0.156-0.835,0.469s-0.249,0.725-0.249,1.236V16.205z"/>
		<path fill="#FFFFFF" d="M164.979,12.971l0.076,0.891c0.207-0.316,0.463-0.563,0.768-0.741s0.645-0.267,1.02-0.267
			c0.621,0,1.106,0.201,1.456,0.604s0.524,1.043,0.524,1.922v3.932h-1.98v-3.938c0-0.363-0.075-0.62-0.226-0.771
			s-0.372-0.226-0.665-0.226c-0.184,0-0.347,0.033-0.489,0.1s-0.265,0.158-0.366,0.275v4.559h-1.975v-6.34H164.979z"/>
		<path fill="#FFFFFF" d="M171.975,11.5h-1.986v-1.33h1.986V11.5z M171.975,19.311h-1.986v-6.34h1.986V19.311z"/>
		<path fill="#FFFFFF" d="M175.895,17.91c0.266,0,0.463-0.072,0.592-0.217s0.193-0.357,0.193-0.639h1.811l0.012,0.035
			c0.016,0.691-0.224,1.255-0.718,1.69s-1.124,0.653-1.89,0.653c-0.961,0-1.702-0.299-2.224-0.896s-0.782-1.373-0.782-2.326v-0.135
			c0-0.949,0.26-1.724,0.779-2.323s1.256-0.899,2.209-0.899c0.805,0,1.447,0.225,1.928,0.674s0.713,1.061,0.697,1.834l-0.012,0.035
			h-1.811c0-0.301-0.066-0.546-0.199-0.735s-0.334-0.284-0.604-0.284c-0.375,0-0.638,0.154-0.788,0.463s-0.226,0.721-0.226,1.236
			v0.135c0,0.531,0.075,0.947,0.226,1.248S175.508,17.91,175.895,17.91z"/>
		<path fill="#FFFFFF" d="M133.709,29.316l0.012,0.035c-0.039,1-0.335,1.764-0.888,2.291s-1.354,0.791-2.405,0.791
			c-1.055,0-1.912-0.324-2.572-0.973s-0.99-1.49-0.99-2.525v-1.781c0-1.031,0.317-1.872,0.952-2.522s1.46-0.976,2.476-0.976
			c1.078,0,1.902,0.271,2.473,0.814s0.893,1.314,0.967,2.314l-0.012,0.035h-1.928c-0.027-0.555-0.151-0.967-0.372-1.236
			s-0.597-0.404-1.128-0.404c-0.449,0-0.803,0.181-1.061,0.542s-0.387,0.835-0.387,1.421v1.793c0,0.59,0.141,1.066,0.422,1.43
			s0.668,0.545,1.16,0.545c0.477,0,0.814-0.127,1.014-0.381s0.313-0.658,0.34-1.213H133.709z"/>
		<path fill="#FFFFFF" d="M138.314,32.305c-0.055-0.102-0.104-0.215-0.149-0.34s-0.083-0.254-0.114-0.387
			c-0.188,0.262-0.414,0.47-0.68,0.624s-0.588,0.231-0.967,0.231c-0.602,0-1.091-0.174-1.468-0.521s-0.565-0.811-0.565-1.389
			c0-0.629,0.235-1.114,0.706-1.456s1.187-0.513,2.147-0.513h0.721v-0.451c0-0.27-0.063-0.477-0.19-0.621s-0.323-0.217-0.589-0.217
			c-0.227,0-0.396,0.054-0.507,0.161s-0.167,0.274-0.167,0.501l-1.916-0.006l-0.012-0.035c-0.027-0.578,0.213-1.062,0.721-1.45
			s1.18-0.583,2.016-0.583c0.781,0,1.415,0.195,1.901,0.586s0.729,0.949,0.729,1.676v2.391c0,0.34,0.028,0.654,0.085,0.943
			s0.142,0.576,0.255,0.861L138.314,32.305z M137.008,31.021c0.195,0,0.375-0.039,0.539-0.117s0.297-0.18,0.398-0.305v-0.99h-0.703
			c-0.313,0-0.54,0.076-0.683,0.229s-0.214,0.346-0.214,0.58c0,0.18,0.062,0.325,0.185,0.437S136.813,31.021,137.008,31.021z"/>
		<path fill="#FFFFFF" d="M144.613,27.717l-0.721-0.006c-0.227,0-0.412,0.038-0.557,0.114s-0.252,0.185-0.322,0.325v4.16h-1.98
			v-6.34h1.863l0.07,0.932c0.133-0.332,0.309-0.59,0.527-0.773s0.475-0.275,0.768-0.275c0.094,0,0.189,0.007,0.287,0.021
			s0.184,0.03,0.258,0.05L144.613,27.717z"/>
		<path fill="#FFFFFF" d="M147.953,24.395v1.576h1.072v1.371h-1.072v2.906c0,0.227,0.046,0.39,0.138,0.489s0.216,0.149,0.372,0.149
			c0.125,0,0.224-0.004,0.296-0.012s0.165-0.023,0.278-0.047l0.141,1.465c-0.219,0.051-0.416,0.087-0.592,0.108
			s-0.383,0.032-0.621,0.032c-0.652,0-1.146-0.174-1.482-0.521s-0.504-0.898-0.504-1.652v-2.918h-0.891v-1.371h0.891v-1.576H147.953
			z"/>
		<path fill="#FFFFFF" d="M153.537,27.717l-0.721-0.006c-0.227,0-0.412,0.038-0.557,0.114s-0.252,0.185-0.322,0.325v4.16h-1.98
			v-6.34h1.863l0.07,0.932c0.133-0.332,0.309-0.59,0.527-0.773s0.475-0.275,0.768-0.275c0.094,0,0.189,0.007,0.287,0.021
			s0.184,0.03,0.258,0.05L153.537,27.717z"/>
		<path fill="#FFFFFF" d="M156.467,24.5h-1.986v-1.33h1.986V24.5z M156.467,32.311h-1.986v-6.34h1.986V32.311z"/>
		<path fill="#FFFFFF" d="M157.416,29.152c0-0.988,0.216-1.785,0.647-2.391s1.04-0.908,1.825-0.908c0.293,0,0.558,0.067,0.794,0.202
			s0.448,0.327,0.636,0.577V23.17h1.98v9.141h-1.717l-0.141-0.779c-0.195,0.293-0.423,0.517-0.683,0.671s-0.554,0.231-0.882,0.231
			c-0.781,0-1.387-0.289-1.816-0.867s-0.645-1.342-0.645-2.291V29.152z M159.396,29.275c0,0.516,0.075,0.917,0.226,1.204
			s0.403,0.431,0.759,0.431c0.207,0,0.39-0.038,0.548-0.114s0.288-0.188,0.39-0.337v-2.561c-0.102-0.168-0.23-0.297-0.387-0.387
			s-0.336-0.135-0.539-0.135c-0.352,0-0.605,0.162-0.762,0.486s-0.234,0.754-0.234,1.289V29.275z"/>
		<path fill="#FFFFFF" d="M164.16,29.152c0-0.988,0.215-1.785,0.645-2.391s1.037-0.908,1.822-0.908c0.336,0,0.631,0.079,0.885,0.237
			s0.473,0.384,0.656,0.677l0.135-0.797h1.734v6.094c0,0.848-0.291,1.527-0.873,2.039s-1.365,0.768-2.35,0.768
			c-0.328,0-0.672-0.045-1.031-0.135s-0.701-0.211-1.025-0.363l0.322-1.465c0.289,0.125,0.564,0.218,0.826,0.278
			s0.561,0.091,0.896,0.091c0.406,0,0.717-0.109,0.932-0.328s0.322-0.518,0.322-0.896V31.73c-0.18,0.23-0.389,0.405-0.627,0.524
			s-0.51,0.179-0.814,0.179c-0.781,0-1.386-0.289-1.813-0.867s-0.642-1.342-0.642-2.291V29.152z M166.135,29.275
			c0,0.516,0.075,0.917,0.226,1.204s0.403,0.431,0.759,0.431c0.215,0,0.399-0.033,0.554-0.1s0.282-0.168,0.384-0.305v-2.66
			c-0.098-0.148-0.224-0.264-0.378-0.346s-0.337-0.123-0.548-0.123c-0.352,0-0.605,0.162-0.762,0.486s-0.234,0.754-0.234,1.289
			V29.275z"/>
		<path fill="#FFFFFF" d="M174.063,32.434c-0.934,0-1.679-0.293-2.235-0.879s-0.835-1.32-0.835-2.203v-0.223
			c0-0.965,0.253-1.753,0.759-2.364s1.229-0.915,2.171-0.911c0.859,0,1.533,0.258,2.021,0.773s0.732,1.215,0.732,2.098v1.037h-3.621
			l-0.012,0.035c0.043,0.324,0.176,0.591,0.398,0.8s0.52,0.313,0.891,0.313c0.375,0,0.675-0.029,0.899-0.088s0.509-0.16,0.853-0.305
			l0.469,1.207c-0.277,0.203-0.636,0.372-1.075,0.507S174.566,32.434,174.063,32.434z M173.922,27.377
			c-0.285,0-0.499,0.102-0.642,0.305s-0.229,0.475-0.261,0.814l0.018,0.029h1.705v-0.152c0-0.32-0.066-0.566-0.199-0.738
			S174.203,27.377,173.922,27.377z"/>
		<path fill="#FFFFFF" d="M124.49,42.387v2.924h-1.986v-8.531h3.463c1.012,0,1.814,0.259,2.408,0.776s0.891,1.194,0.891,2.03
			c0,0.84-0.297,1.517-0.891,2.03s-1.396,0.771-2.408,0.771H124.49z M124.49,40.863h1.477c0.43,0,0.757-0.118,0.981-0.354
			s0.337-0.54,0.337-0.911c0-0.379-0.112-0.689-0.337-0.932s-0.552-0.363-0.981-0.363h-1.477V40.863z"/>
		<path fill="#FFFFFF" d="M133.854,40.717l-0.721-0.006c-0.227,0-0.412,0.038-0.557,0.114s-0.252,0.185-0.322,0.325v4.16h-1.98
			v-6.34h1.863l0.07,0.932c0.133-0.332,0.309-0.59,0.527-0.773s0.475-0.275,0.768-0.275c0.094,0,0.189,0.007,0.287,0.021
			s0.184,0.03,0.258,0.05L133.854,40.717z"/>
		<path fill="#FFFFFF" d="M134.328,42.082c0-0.953,0.27-1.729,0.809-2.329s1.291-0.899,2.256-0.899c0.969,0,1.723,0.3,2.262,0.899
			s0.809,1.376,0.809,2.329v0.123c0,0.957-0.27,1.734-0.809,2.332s-1.289,0.896-2.25,0.896c-0.973,0-1.729-0.299-2.268-0.896
			s-0.809-1.375-0.809-2.332V42.082z M136.309,42.205c0,0.531,0.083,0.948,0.249,1.251s0.448,0.454,0.847,0.454
			c0.387,0,0.664-0.152,0.832-0.457s0.252-0.721,0.252-1.248v-0.123c0-0.516-0.084-0.929-0.252-1.239s-0.449-0.466-0.844-0.466
			c-0.391,0-0.669,0.156-0.835,0.469s-0.249,0.725-0.249,1.236V42.205z"/>
		<path fill="#FFFFFF" d="M141.072,42.152c0-0.988,0.216-1.785,0.647-2.391s1.04-0.908,1.825-0.908c0.293,0,0.558,0.067,0.794,0.202
			s0.448,0.327,0.636,0.577V36.17h1.98v9.141h-1.717l-0.141-0.779c-0.195,0.293-0.423,0.517-0.683,0.671s-0.554,0.231-0.882,0.231
			c-0.781,0-1.387-0.289-1.816-0.867s-0.645-1.342-0.645-2.291V42.152z M143.053,42.275c0,0.516,0.075,0.917,0.226,1.204
			s0.403,0.431,0.759,0.431c0.207,0,0.39-0.038,0.548-0.114s0.288-0.188,0.39-0.337v-2.561c-0.102-0.168-0.23-0.297-0.387-0.387
			s-0.336-0.135-0.539-0.135c-0.352,0-0.605,0.162-0.762,0.486s-0.234,0.754-0.234,1.289V42.275z"/>
		<path fill="#FFFFFF" d="M151.883,44.561c-0.203,0.281-0.452,0.497-0.747,0.647s-0.628,0.226-0.999,0.226
			c-0.656,0-1.171-0.211-1.544-0.633s-0.56-1.076-0.56-1.963v-3.867h1.975v3.879c0,0.355,0.067,0.621,0.202,0.797
			s0.327,0.264,0.577,0.264c0.211,0,0.396-0.029,0.557-0.088s0.297-0.146,0.41-0.264v-4.588h1.98v6.34h-1.729L151.883,44.561z"/>
		<path fill="#FFFFFF" d="M157.531,43.91c0.266,0,0.463-0.072,0.592-0.217s0.193-0.357,0.193-0.639h1.811l0.012,0.035
			c0.016,0.691-0.224,1.255-0.718,1.69s-1.124,0.653-1.89,0.653c-0.961,0-1.702-0.299-2.224-0.896s-0.782-1.373-0.782-2.326v-0.135
			c0-0.949,0.26-1.724,0.779-2.323s1.256-0.899,2.209-0.899c0.805,0,1.447,0.225,1.928,0.674s0.713,1.061,0.697,1.834l-0.012,0.035
			h-1.811c0-0.301-0.066-0.546-0.199-0.735s-0.334-0.284-0.604-0.284c-0.375,0-0.638,0.154-0.788,0.463s-0.226,0.721-0.226,1.236
			v0.135c0,0.531,0.075,0.947,0.226,1.248S157.145,43.91,157.531,43.91z"/>
		<path fill="#FFFFFF" d="M163.297,37.395v1.576h1.072v1.371h-1.072v2.906c0,0.227,0.046,0.39,0.138,0.489s0.216,0.149,0.372,0.149
			c0.125,0,0.224-0.004,0.296-0.012s0.165-0.023,0.278-0.047l0.141,1.465c-0.219,0.051-0.416,0.087-0.592,0.108
			s-0.383,0.032-0.621,0.032c-0.652,0-1.146-0.174-1.482-0.521s-0.504-0.898-0.504-1.652v-2.918h-0.891v-1.371h0.891v-1.576H163.297
			z"/>
		<path fill="#FFFFFF" d="M167.375,37.5h-1.986v-1.33h1.986V37.5z M167.375,45.311h-1.986v-6.34h1.986V45.311z"/>
		<path fill="#FFFFFF" d="M168.324,42.082c0-0.953,0.27-1.729,0.809-2.329s1.291-0.899,2.256-0.899c0.969,0,1.723,0.3,2.262,0.899
			s0.809,1.376,0.809,2.329v0.123c0,0.957-0.27,1.734-0.809,2.332s-1.289,0.896-2.25,0.896c-0.973,0-1.729-0.299-2.268-0.896
			s-0.809-1.375-0.809-2.332V42.082z M170.305,42.205c0,0.531,0.083,0.948,0.249,1.251s0.448,0.454,0.847,0.454
			c0.387,0,0.664-0.152,0.832-0.457s0.252-0.721,0.252-1.248v-0.123c0-0.516-0.084-0.929-0.252-1.239s-0.449-0.466-0.844-0.466
			c-0.391,0-0.669,0.156-0.835,0.469s-0.249,0.725-0.249,1.236V42.205z"/>
		<path fill="#FFFFFF" d="M177.154,38.971l0.076,0.891c0.207-0.316,0.463-0.563,0.768-0.741s0.645-0.267,1.02-0.267
			c0.621,0,1.106,0.201,1.456,0.604s0.524,1.043,0.524,1.922v3.932h-1.98v-3.938c0-0.363-0.075-0.62-0.226-0.771
			s-0.372-0.226-0.665-0.226c-0.184,0-0.347,0.033-0.489,0.1s-0.265,0.158-0.366,0.275v4.559h-1.975v-6.34H177.154z"/>
	</g>
</g>
<g id="Layer_3">
	<polygon fill="#FFFFFF" points="41.333,26.998 97.911,81.745 98.977,228.995 45.667,290.001 2.479,197.363 3.852,95.04 	"/>
	<polygon fill="#FFFFFF" points="580.266,61 487,108.464 487,199.541 582.333,255.5 	"/>
	<g>
		<g>
			<path fill="#008FC3" d="M545.664,222.061l8.077,4.536l-2.756,4.907l-21.075-11.836l4.553-8.106
				c1.371-2.441,3.021-4.059,4.953-4.854c1.931-0.794,3.876-0.641,5.835,0.46c1.091,0.612,1.865,1.425,2.324,2.438
				c0.459,1.014,0.621,2.218,0.484,3.614c1.093-1.087,2.225-1.674,3.396-1.759c1.172-0.085,2.394,0.23,3.668,0.946l1.331,0.748
				c0.551,0.309,1.224,0.579,2.021,0.811c0.796,0.231,1.458,0.229,1.984-0.009l0.29,0.163l-2.829,5.037
				c-0.516,0.218-1.189,0.173-2.02-0.135c-0.83-0.307-1.568-0.643-2.215-1.006l-1.273-0.715c-1.004-0.564-1.92-0.729-2.749-0.497
				c-0.828,0.233-1.53,0.86-2.104,1.884L545.664,222.061z M541.9,219.947l1.813-3.228c0.553-0.984,0.751-1.863,0.595-2.637
				c-0.156-0.772-0.653-1.396-1.493-1.867c-0.858-0.481-1.701-0.603-2.528-0.362s-1.514,0.848-2.062,1.822l-1.796,3.198
				L541.9,219.947z"/>
		</g>
		<g>
			<path fill="#008FC3" d="M565.602,202.282c-0.915,2.482-2.424,4.176-4.527,5.082c-2.103,0.905-4.328,0.926-6.675,0.061
				l-0.592-0.218c-2.565-0.945-4.412-2.391-5.542-4.334c-1.13-1.944-1.228-4.165-0.295-6.664c0.842-2.285,2.188-3.823,4.037-4.616
				c1.849-0.793,3.947-0.757,6.294,0.108l2.757,1.016l-3.548,9.627l0.082,0.065c0.904,0.204,1.743,0.112,2.517-0.275
				c0.773-0.387,1.343-1.074,1.706-2.061c0.367-0.997,0.583-1.822,0.647-2.478c0.064-0.654,0.073-1.509,0.025-2.564l3.669-0.063
				c0.268,0.937,0.365,2.055,0.293,3.354C566.378,199.623,566.095,200.943,565.602,202.282z M552.021,197.701
				c-0.279,0.759-0.219,1.427,0.182,2.005s1.036,1.075,1.909,1.491l0.096-0.019l1.671-4.532l-0.405-0.149
				c-0.852-0.314-1.571-0.379-2.158-0.194S552.296,196.954,552.021,197.701z"/>
		</g>
		<g>
			<path fill="#008FC3" d="M566.762,182.597c0.161-0.735,0.08-1.325-0.242-1.77s-0.872-0.751-1.651-0.921l1.095-5.012l0.104-0.012
				c1.924,0.375,3.339,1.378,4.246,3.009s1.129,3.506,0.667,5.625c-0.581,2.66-1.855,4.531-3.825,5.614
				c-1.97,1.082-4.273,1.336-6.912,0.76l-0.373-0.082c-2.628-0.573-4.614-1.76-5.96-3.561c-1.346-1.8-1.731-4.02-1.155-6.658
				c0.486-2.228,1.496-3.87,3.03-4.929c1.533-1.059,3.366-1.333,5.498-0.822l0.09,0.054l-1.094,5.012
				c-0.833-0.182-1.551-0.146-2.156,0.107c-0.604,0.253-0.988,0.753-1.151,1.499c-0.227,1.037,0.042,1.858,0.806,2.461
				s1.858,1.06,3.286,1.371l0.373,0.082c1.471,0.32,2.667,0.364,3.591,0.129C565.95,184.319,566.528,183.667,566.762,182.597z"/>
		</g>
		<g>
			<path fill="#008FC3" d="M565.457,164.362l0.134-0.006l0.008-0.1l-9.905-3.778l0.48-5.958l19.994,8.789
				c1.279,0.659,2.314,1.458,3.104,2.399c0.79,0.94,1.109,2.359,0.956,4.257c-0.039,0.485-0.102,0.881-0.187,1.185
				s-0.237,0.78-0.455,1.429l-3.919-0.998c0.046-0.152,0.08-0.266,0.103-0.342c0.023-0.076,0.039-0.175,0.049-0.296
				c0.071-0.883-0.007-1.538-0.235-1.968c-0.228-0.429-0.595-0.764-1.101-1.005l-1.129-0.54l-18.602,4.73l0.479-5.94
				L565.457,164.362z"/>
		</g>
		<g>
			<path fill="#008FC3" d="M569.667,145.32c-0.037-0.751-0.27-1.3-0.696-1.644c-0.428-0.345-1.039-0.497-1.835-0.458l-0.254-5.124
				l0.098-0.038c1.955-0.141,3.583,0.457,4.885,1.794s2.006,3.089,2.113,5.256c0.135,2.719-0.606,4.859-2.225,6.418
				c-1.618,1.56-3.776,2.406-6.474,2.54l-0.381,0.019c-2.687,0.134-4.914-0.493-6.684-1.879s-2.722-3.428-2.855-6.125
				c-0.112-2.277,0.433-4.127,1.637-5.55s2.901-2.166,5.092-2.23l0.102,0.028l0.254,5.124c-0.852,0.042-1.535,0.265-2.053,0.667
				s-0.758,0.985-0.72,1.748c0.053,1.062,0.526,1.783,1.42,2.166c0.895,0.382,2.071,0.537,3.53,0.465l0.382-0.019
				c1.503-0.075,2.67-0.346,3.5-0.813S569.721,146.414,569.667,145.32z"/>
		</g>
		<g>
			<path fill="#008FC3" d="M571.747,128.155l0.85,5.563l-25.602,3.911l-0.85-5.563L571.747,128.155z"/>
		</g>
		<g>
			<path fill="#008FC3" d="M548.037,122.921l1.248,5.488l-3.675,0.836l-1.248-5.487L548.037,122.921z M569.615,118.011l1.248,5.488
				l-17.515,3.985l-1.249-5.488L569.615,118.011z"/>
		</g>
		<g>
			<path fill="#008FC3" d="M549.827,114.073l2.313-1.033c-1.04-0.259-1.939-0.714-2.698-1.364c-0.76-0.65-1.313-1.477-1.663-2.48
				c-0.578-1.662-0.491-3.148,0.26-4.458s2.303-2.375,4.654-3.193l10.521-3.661l1.845,5.3l-10.537,3.667
				c-0.972,0.338-1.589,0.778-1.852,1.321s-0.257,1.206,0.016,1.99c0.171,0.492,0.411,0.897,0.722,1.216
				c0.311,0.32,0.67,0.561,1.078,0.724l12.198-4.245l1.839,5.284l-16.965,5.903L549.827,114.073z"/>
		</g>
		<g>
			<path fill="#008FC3" d="M553.521,97.85c-2.478,1.305-4.759,1.819-6.844,1.542c-2.086-0.277-3.646-1.4-4.684-3.368
				c-0.444-0.842-0.636-1.686-0.574-2.531c0.062-0.845,0.338-1.691,0.829-2.539l-2.175,0.715l-2.291-4.347l15.274-8.049
				c2.124-1.12,4.213-1.288,6.264-0.505c2.052,0.783,3.728,2.408,5.028,4.875c0.434,0.823,0.774,1.744,1.024,2.763
				c0.249,1.02,0.397,2.036,0.443,3.05l-4.097,1.127c-0.069-0.89-0.2-1.703-0.395-2.438c-0.193-0.736-0.513-1.525-0.956-2.367
				c-0.537-1.018-1.221-1.652-2.054-1.902c-0.832-0.25-1.723-0.124-2.672,0.376l-0.809,0.426c0.815,0.146,1.53,0.439,2.143,0.879
				c0.614,0.44,1.122,1.042,1.524,1.805c1.032,1.958,1.105,3.855,0.222,5.691c-0.884,1.836-2.516,3.381-4.896,4.635L553.521,97.85z
				 M551.22,92.737c1.293-0.681,2.199-1.399,2.721-2.156s0.547-1.58,0.077-2.471c-0.284-0.539-0.61-0.958-0.981-1.256
				c-0.37-0.299-0.793-0.486-1.271-0.56l-6.668,3.514c-0.243,0.441-0.365,0.909-0.367,1.404c-0.002,0.496,0.137,1.007,0.415,1.536
				c0.465,0.881,1.207,1.303,2.226,1.267c1.02-0.037,2.199-0.408,3.541-1.115L551.22,92.737z"/>
		</g>
	</g>
	<g>
		<path fill="#2AAF6B" d="M75.702,251.328l-16.378,17.777l-6.423-5.917c-2.092-1.927-3.214-4.222-3.365-6.882
			c-0.152-2.661,0.754-5.058,2.719-7.189l2.947-3.199c1.973-2.141,4.289-3.242,6.949-3.305c2.661-0.063,5.037,0.871,7.129,2.799
			L75.702,251.328z M58.109,262.117l10.529-11.428l-2.003-1.845c-1.099-1.013-2.304-1.427-3.616-1.245
			c-1.312,0.184-2.538,0.895-3.679,2.131l-2.969,3.224c-1.133,1.229-1.734,2.503-1.807,3.822c-0.07,1.318,0.443,2.484,1.542,3.497
			L58.109,262.117z"/>
		<path fill="#2AAF6B" d="M55.704,230.119c1.64,2.076,2.297,4.246,1.973,6.514c-0.325,2.266-1.47,4.175-3.432,5.727l-0.496,0.39
			c-2.145,1.694-4.341,2.518-6.589,2.466c-2.247-0.051-4.193-1.125-5.839-3.225c-1.509-1.911-2.119-3.863-1.83-5.854
			c0.288-1.992,1.414-3.764,3.377-5.313l2.305-1.822l6.36,8.051l0.099-0.035c0.646-0.666,1.005-1.43,1.079-2.291
			c0.073-0.863-0.216-1.705-0.867-2.531c-0.658-0.834-1.251-1.448-1.775-1.845c-0.525-0.397-1.25-0.85-2.175-1.36l1.86-3.162
			c0.938,0.26,1.944,0.76,3.016,1.5S54.819,228.999,55.704,230.119z M44.708,239.313c0.502,0.635,1.104,0.932,1.805,0.893
			c0.702-0.04,1.459-0.324,2.27-0.852l0.034-0.091l-2.995-3.79l-0.339,0.268c-0.712,0.563-1.143,1.143-1.291,1.739
			S44.215,238.689,44.708,239.313z"/>
		<path fill="#2AAF6B" d="M42.663,218.56c-0.383-0.647-0.844-1.024-1.382-1.13s-1.151,0.043-1.837,0.448l-2.61-4.415l0.068-0.08
			c1.664-1.035,3.384-1.264,5.158-0.687c1.775,0.578,3.214,1.8,4.317,3.667c1.386,2.345,1.727,4.582,1.021,6.716
			s-2.222,3.888-4.546,5.261l-0.329,0.195c-2.314,1.369-4.578,1.852-6.789,1.45c-2.212-0.403-4.005-1.767-5.38-4.091
			c-1.159-1.963-1.538-3.854-1.136-5.674c0.403-1.82,1.56-3.268,3.468-4.345l0.103-0.022l2.611,4.416
			c-0.733,0.434-1.236,0.949-1.507,1.546s-0.211,1.226,0.177,1.882c0.541,0.915,1.296,1.332,2.266,1.254s2.083-0.488,3.341-1.232
			l0.328-0.194c1.296-0.765,2.202-1.548,2.719-2.35C43.241,220.375,43.221,219.502,42.663,218.56z"/>
		<path fill="#2AAF6B" d="M33.487,213.04c-2.494,1.037-4.818,1.177-6.974,0.418c-2.154-0.759-3.758-2.399-4.807-4.923
			c-1.054-2.535-1.09-4.834-0.106-6.895c0.982-2.063,2.72-3.612,5.213-4.65l0.322-0.135c2.504-1.039,4.831-1.18,6.98-0.42
			c2.15,0.761,3.748,2.397,4.793,4.91c1.059,2.545,1.099,4.849,0.121,6.909s-2.718,3.61-5.222,4.651L33.487,213.04z M31.654,207.725
			c1.391-0.578,2.392-1.247,3.002-2.012c0.612-0.763,0.701-1.666,0.268-2.709c-0.421-1.012-1.121-1.57-2.101-1.68
			c-0.979-0.107-2.16,0.125-3.539,0.698l-0.322,0.134c-1.349,0.562-2.339,1.23-2.968,2.007c-0.631,0.778-0.73,1.683-0.302,2.716
			c0.426,1.021,1.137,1.579,2.135,1.674c0.999,0.095,2.167-0.137,3.506-0.693L31.654,207.725z"/>
		<path fill="#2AAF6B" d="M15.771,190.736l2.282-0.688c-0.962-0.374-1.762-0.931-2.399-1.674c-0.638-0.74-1.072-1.652-1.301-2.734
			c-0.231-1.095-0.193-2.088,0.115-2.979c0.31-0.891,0.908-1.641,1.799-2.248c-1.035-0.346-1.895-0.891-2.578-1.635
			c-0.684-0.742-1.146-1.683-1.386-2.819c-0.363-1.711-0.06-3.181,0.906-4.409c0.968-1.229,2.675-2.102,5.122-2.62l10.703-2.267
			l1.166,5.506l-10.703,2.267c-1.137,0.241-1.879,0.581-2.228,1.022c-0.347,0.441-0.446,1.015-0.297,1.718
			c0.111,0.531,0.306,0.979,0.581,1.345s0.611,0.654,1.006,0.864c0.185-0.04,0.343-0.077,0.476-0.117
			c0.134-0.04,0.265-0.073,0.396-0.101l11.726-2.484l1.163,5.49l-10.703,2.266c-1.137,0.241-1.88,0.58-2.229,1.017
			c-0.35,0.436-0.447,1.017-0.293,1.741c0.104,0.498,0.296,0.93,0.571,1.297c0.275,0.365,0.61,0.654,1.006,0.863l12.604-2.668
			l1.162,5.489L16.864,195.9L15.771,190.736z"/>
		<path fill="#2AAF6B" d="M20.208,148.009c2.7-0.068,4.881,0.486,6.544,1.662c1.662,1.176,2.521,2.871,2.576,5.083
			c0.022,0.862-0.125,1.634-0.439,2.311c-0.315,0.679-0.782,1.274-1.4,1.787l8.497-0.214l0.141,5.61l-24.861,0.624l-0.132-5.244
			l1.971-0.248c-0.754-0.491-1.339-1.074-1.755-1.75c-0.415-0.676-0.634-1.467-0.657-2.375c-0.056-2.224,0.759-3.969,2.442-5.234
			c1.685-1.266,3.927-1.933,6.726-2.004L20.208,148.009z M20,153.61c-1.516,0.038-2.728,0.29-3.635,0.756s-1.349,1.186-1.324,2.159
			c0.016,0.631,0.146,1.161,0.389,1.593c0.243,0.431,0.59,0.769,1.038,1.011l7.502-0.188c0.381-0.275,0.659-0.634,0.837-1.075
			c0.177-0.442,0.257-0.983,0.241-1.626c-0.024-0.984-0.449-1.68-1.272-2.085c-0.824-0.405-1.967-0.59-3.427-0.554L20,153.61z"/>
		<path fill="#2AAF6B" d="M19.731,145.815c-2.682-0.312-4.778-1.325-6.29-3.038c-1.511-1.713-2.109-3.927-1.793-6.643
			c0.316-2.726,1.407-4.75,3.271-6.071c1.863-1.321,4.137-1.826,6.818-1.514l0.347,0.041c2.693,0.313,4.793,1.326,6.299,3.038
			s2.102,3.921,1.788,6.626c-0.319,2.737-1.407,4.767-3.266,6.088c-1.858,1.322-4.134,1.826-6.828,1.513L19.731,145.815z
			 M20.727,140.281c1.495,0.173,2.695,0.077,3.603-0.292c0.906-0.368,1.424-1.113,1.555-2.234c0.126-1.089-0.212-1.919-1.015-2.492
			c-0.802-0.572-1.945-0.945-3.43-1.117l-0.347-0.04c-1.451-0.169-2.642-0.067-3.57,0.304s-1.457,1.112-1.587,2.222
			c-0.128,1.1,0.222,1.934,1.047,2.503c0.825,0.57,1.957,0.938,3.397,1.105L20.727,140.281z"/>
		<path fill="#2AAF6B" d="M28.714,117.645c-0.428-0.112-0.875,0.032-1.339,0.432c-0.465,0.399-0.997,1.207-1.6,2.423
			c-0.924,1.921-1.938,3.287-3.04,4.097c-1.104,0.811-2.378,1.028-3.824,0.651c-1.531-0.398-2.662-1.379-3.394-2.942
			c-0.731-1.563-0.811-3.442-0.239-5.638c0.603-2.313,1.599-4.021,2.99-5.123c1.391-1.102,2.896-1.407,4.519-0.916l0.088,0.057
			l-1.372,5.27c-0.686-0.179-1.25-0.14-1.694,0.117c-0.444,0.256-0.767,0.77-0.968,1.541c-0.148,0.568-0.116,1.084,0.094,1.551
			c0.21,0.467,0.557,0.763,1.038,0.888c0.461,0.12,0.909,0,1.347-0.361c0.438-0.361,0.96-1.183,1.568-2.466
			c0.97-2.012,2.003-3.42,3.1-4.228c1.097-0.806,2.405-1.012,3.926-0.616c1.563,0.407,2.671,1.436,3.322,3.086
			c0.651,1.651,0.68,3.616,0.085,5.898c-0.616,2.367-1.703,4.083-3.262,5.146c-1.558,1.064-3.066,1.371-4.528,0.922l-0.089-0.057
			l1.281-4.916c0.83,0.193,1.489,0.099,1.978-0.283s0.847-1.012,1.075-1.89c0.189-0.728,0.191-1.317,0.005-1.766
			S29.239,117.782,28.714,117.645z"/>
		<path fill="#2AAF6B" d="M17.124,98.561l-1.968,5.272l-3.531-1.318l1.969-5.272L17.124,98.561z M37.856,106.3l-1.969,5.273
			L19.06,105.29l1.968-5.272L37.856,106.3z"/>
		<path fill="#2AAF6B" d="M21.484,87.97l4.039,1.904l1.295-2.748l3.515,1.656l-1.295,2.748l7.448,3.511
			c0.581,0.273,1.054,0.353,1.421,0.237c0.366-0.115,0.644-0.373,0.832-0.773c0.15-0.32,0.26-0.578,0.327-0.772
			s0.14-0.451,0.217-0.77l3.924,1.409c-0.134,0.622-0.28,1.171-0.438,1.647s-0.379,1.02-0.667,1.63
			c-0.788,1.672-1.83,2.729-3.128,3.17c-1.296,0.441-2.911,0.206-4.843-0.705l-7.479-3.524l-1.076,2.283l-3.514-1.656l1.075-2.283
			L19.1,93.03L21.484,87.97z"/>
		<path fill="#2AAF6B" d="M27.917,76.75l-2.813,4.875l-3.264-1.883l2.812-4.875L27.917,76.75z M47.086,87.808l-2.813,4.875
			l-15.56-8.976l2.813-4.875L47.086,87.808z"/>
		<path fill="#2AAF6B" d="M40.56,80.512c-2.181-1.593-3.506-3.507-3.978-5.743c-0.47-2.236,0.102-4.457,1.714-6.665
			c1.619-2.216,3.565-3.439,5.838-3.671c2.273-0.23,4.5,0.45,6.681,2.044l0.281,0.206c2.189,1.6,3.518,3.516,3.983,5.748
			c0.466,2.232-0.104,4.448-1.71,6.646c-1.626,2.225-3.573,3.455-5.842,3.688c-2.269,0.235-4.497-0.448-6.687-2.048L40.56,80.512z
			 M44.151,76.188c1.215,0.888,2.309,1.395,3.278,1.521c0.97,0.126,1.788-0.266,2.453-1.178c0.647-0.884,0.763-1.773,0.347-2.667
			c-0.418-0.894-1.229-1.781-2.435-2.663l-0.282-0.206c-1.179-0.862-2.265-1.36-3.256-1.496c-0.991-0.134-1.816,0.25-2.476,1.152
			c-0.653,0.894-0.761,1.792-0.323,2.694c0.438,0.903,1.241,1.781,2.412,2.637L44.151,76.188z"/>
		<path fill="#2AAF6B" d="M50.079,54.388l1.956,1.609c-0.23-1.046-0.225-2.054,0.019-3.023s0.735-1.834,1.478-2.594
			c1.23-1.259,2.6-1.844,4.106-1.756c1.508,0.088,3.152,1.002,4.934,2.743l7.968,7.785l-3.922,4.014l-7.979-7.796
			c-0.736-0.72-1.405-1.076-2.008-1.069s-1.194,0.308-1.774,0.901c-0.363,0.372-0.619,0.769-0.767,1.189
			c-0.148,0.42-0.204,0.85-0.167,1.288l9.237,9.026l-3.909,4.002L46.402,58.152L50.079,54.388z"/>
	</g>
</g>
</svg>
