<?xml version="1.0" encoding="utf-8"?>
<!-- Generator: Adobe Illustrator 16.0.0, SVG Export Plug-In . SVG Version: 6.00 Build 0)  -->
<!DOCTYPE svg PUBLIC "-//W3C//DTD SVG 1.1//EN" "http://www.w3.org/Graphics/SVG/1.1/DTD/svg11.dtd">
<svg version="1.1" id="Layer_1" xmlns="http://www.w3.org/2000/svg" xmlns:xlink="http://www.w3.org/1999/xlink" x="0px" y="0px"
	 width="288px" height="288px" viewBox="0 0 288 288" enable-background="new 0 0 288 288" xml:space="preserve">
<g>
	<path fill-rule="evenodd" clip-rule="evenodd" fill="#D8D8D8" d="M73.44,94.3c0,1.96-1.52,3.42-3.38,3.41V62.6
		c1.65,1.48,2.81,3.54,3.19,5.95c0.22,1.43,0.18,2.9,0.18,4.36C73.45,80.04,73.44,87.17,73.44,94.3z"/>
	<path fill-rule="evenodd" clip-rule="evenodd" fill="#0B6B37" d="M70.06,62.6v35.11c-0.18,0-0.37-0.02-0.56-0.05
		c-1.52-0.25-2.6-1.57-2.61-3.25c-0.02-1.94-0.01-3.87-0.01-5.81V72.35h-2.16v0.78c0,20.01-0.02,40.03,0.02,60.04
		c0.01,2.08-1.76,3.87-3.61,4.24c-2,0.4-4.1-0.63-4.87-2.5c-0.19-0.46-0.27-1-0.27-1.5c-0.02-11.45-0.01-22.89-0.01-34.34v-1.12
		h-2.17v35.13c0,2.14-1.13,3.73-3.01,4.26c-2.79,0.8-5.47-1.34-5.47-4.41c-0.02-5.63-0.01-11.27-0.01-16.9V72.32H44v22.41
		c0,1.6-1,2.95-2.47,3.36c-1.82,0.51-3.8-0.9-4.05-2.91c-0.03-0.24-0.04-0.49-0.04-0.74c0-8.27-0.01-16.53,0.01-24.79
		c0-4.57,3.44-8.76,7.82-9.54c0.67-0.12,1.37-0.09,2.06-0.09h15.88C65.86,60.03,68.26,60.97,70.06,62.6z"/>
	<path fill-rule="evenodd" clip-rule="evenodd" fill="#0B6B37" d="M45.344,49.412c-0.015-4.573,3.867-8.465,8.471-8.494
		c4.722-0.029,8.702,3.865,8.709,8.519c0.007,4.685-4.025,8.659-8.801,8.677C49.279,58.129,45.359,54.058,45.344,49.412z"/>
</g>
<g>
	<path fill-rule="evenodd" clip-rule="evenodd" fill="#D8D8D8" d="M89.963,72.318c-0.467,0-0.847,0-1.327,0c0,0.253,0,0.493,0,0.732
		c0,7.228,0.001,14.456,0,21.685c0,1.6-0.991,2.944-2.466,3.357c-1.824,0.511-3.799-0.903-4.051-2.907
		c-0.031-0.247-0.035-0.499-0.035-0.747c-0.002-8.263-0.01-16.526,0.001-24.789c0.006-4.569,3.441-8.758,7.824-9.537
		c0.672-0.12,1.375-0.089,2.063-0.09c5.291-0.005,10.582-0.007,15.873,0.001c5.092,0.008,9.247,3.491,10.04,8.528
		c0.225,1.426,0.181,2.902,0.184,4.355c0.016,7.13,0.009,14.262,0.007,21.392c-0.001,2.153-1.829,3.707-3.939,3.361
		c-1.519-0.248-2.596-1.57-2.61-3.25c-0.016-1.937-0.005-3.873-0.006-5.808c0-5.215,0-10.429,0-15.643c0-0.188,0-0.377,0-0.613
		c-0.725,0-1.401,0-2.165,0c0,0.26,0,0.52,0,0.78c0,20.016-0.018,40.033,0.027,60.048c0.005,2.078-1.762,3.871-3.608,4.235
		c-2.007,0.397-4.102-0.632-4.873-2.495c-0.191-0.463-0.272-1.003-0.273-1.508c-0.015-11.445-0.011-22.89-0.011-34.335
		c0-0.36,0-0.721,0-1.121c-0.735,0-1.413,0-2.17,0c0,0.329,0,0.647,0,0.967c0,11.388,0.001,22.776-0.001,34.164
		c0,2.142-1.127,3.729-3.008,4.263c-2.791,0.793-5.464-1.349-5.471-4.409c-0.013-5.637-0.004-11.273-0.004-16.909
		c0-14.342,0-28.683,0-43.023C89.963,72.794,89.963,72.587,89.963,72.318z"/>
	<path fill-rule="evenodd" clip-rule="evenodd" fill="#D8D8D8" d="M89.984,49.412c-0.015-4.573,3.867-8.465,8.471-8.494
		c4.722-0.029,8.702,3.865,8.709,8.519c0.007,4.685-4.025,8.659-8.801,8.677C93.919,58.129,90,54.058,89.984,49.412z"/>
</g>
<g>
	<path fill-rule="evenodd" clip-rule="evenodd" fill="#D8D8D8" d="M133.162,72.318c-0.467,0-0.847,0-1.326,0
		c0,0.253,0,0.493,0,0.732c0,7.228,0.001,14.456,0,21.685c0,1.6-0.991,2.944-2.467,3.357c-1.824,0.511-3.798-0.903-4.05-2.907
		c-0.031-0.247-0.035-0.499-0.035-0.747c-0.002-8.263-0.01-16.526,0.001-24.789c0.006-4.569,3.441-8.758,7.824-9.537
		c0.672-0.12,1.374-0.089,2.063-0.09c5.291-0.005,10.582-0.007,15.873,0.001c5.092,0.008,9.246,3.491,10.04,8.528
		c0.226,1.426,0.181,2.902,0.185,4.355c0.016,7.13,0.009,14.262,0.006,21.392c0,2.153-1.828,3.707-3.938,3.361
		c-1.519-0.248-2.597-1.57-2.61-3.25c-0.016-1.937-0.005-3.873-0.006-5.808c0-5.215,0-10.429,0-15.643c0-0.188,0-0.377,0-0.613
		c-0.725,0-1.402,0-2.166,0c0,0.26,0,0.52,0,0.78c0,20.016-0.018,40.033,0.027,60.048c0.005,2.078-1.762,3.871-3.607,4.235
		c-2.008,0.397-4.102-0.632-4.873-2.495c-0.191-0.463-0.273-1.003-0.273-1.508c-0.015-11.445-0.012-22.89-0.011-34.335
		c0-0.36,0-0.721,0-1.121c-0.735,0-1.413,0-2.17,0c0,0.329,0,0.647,0,0.967c0,11.388,0.001,22.776-0.001,34.164
		c-0.001,2.142-1.127,3.729-3.009,4.263c-2.79,0.793-5.464-1.349-5.472-4.409c-0.012-5.637-0.004-11.273-0.004-16.909
		c0-14.342,0-28.683,0-43.023C133.162,72.794,133.162,72.587,133.162,72.318z"/>
	<path fill-rule="evenodd" clip-rule="evenodd" fill="#D8D8D8" d="M133.184,49.412c-0.016-4.573,3.867-8.465,8.471-8.494
		c4.723-0.029,8.703,3.865,8.709,8.519c0.008,4.685-4.025,8.659-8.801,8.677C137.119,58.129,133.199,54.058,133.184,49.412z"/>
</g>
<g>
	<path fill-rule="evenodd" clip-rule="evenodd" fill="#D8D8D8" d="M177.803,72.318c-0.467,0-0.848,0-1.326,0
		c0,0.253,0,0.493,0,0.732c0,7.228,0,14.456,0,21.685c0,1.6-0.992,2.944-2.467,3.357c-1.824,0.511-3.799-0.903-4.051-2.907
		c-0.031-0.247-0.035-0.499-0.035-0.747c-0.002-8.263-0.01-16.526,0.002-24.789c0.006-4.569,3.44-8.758,7.823-9.537
		c0.672-0.12,1.374-0.089,2.063-0.09c5.29-0.005,10.582-0.007,15.873,0.001c5.092,0.008,9.246,3.491,10.039,8.528
		c0.226,1.426,0.182,2.902,0.185,4.355c0.017,7.13,0.009,14.262,0.007,21.392c-0.001,2.153-1.829,3.707-3.939,3.361
		c-1.519-0.248-2.596-1.57-2.609-3.25c-0.017-1.937-0.006-3.873-0.006-5.808c0-5.215,0-10.429-0.001-15.643c0-0.188,0-0.377,0-0.613
		c-0.725,0-1.401,0-2.165,0c0,0.26,0,0.52,0,0.78c0,20.016-0.018,40.033,0.027,60.048c0.004,2.078-1.762,3.871-3.608,4.235
		c-2.007,0.397-4.102-0.632-4.873-2.495c-0.191-0.463-0.272-1.003-0.272-1.508c-0.016-11.445-0.012-22.89-0.012-34.335
		c0-0.36,0-0.721,0-1.121c-0.734,0-1.412,0-2.17,0c0,0.329,0,0.647,0,0.967c0,11.388,0.002,22.776-0.001,34.164
		c-0.001,2.142-1.127,3.729-3.009,4.263c-2.79,0.793-5.464-1.349-5.471-4.409c-0.013-5.637-0.004-11.273-0.004-16.909
		c0-14.342,0-28.683,0-43.023C177.803,72.794,177.803,72.587,177.803,72.318z"/>
	<path fill-rule="evenodd" clip-rule="evenodd" fill="#D8D8D8" d="M177.824,49.412c-0.016-4.573,3.866-8.465,8.471-8.494
		c4.722-0.029,8.702,3.865,8.709,8.519c0.007,4.685-4.025,8.659-8.801,8.677C181.76,58.129,177.84,54.058,177.824,49.412z"/>
</g>
<g>
	<path fill-rule="evenodd" clip-rule="evenodd" fill="#D8D8D8" d="M222.443,72.318c-0.467,0-0.848,0-1.326,0
		c0,0.253,0,0.493,0,0.732c0,7.228,0,14.456,0,21.685c0,1.6-0.992,2.944-2.467,3.357c-1.824,0.511-3.799-0.903-4.051-2.907
		c-0.031-0.247-0.035-0.499-0.035-0.747c-0.002-8.263-0.01-16.526,0.002-24.789c0.006-4.569,3.44-8.758,7.823-9.537
		c0.672-0.12,1.374-0.089,2.063-0.09c5.29-0.005,10.582-0.007,15.873,0.001c5.092,0.008,9.246,3.491,10.039,8.528
		c0.226,1.426,0.182,2.902,0.185,4.355c0.017,7.13,0.009,14.262,0.007,21.392c-0.001,2.153-1.829,3.707-3.939,3.361
		c-1.519-0.248-2.596-1.57-2.609-3.25c-0.017-1.937-0.006-3.873-0.006-5.808c0-5.215,0-10.429-0.001-15.643c0-0.188,0-0.377,0-0.613
		c-0.725,0-1.401,0-2.165,0c0,0.26,0,0.52,0,0.78c0,20.016-0.018,40.033,0.027,60.048c0.004,2.078-1.762,3.871-3.608,4.235
		c-2.007,0.397-4.102-0.632-4.873-2.495c-0.191-0.463-0.272-1.003-0.272-1.508c-0.016-11.445-0.012-22.89-0.012-34.335
		c0-0.36,0-0.721,0-1.121c-0.734,0-1.412,0-2.17,0c0,0.329,0,0.647,0,0.967c0,11.388,0.002,22.776-0.001,34.164
		c-0.001,2.142-1.127,3.729-3.009,4.263c-2.79,0.793-5.464-1.349-5.471-4.409c-0.013-5.637-0.004-11.273-0.004-16.909
		c0-14.342,0-28.683,0-43.023C222.443,72.794,222.443,72.587,222.443,72.318z"/>
	<path fill-rule="evenodd" clip-rule="evenodd" fill="#D8D8D8" d="M222.465,49.412c-0.016-4.573,3.866-8.465,8.471-8.494
		c4.722-0.029,8.702,3.865,8.709,8.519c0.007,4.685-4.025,8.659-8.801,8.677C226.4,58.129,222.48,54.058,222.465,49.412z"/>
</g>
<g>
	<path fill-rule="evenodd" clip-rule="evenodd" fill="#D8D8D8" d="M45.323,181.89c-0.467,0-0.847,0-1.327,0c0,0.253,0,0.492,0,0.731
		c0,7.228,0.001,14.456,0,21.685c0,1.6-0.991,2.944-2.466,3.357c-1.824,0.511-3.799-0.903-4.051-2.907
		c-0.031-0.247-0.035-0.499-0.035-0.747c-0.002-8.264-0.01-16.526,0.001-24.789c0.006-4.568,3.441-8.758,7.824-9.537
		c0.672-0.119,1.375-0.088,2.063-0.09c5.291-0.004,10.582-0.006,15.873,0.002c5.092,0.008,9.247,3.49,10.04,8.527
		c0.225,1.426,0.181,2.902,0.184,4.355c0.016,7.131,0.009,14.262,0.007,21.392c-0.001,2.153-1.829,3.707-3.939,3.361
		c-1.519-0.248-2.596-1.57-2.61-3.25c-0.016-1.937-0.005-3.873-0.006-5.808c0-5.215,0-10.43,0-15.644c0-0.188,0-0.377,0-0.612
		c-0.725,0-1.401,0-2.165,0c0,0.26,0,0.52,0,0.779c0,20.017-0.018,40.033,0.027,60.049c0.005,2.078-1.762,3.871-3.608,4.235
		c-2.007,0.397-4.102-0.632-4.873-2.495c-0.191-0.463-0.272-1.003-0.273-1.508c-0.015-11.445-0.011-22.89-0.011-34.335
		c0-0.36,0-0.721,0-1.121c-0.735,0-1.413,0-2.17,0c0,0.329,0,0.647,0,0.967c0,11.388,0.001,22.776-0.001,34.164
		c0,2.142-1.127,3.729-3.008,4.263c-2.791,0.793-5.464-1.349-5.471-4.409c-0.013-5.637-0.004-11.273-0.004-16.909
		c0-14.342,0-28.683,0-43.023C45.323,182.366,45.323,182.159,45.323,181.89z"/>
	<path fill-rule="evenodd" clip-rule="evenodd" fill="#D8D8D8" d="M45.344,158.983c-0.015-4.573,3.867-8.465,8.471-8.494
		c4.722-0.028,8.702,3.865,8.709,8.52c0.007,4.685-4.025,8.658-8.801,8.676C49.279,167.7,45.359,163.63,45.344,158.983z"/>
</g>
<g>
	<path fill-rule="evenodd" clip-rule="evenodd" fill="#D8D8D8" d="M89.963,181.89c-0.467,0-0.847,0-1.327,0c0,0.253,0,0.492,0,0.731
		c0,7.228,0.001,14.456,0,21.685c0,1.6-0.991,2.944-2.466,3.357c-1.824,0.511-3.799-0.903-4.051-2.907
		c-0.031-0.247-0.035-0.499-0.035-0.747c-0.002-8.264-0.01-16.526,0.001-24.789c0.006-4.568,3.441-8.758,7.824-9.537
		c0.672-0.119,1.375-0.088,2.063-0.09c5.291-0.004,10.582-0.006,15.873,0.002c5.092,0.008,9.247,3.49,10.04,8.527
		c0.225,1.426,0.181,2.902,0.184,4.355c0.016,7.131,0.009,14.262,0.007,21.392c-0.001,2.153-1.829,3.707-3.939,3.361
		c-1.519-0.248-2.596-1.57-2.61-3.25c-0.016-1.937-0.005-3.873-0.006-5.808c0-5.215,0-10.43,0-15.644c0-0.188,0-0.377,0-0.612
		c-0.725,0-1.401,0-2.165,0c0,0.26,0,0.52,0,0.779c0,20.017-0.018,40.033,0.027,60.049c0.005,2.078-1.762,3.871-3.608,4.235
		c-2.007,0.397-4.102-0.632-4.873-2.495c-0.191-0.463-0.272-1.003-0.273-1.508c-0.015-11.445-0.011-22.89-0.011-34.335
		c0-0.36,0-0.721,0-1.121c-0.735,0-1.413,0-2.17,0c0,0.329,0,0.647,0,0.967c0,11.388,0.001,22.776-0.001,34.164
		c0,2.142-1.127,3.729-3.008,4.263c-2.791,0.793-5.464-1.349-5.471-4.409c-0.013-5.637-0.004-11.273-0.004-16.909
		c0-14.342,0-28.683,0-43.023C89.963,182.366,89.963,182.159,89.963,181.89z"/>
	<path fill-rule="evenodd" clip-rule="evenodd" fill="#D8D8D8" d="M89.984,158.983c-0.015-4.573,3.867-8.465,8.471-8.494
		c4.722-0.028,8.702,3.865,8.709,8.52c0.007,4.685-4.025,8.658-8.801,8.676C93.919,167.7,90,163.63,89.984,158.983z"/>
</g>
<g>
	<path fill-rule="evenodd" clip-rule="evenodd" fill="#D8D8D8" d="M133.162,181.89c-0.467,0-0.847,0-1.326,0
		c0,0.253,0,0.492,0,0.731c0,7.228,0.001,14.456,0,21.685c0,1.6-0.991,2.944-2.467,3.357c-1.824,0.511-3.798-0.903-4.05-2.907
		c-0.031-0.247-0.035-0.499-0.035-0.747c-0.002-8.264-0.01-16.526,0.001-24.789c0.006-4.568,3.441-8.758,7.824-9.537
		c0.672-0.119,1.374-0.088,2.063-0.09c5.291-0.004,10.582-0.006,15.873,0.002c5.092,0.008,9.246,3.49,10.04,8.527
		c0.226,1.426,0.181,2.902,0.185,4.355c0.016,7.131,0.009,14.262,0.006,21.392c0,2.153-1.828,3.707-3.938,3.361
		c-1.519-0.248-2.597-1.57-2.61-3.25c-0.016-1.937-0.005-3.873-0.006-5.808c0-5.215,0-10.43,0-15.644c0-0.188,0-0.377,0-0.612
		c-0.725,0-1.402,0-2.166,0c0,0.26,0,0.52,0,0.779c0,20.017-0.018,40.033,0.027,60.049c0.005,2.078-1.762,3.871-3.607,4.235
		c-2.008,0.397-4.102-0.632-4.873-2.495c-0.191-0.463-0.273-1.003-0.273-1.508c-0.015-11.445-0.012-22.89-0.011-34.335
		c0-0.36,0-0.721,0-1.121c-0.735,0-1.413,0-2.17,0c0,0.329,0,0.647,0,0.967c0,11.388,0.001,22.776-0.001,34.164
		c-0.001,2.142-1.127,3.729-3.009,4.263c-2.79,0.793-5.464-1.349-5.472-4.409c-0.012-5.637-0.004-11.273-0.004-16.909
		c0-14.342,0-28.683,0-43.023C133.162,182.366,133.162,182.159,133.162,181.89z"/>
	<path fill-rule="evenodd" clip-rule="evenodd" fill="#D8D8D8" d="M133.184,158.983c-0.016-4.573,3.867-8.465,8.471-8.494
		c4.723-0.028,8.703,3.865,8.709,8.52c0.008,4.685-4.025,8.658-8.801,8.676C137.119,167.7,133.199,163.63,133.184,158.983z"/>
</g>
<g>
	<path fill-rule="evenodd" clip-rule="evenodd" fill="#D8D8D8" d="M177.803,181.89c-0.467,0-0.848,0-1.326,0
		c0,0.253,0,0.492,0,0.731c0,7.228,0,14.456,0,21.685c0,1.6-0.992,2.944-2.467,3.357c-1.824,0.511-3.799-0.903-4.051-2.907
		c-0.031-0.247-0.035-0.499-0.035-0.747c-0.002-8.264-0.01-16.526,0.002-24.789c0.006-4.568,3.44-8.758,7.823-9.537
		c0.672-0.119,1.374-0.088,2.063-0.09c5.29-0.004,10.582-0.006,15.873,0.002c5.092,0.008,9.246,3.49,10.039,8.527
		c0.226,1.426,0.182,2.902,0.185,4.355c0.017,7.131,0.009,14.262,0.007,21.392c-0.001,2.153-1.829,3.707-3.939,3.361
		c-1.519-0.248-2.596-1.57-2.609-3.25c-0.017-1.937-0.006-3.873-0.006-5.808c0-5.215,0-10.43-0.001-15.644c0-0.188,0-0.377,0-0.612
		c-0.725,0-1.401,0-2.165,0c0,0.26,0,0.52,0,0.779c0,20.017-0.018,40.033,0.027,60.049c0.004,2.078-1.762,3.871-3.608,4.235
		c-2.007,0.397-4.102-0.632-4.873-2.495c-0.191-0.463-0.272-1.003-0.272-1.508c-0.016-11.445-0.012-22.89-0.012-34.335
		c0-0.36,0-0.721,0-1.121c-0.734,0-1.412,0-2.17,0c0,0.329,0,0.647,0,0.967c0,11.388,0.002,22.776-0.001,34.164
		c-0.001,2.142-1.127,3.729-3.009,4.263c-2.79,0.793-5.464-1.349-5.471-4.409c-0.013-5.637-0.004-11.273-0.004-16.909
		c0-14.342,0-28.683,0-43.023C177.803,182.366,177.803,182.159,177.803,181.89z"/>
	<path fill-rule="evenodd" clip-rule="evenodd" fill="#D8D8D8" d="M177.824,158.983c-0.016-4.573,3.866-8.465,8.471-8.494
		c4.722-0.028,8.702,3.865,8.709,8.52c0.007,4.685-4.025,8.658-8.801,8.676C181.76,167.7,177.84,163.63,177.824,158.983z"/>
</g>
<g>
	<path fill-rule="evenodd" clip-rule="evenodd" fill="#D8D8D8" d="M222.443,181.89c-0.467,0-0.848,0-1.326,0
		c0,0.253,0,0.492,0,0.731c0,7.228,0,14.456,0,21.685c0,1.6-0.992,2.944-2.467,3.357c-1.824,0.511-3.799-0.903-4.051-2.907
		c-0.031-0.247-0.035-0.499-0.035-0.747c-0.002-8.264-0.01-16.526,0.002-24.789c0.006-4.568,3.44-8.758,7.823-9.537
		c0.672-0.119,1.374-0.088,2.063-0.09c5.29-0.004,10.582-0.006,15.873,0.002c5.092,0.008,9.246,3.49,10.039,8.527
		c0.226,1.426,0.182,2.902,0.185,4.355c0.017,7.131,0.009,14.262,0.007,21.392c-0.001,2.153-1.829,3.707-3.939,3.361
		c-1.519-0.248-2.596-1.57-2.609-3.25c-0.017-1.937-0.006-3.873-0.006-5.808c0-5.215,0-10.43-0.001-15.644c0-0.188,0-0.377,0-0.612
		c-0.725,0-1.401,0-2.165,0c0,0.26,0,0.52,0,0.779c0,20.017-0.018,40.033,0.027,60.049c0.004,2.078-1.762,3.871-3.608,4.235
		c-2.007,0.397-4.102-0.632-4.873-2.495c-0.191-0.463-0.272-1.003-0.272-1.508c-0.016-11.445-0.012-22.89-0.012-34.335
		c0-0.36,0-0.721,0-1.121c-0.734,0-1.412,0-2.17,0c0,0.329,0,0.647,0,0.967c0,11.388,0.002,22.776-0.001,34.164
		c-0.001,2.142-1.127,3.729-3.009,4.263c-2.79,0.793-5.464-1.349-5.471-4.409c-0.013-5.637-0.004-11.273-0.004-16.909
		c0-14.342,0-28.683,0-43.023C222.443,182.366,222.443,182.159,222.443,181.89z"/>
	<path fill-rule="evenodd" clip-rule="evenodd" fill="#D8D8D8" d="M222.465,158.983c-0.016-4.573,3.866-8.465,8.471-8.494
		c4.722-0.028,8.702,3.865,8.709,8.52c0.007,4.685-4.025,8.658-8.801,8.676C226.4,167.7,222.48,163.63,222.465,158.983z"/>
</g>
</svg>
