<?xml version="1.0" encoding="utf-8"?>
<!-- Generator: Adobe Illustrator 16.0.0, SVG Export Plug-In . SVG Version: 6.00 Build 0)  -->
<!DOCTYPE svg PUBLIC "-//W3C//DTD SVG 1.1//EN" "http://www.w3.org/Graphics/SVG/1.1/DTD/svg11.dtd">
<svg version="1.1" id="Layer_1" xmlns="http://www.w3.org/2000/svg" xmlns:xlink="http://www.w3.org/1999/xlink" x="0px" y="0px"
	 width="1004.069px" height="224.354px" viewBox="0 0 1004.069 224.354" enable-background="new 0 0 1004.069 224.354"
	 xml:space="preserve">
<g>
	<g>
		<path fill="none" stroke="#010101" stroke-miterlimit="10" d="M969.3,30.03c-0.108-0.784-0.846-1.426-1.638-1.426H957.18
			c-0.792,0-1.54,0.64-1.661,1.423l-1.633,10.518c-0.121,0.783,0.428,1.423,1.22,1.423h14.4c0.792,0,1.352-0.642,1.243-1.426
			L969.3,30.03z"/>
	</g>
	<g>
		<path fill="#568FCB" d="M842.936,152.97v71.256h160.634V152.97h-7.453c-2.051,5.682-7.475,9.75-13.862,9.75
			s-11.812-4.068-13.862-9.75h-1.775c-2.051,5.682-7.475,9.75-13.862,9.75c-6.389,0-11.813-4.068-13.863-9.75h-1.775
			c-2.051,5.682-7.475,9.75-13.862,9.75s-11.812-4.068-13.862-9.75h-1.775c-2.051,5.682-7.475,9.75-13.863,9.75
			c-6.388,0-11.812-4.068-13.862-9.75h-1.775c-2.05,5.682-7.474,9.75-13.862,9.75s-11.813-4.068-13.863-9.75H842.936z"/>
	</g>
	<g>
		<path fill="#010101" d="M1002.569,134.777v88.448H843.936v-88.448H1002.569 M1003.569,133.777H842.936v90.448h160.634V133.777
			L1003.569,133.777z"/>
	</g>
	<g>
		<path fill="none" stroke="#010101" stroke-linejoin="round" stroke-miterlimit="10" d="M979.223,99.34c-0.99,0-1.8,0.81-1.8,1.8
			v3.54c0,0.99,0.81,1.8,1.8,1.8h2.62c0.99,0,1.8,0.81,1.8,1.8v10.45c0,0.99-0.81,1.8-1.8,1.8h-16.21c-0.99,0-1.8-0.81-1.8-1.8
			v-10.45c0-0.99,0.81-1.8,1.8-1.8h2.62c0.99,0,1.8-0.81,1.8-1.8v-3.54c0-0.99-0.621-1.8-1.38-1.8s-1.38-0.81-1.38-1.8v-5.391
			c0-0.99,0.81-1.8,1.8-1.8h29.341c0.99,0,1.461,0.736,1.047,1.635l-2.635,5.721c-0.414,0.899-1.563,1.635-2.553,1.635H979.223z"/>
	</g>
	<g>
		<path fill="none" stroke="#010101" stroke-linejoin="round" stroke-miterlimit="10" d="M881.002,106.479c0.99,0,1.8,0.81,1.8,1.8
			v10.45c0,0.99-0.81,1.8-1.8,1.8h-16.22c-0.99,0-1.8-0.81-1.8-1.8v-10.45c0-0.99,0.81-1.8,1.8-1.8h2.63c0.99,0,1.8-0.81,1.8-1.8
			v-3.54c0-0.99-0.81-1.8-1.8-1.8h-15.3c-0.99,0-2.123-0.743-2.518-1.65L847.12,92c-0.395-0.908,0.092-1.65,1.082-1.65h29.11
			c0.99,0,1.8,0.81,1.8,1.8v5.391c0,0.99-0.569,1.8-1.265,1.8s-1.265,0.81-1.265,1.8v3.54c0,0.99,0.81,1.8,1.8,1.8H881.002z"/>
	</g>
	<path fill="none" stroke="#010101" stroke-miterlimit="10" d="M1003.569,120.529v7.19H842.936v-7.19h74.327v-94
		c0-3.229,0.46-6.449,1.61-9.22c3.92-9.899,13.37-16.81,24.42-16.81c14.29,0,26.04,11.75,26.04,26.029h-13.36
		c0-7.369-5.76-13.129-13.14-13.129c-7.37,0-13.13,5.989-13.13,13.129v94H1003.569z"/>
</g>
<path fill="#FFFFFF" stroke="#262B54" stroke-miterlimit="10" d="M928.803,212.173c2.812-7.844-11.32-16.809-0.686-45.482
	c7.914-21.33,32.191-51.485,34.753-58.628c2.559-7.135,2.537-9.801,2.537-9.801l-30.432-10.916c0,0-1.71,2.044-4.27,9.179
	c-2.562,7.146-2.985,45.855-10.431,67.354c-10.012,28.896-26.622,26.836-29.437,34.68c0,0-3.35,6.502-1.192,7.274
	c3.333,1.198,5.603-5.251,10.543-3.477c4.826,1.729,1.459,7.784,7.184,9.835c5.767,2.067,6.91-4.825,11.932-3.024
	c4.629,1.658,2.738,8.287,5.797,9.383C926.946,219.212,928.803,212.173,928.803,212.173z M891.894,201.588
	c-0.853-0.306-1.08-0.968-0.858-1.586c0.405-1.128,1.812-2.411,3.434-1.829c1.129,0.405,1.152,1.399,0.931,2.018
	C894.937,201.484,893.262,202.079,891.894,201.588z M909.009,207.694c-2.22-0.795-3.711-2.303-3.329-3.364
	c0.381-1.063,2.489-1.279,4.71-0.484c2.221,0.798,3.712,2.305,3.331,3.366C913.339,208.275,911.23,208.491,909.009,207.694z
	 M926.124,213.832c-1.367-0.492-2.276-2.021-1.808-3.313c0.223-0.617,0.877-1.367,2.005-0.959c1.619,0.586,1.884,2.47,1.476,3.598
	C927.573,213.776,926.977,214.142,926.124,213.832z"/>
<path fill="#242B54" stroke="#262B54" stroke-miterlimit="10" d="M60.59,90.331c0,0.22,0,0.439-0.01,0.67H29.44
	c-0.01-0.23-0.01-0.45-0.01-0.67c0-3.95-0.73-3.33,15.58-3.33S60.59,86.381,60.59,90.331z"/>
<path fill="none" stroke="#262B54" stroke-miterlimit="10" d="M60.59,190.391c0,0.92-2.16,0.61-15.58,0.61s-15.58,0.31-15.58-0.61
	c0-11,6.52-31.239,6.52-53.579c0-21.83-6.23-36.07-6.51-45.811h31.14c-0.28,9.74-6.51,23.98-6.51,45.811
	C54.07,159.151,60.59,179.391,60.59,190.391z"/>
<path fill="none" stroke="#262B54" stroke-miterlimit="10" d="M112.09,208.831c0-8.33-16.33-12-16-42.58
	c0.25-22.75,12.92-59.33,12.92-66.92c0-7.58-0.92-10.08-0.92-10.08H75.76c0,0-0.92,2.5-0.92,10.08c0,7.59,12.67,44.17,12.92,66.92
	c0.33,30.58-16,34.25-16,42.58c0,0-0.958,7.253,1.333,7.253c3.542,0,3.5-6.833,8.75-6.833c5.125,0,4,6.833,10.082,6.833
	c6.126,0,4.876-6.875,10.21-6.875c4.917,0,5.375,6.875,8.625,6.875C112.718,216.084,112.09,208.831,112.09,208.831z M73.775,211.329
	c-0.906,0-1.344-0.547-1.344-1.203c0-1.199,0.891-2.881,2.613-2.881c1.2,0,1.559,0.928,1.559,1.584
	C76.604,210.204,75.229,211.329,73.775,211.329z M91.947,211.299c-2.359,0-4.271-0.915-4.271-2.044s1.912-2.044,4.271-2.044
	s4.271,0.915,4.271,2.044S94.306,211.299,91.947,211.299z M110.129,211.299c-1.453-0.004-2.825-1.134-2.82-2.509
	c0.002-0.656,0.364-1.583,1.563-1.579c1.722,0.005,2.608,1.689,2.604,2.889C111.475,210.756,111.035,211.302,110.129,211.299z"/>
<path fill="#262B54" stroke="#242B54" stroke-linejoin="round" stroke-miterlimit="10" d="M113.697,208.881l-43.906-0.048
	c0,6.27,0,3.899,0,6.762c0,2.406,1.531,2.406,3.283,2.406c2.123,0,35.748,0,37.936,0s2.688-0.98,2.688-2.303
	S113.697,208.881,113.697,208.881z"/>
<path fill="#2D2E2D" d="M45.68,222.251c0,1.09-0.89,1.98-1.98,1.98h-1c-1.1,0-1.98-0.891-1.98-1.98H45.68z"/>
<path fill="#2D2E2D" d="M111.68,222.221v0.03c0,1.09-0.89,1.98-1.979,1.98h-1c-1.101,0-1.98-0.891-1.98-1.98c1.78,0,2.79,0,2.79,0
	C110.29,222.251,111.01,222.241,111.68,222.221z"/>
<path fill="#FFFFFF" stroke="#262B54" stroke-miterlimit="10" d="M60.112,192.294c-0.517,1.56-1.603,4.92-1.603,7.787
	c0,7.34,2.17,8.75,4.5,8.75c7.55,0,15.1,0.01,22.13,0.02c0.01,3.74,3.05,6.761,6.79,6.761c3.72,0,6.75-3,6.78-6.73
	c12.609,0.03,14.802,0.069,19.675,0.069c1.766,0,1.667,1.087,1.669,1.598c0.034,9.239,0.146,11.408-8.374,11.673
	c-0.67,0.021-1.39,0.03-2.17,0.03c0,0-1.01,0-2.79,0H32.001c-5.813,0-5.912-1.438-5.912-11.708c0-2.313,5.5-2.712,5.5-8.622
	c0-3.159-1.221-7.873-1.875-9.928c-0.083-0.26-0.371-0.942,0.545-0.942c5.971,0,22.813,0,28.531,0
	C60.244,191.051,60.494,191.142,60.112,192.294z"/>
<path fill="#242B54" stroke="#262B54" stroke-miterlimit="10" d="M199.59,90.331c0,0.22,0,0.439-0.01,0.67h-31.14
	c-0.01-0.23-0.01-0.45-0.01-0.67c0-3.95-0.73-3.33,15.58-3.33S199.59,86.381,199.59,90.331z"/>
<path fill="none" stroke="#262B54" stroke-miterlimit="10" d="M199.59,190.391c0,0.92-2.16,0.61-15.58,0.61s-15.58,0.31-15.58-0.61
	c0-11,6.52-31.239,6.52-53.579c0-21.83-6.23-36.07-6.51-45.811h31.14c-0.28,9.74-6.51,23.98-6.51,45.811
	C193.07,159.151,199.59,179.391,199.59,190.391z"/>
<path fill="none" stroke="#262B54" stroke-miterlimit="10" d="M231.135,215.803c8.292,0.818,13.547-15.071,43.947-11.736
	c22.615,2.484,57.773,18.689,65.324,19.436c7.543,0.745,10.123,0.075,10.123,0.075l3.18-32.174c0,0-2.398-1.161-9.941-1.906
	c-7.555-0.745-45.203,8.267-67.867,6.279c-30.463-2.677-32.51-19.289-40.803-20.108c0,0-7.121-1.666-7.346,0.614
	c-0.351,3.524,6.457,4.155,5.938,9.38c-0.503,5.102-7.194,3.31-7.79,9.36c-0.602,6.097,6.362,5.528,5.838,10.837
	c-0.482,4.894-7.371,4.674-7.689,7.907C223.855,215.717,231.135,215.803,231.135,215.803z M232.416,177.429
	c0.089-0.902,0.676-1.283,1.33-1.219c1.192,0.118,2.779,1.169,2.609,2.884c-0.118,1.193-1.077,1.459-1.729,1.395
	C233.258,180.354,232.273,178.875,232.416,177.429z M230.66,195.515c0.23-2.347,1.33-4.159,2.453-4.048
	c1.123,0.11,1.846,2.103,1.615,4.45c-0.233,2.349-1.331,4.161-2.453,4.051C231.15,199.855,230.428,197.863,230.66,195.515z
	 M228.873,213.609c0.146-1.445,1.406-2.699,2.773-2.56c0.652,0.065,1.539,0.518,1.418,1.711c-0.175,1.713-1.938,2.429-3.131,2.307
	C229.28,215.001,228.781,214.512,228.873,213.609z"/>
<path fill="#242B54" stroke="#242B54" stroke-linejoin="round" stroke-miterlimit="10" d="M252.697,208.881l-43.906-0.048
	c0,6.27,0,3.899,0,6.762c0,2.406,1.531,2.406,3.283,2.406c2.123,0,35.748,0,37.936,0s2.688-0.98,2.688-2.303
	S252.697,208.881,252.697,208.881z"/>
<path fill="#2D2E2D" d="M184.68,222.251c0,1.09-0.89,1.98-1.98,1.98h-1c-1.1,0-1.98-0.891-1.98-1.98H184.68z"/>
<path fill="#2D2E2D" d="M250.68,222.221v0.03c0,1.09-0.89,1.98-1.979,1.98h-1c-1.101,0-1.98-0.891-1.98-1.98c1.78,0,2.79,0,2.79,0
	C249.29,222.251,250.01,222.241,250.68,222.221z"/>
<path fill="#FFFFFF" stroke="#262B54" stroke-miterlimit="10" d="M199.112,192.294c-0.517,1.56-1.603,4.92-1.603,7.787
	c0,7.34,2.17,8.75,4.5,8.75c7.55,0,15.1,0.01,22.13,0.02c0.01,3.74,3.05,6.761,6.79,6.761c3.72,0,6.75-3,6.78-6.73
	c12.609,0.03,14.802,0.069,19.675,0.069c1.766,0,1.667,1.087,1.669,1.598c0.034,9.239,0.146,11.408-8.374,11.673
	c-0.67,0.021-1.39,0.03-2.17,0.03c0,0-1.01,0-2.79,0h-74.718c-5.813,0-5.912-1.438-5.912-11.708c0-2.313,5.5-2.712,5.5-8.622
	c0-3.159-1.221-7.873-1.875-9.928c-0.083-0.26-0.371-0.942,0.545-0.942c5.971,0,22.813,0,28.531,0
	C199.244,191.051,199.494,191.142,199.112,192.294z"/>
<path fill="#242B54" stroke="#262B54" stroke-miterlimit="10" d="M429.604,90.331c0,0.22,0,0.439-0.01,0.67h-31.141
	c-0.01-0.23-0.01-0.45-0.01-0.67c0-3.95-0.73-3.33,15.58-3.33S429.604,86.381,429.604,90.331z"/>
<path fill="none" stroke="#262B54" stroke-miterlimit="10" d="M429.604,190.391c0,0.92-2.16,0.61-15.58,0.61s-15.58,0.31-15.58-0.61
	c0-11,6.52-31.239,6.52-53.579c0-21.83-6.229-36.07-6.51-45.811h31.141c-0.28,9.74-6.51,23.98-6.51,45.811
	C423.085,159.151,429.604,179.391,429.604,190.391z"/>
<path fill="#242B54" stroke="#242B54" stroke-linejoin="round" stroke-miterlimit="10" d="M482.712,208.881l-43.906-0.048
	c0,6.27,0,3.899,0,6.762c0,2.406,1.531,2.406,3.283,2.406c2.123,0,35.748,0,37.936,0s2.688-0.98,2.688-2.303
	S482.712,208.881,482.712,208.881z"/>
<path fill="#2D2E2D" d="M414.694,222.251c0,1.09-0.891,1.98-1.98,1.98h-1c-1.1,0-1.979-0.891-1.979-1.98H414.694z"/>
<path fill="#2D2E2D" d="M480.694,222.221v0.03c0,1.09-0.89,1.98-1.979,1.98h-1c-1.101,0-1.98-0.891-1.98-1.98c1.78,0,2.79,0,2.79,0
	C479.305,222.251,480.024,222.241,480.694,222.221z"/>
<path fill="#FFFFFF" stroke="#262B54" stroke-miterlimit="10" d="M429.127,192.294c-0.517,1.56-1.603,4.92-1.603,7.787
	c0,7.34,2.17,8.75,4.5,8.75c7.55,0,15.1,0.01,22.13,0.02c0.01,3.74,3.05,6.761,6.79,6.761c3.72,0,6.75-3,6.78-6.73
	c12.609,0.03,14.802,0.069,19.675,0.069c1.766,0,1.667,1.087,1.669,1.598c0.034,9.239,0.146,11.408-8.374,11.673
	c-0.67,0.021-1.39,0.03-2.17,0.03c0,0-1.01,0-2.79,0h-74.718c-5.813,0-5.912-1.438-5.912-11.708c0-2.313,5.5-2.712,5.5-8.622
	c0-3.159-1.221-7.873-1.875-9.928c-0.083-0.26-0.371-0.942,0.545-0.942c5.971,0,22.813,0,28.531,0
	C429.259,191.051,429.509,191.142,429.127,192.294z"/>
<path fill="#242B54" stroke="#262B54" stroke-miterlimit="10" d="M586.211,90.331c0,0.22,0,0.439-0.01,0.67h-31.141
	c-0.01-0.23-0.01-0.45-0.01-0.67c0-3.95-0.73-3.33,15.58-3.33S586.211,86.381,586.211,90.331z"/>
<path fill="none" stroke="#262B54" stroke-miterlimit="10" d="M586.211,190.391c0,0.92-2.16,0.61-15.58,0.61s-15.58,0.31-15.58-0.61
	c0-11,6.52-31.239,6.52-53.579c0-21.83-6.229-36.07-6.51-45.811h31.141c-0.28,9.74-6.51,23.98-6.51,45.811
	C579.691,159.151,586.211,179.391,586.211,190.391z"/>
<path fill="#242B54" stroke="#242B54" stroke-linejoin="round" stroke-miterlimit="10" d="M639.318,189.562l-43.906-0.048
	c0,6.27,0,3.899,0,6.762c0,2.406,1.531,2.406,3.283,2.406c2.123,0,35.748,0,37.936,0s2.688-0.98,2.688-2.303
	S639.318,189.562,639.318,189.562z"/>
<path fill="#2D2E2D" d="M571.301,222.251c0,1.09-0.891,1.98-1.98,1.98h-1c-1.1,0-1.979-0.891-1.979-1.98H571.301z"/>
<path fill="#2D2E2D" d="M637.301,222.221v0.03c0,1.09-0.89,1.98-1.979,1.98h-1c-1.101,0-1.98-0.891-1.98-1.98c1.78,0,2.79,0,2.79,0
	C635.911,222.251,636.631,222.241,637.301,222.221z"/>
<path fill="#FFFFFF" stroke="#262B54" stroke-miterlimit="10" d="M585.733,192.294c-0.517,1.56-1.603,4.92-1.603,7.787
	c0,7.34,2.17,8.75,4.5,8.75c7.55,0,15.1,0.01,22.13,0.02c0.01,3.74,3.05,6.761,6.79,6.761c3.72,0,6.75-3,6.78-6.73
	c12.609,0.03,14.802,0.069,19.675,0.069c1.766,0,1.667,1.087,1.669,1.598c0.034,9.239,0.146,11.408-8.374,11.673
	c-0.67,0.021-1.39,0.03-2.17,0.03c0,0-1.01,0-2.79,0h-74.718c-5.813,0-5.912-1.438-5.912-11.708c0-2.313,5.5-2.712,5.5-8.622
	c0-3.159-1.221-7.873-1.875-9.928c-0.083-0.26-0.371-0.942,0.545-0.942c5.971,0,22.813,0,28.531,0
	C585.865,191.051,586.115,191.142,585.733,192.294z"/>
<path fill="#242B54" stroke="#262B54" stroke-miterlimit="10" d="M740.387,92.336c0,0.22,0,0.439-0.01,0.67h-31.141
	c-0.01-0.23-0.01-0.45-0.01-0.67c0-3.95-0.73-3.33,15.58-3.33S740.387,88.386,740.387,92.336z"/>
<path fill="none" stroke="#262B54" stroke-miterlimit="10" d="M740.387,189.396c0,0.92-2.16,0.61-15.58,0.61s-15.58,0.31-15.58-0.61
	c0-11,6.52-31.239,6.52-53.579c0-21.83-6.229-36.07-6.51-45.811h31.141c-0.28,9.74-6.51,23.98-6.51,45.811
	C733.867,158.156,740.387,178.396,740.387,189.396z"/>
<path fill="#242B54" stroke="#242B54" stroke-linejoin="round" stroke-miterlimit="10" d="M986.305,188.771l-42.973,9.008
	c1.293,6.134,0.805,3.814,1.395,6.615c0.495,2.354,1.994,2.039,3.709,1.678c2.078-0.438,34.98-7.371,37.121-7.823
	c2.14-0.45,2.427-1.513,2.154-2.807C987.438,194.149,986.305,188.771,986.305,188.771z"/>
<path fill="#2D2E2D" d="M725.477,221.256c0,1.09-0.891,1.98-1.98,1.98h-1c-1.1,0-1.979-0.891-1.979-1.98H725.477z"/>
<path fill="#2D2E2D" d="M791.477,221.226v0.03c0,1.09-0.89,1.98-1.979,1.98h-1c-1.101,0-1.98-0.891-1.98-1.98c1.78,0,2.79,0,2.79,0
	C790.087,221.256,790.807,221.246,791.477,221.226z"/>
<path fill="#FFFFFF" stroke="#262B54" stroke-miterlimit="10" d="M739.909,191.299c-0.517,1.56-1.603,4.92-1.603,7.787
	c0,7.34,2.17,8.75,4.5,8.75c7.55,0,15.1,0.01,22.13,0.02c0.01,3.74,3.05,6.761,6.79,6.761c3.72,0,6.75-3,6.78-6.73
	c12.609,0.03,14.802,0.069,19.675,0.069c1.766,0,1.667,1.087,1.669,1.598c0.034,9.239,0.146,11.408-8.374,11.673
	c-0.67,0.021-1.39,0.03-2.17,0.03c0,0-1.01,0-2.79,0h-74.718c-5.813,0-5.912-1.438-5.912-11.708c0-2.313,5.5-2.712,5.5-8.622
	c0-3.159-1.221-7.873-1.875-9.928c-0.083-0.26-0.371-0.942,0.545-0.942c5.971,0,22.813,0,28.531,0
	C740.041,190.056,740.291,190.146,739.909,191.299z"/>
<g>
	<g>
		<path fill="#FFFFFF" d="M501.593,160.819c1.211,1.487,3.341,5.214,3.892,6.829c0.404-0.294,0.973-1.486,1.505-2.019
			c0.533-0.532,3.122-1.689,3.599-1.947c0.477-0.257,2.093-2.129,3.231-2.974c1.138-0.844,2.45-0.79,4.433-0.826
			c1.983-0.037,4.966,0.239,4.416,3.507c-0.552,3.268-3.746,5.103-4.223,6.059c-0.478,0.953-4.187,4.295-4.92,4.956
			c-0.735,0.66-3.231,3.782-3.414,4.332c-0.184,0.551,0.183,2.057-0.809,3.488c-1.982,3.598-4.039,3.929-6.058,4.332
			c-2.02,0.404-6.058-0.256-8.188-0.294c-2.13-0.036-4.112-0.514-6.095-1.101c-1.983-0.588-0.944-0.17-2.304-0.427
			c-2.396,2.887-5.123,4.304-5.711,6.213c-0.587,1.909-1.788,12.204-2.192,13.049c-0.404,0.844-2.276,4.185-6.389,3.341
			c-6.498-1.652-4.59-9.913-4.296-12.41c0.294-2.496,0.624-5.36,1.028-7.453c-0.551,0.954-1.396,1.8-1.579,1.945
			c-0.183,0.147-2.056,8.446-2.056,8.959c0,0.514,0.917,4.627,0.844,8.922c-0.072,4.296-2.387,6.977-5.91,6.977
			c-3.525,0-4.847-4.7-5.287-6.683c-0.441-1.982-0.368-5.948-0.441-10.133c-0.073-4.187-0.881-6.021,0.294-10.722
			c1.174-4.7,3.378-8.077,5.801-11.309c2.423-3.23,5.361-7.636,6.976-8.444c1.616-0.809,5.141-1.902,8.446-4.553
			c1.626-1.305,3.45-3.305,7.342-3.966"/>
		<path fill="#010101" d="M501.616,160.802c0.853,0.999,1.597,2.104,2.305,3.214c0.697,1.127,1.379,2.245,1.918,3.512l-0.575-0.183
			c0.225-0.2,0.506-0.664,0.762-1.053c0.275-0.392,0.526-0.86,1.028-1.188c0.86-0.556,1.722-0.949,2.59-1.376l0.643-0.312
			c0.037-0.019,0.13-0.064,0.114-0.061l0.146-0.106c0.103-0.07,0.157-0.141,0.239-0.21c0.317-0.296,0.669-0.653,1.006-0.987
			c0.689-0.666,1.363-1.39,2.24-1.921c0.999-0.528,2.022-0.57,2.987-0.601c0.958-0.011,1.926-0.077,2.935,0.061
			c0.966,0.136,2.104,0.465,2.736,1.459c0.606,0.993,0.447,2.159,0.192,3.076c-0.299,1.013-0.805,1.881-1.427,2.663
			c-0.618,0.778-1.345,1.452-2.032,2.103c-0.167,0.162-0.337,0.327-0.47,0.487c-0.076,0.083-0.12,0.156-0.164,0.225
			c-0.09,0.144-0.118,0.208-0.216,0.335c-0.335,0.445-0.649,0.775-0.992,1.134c-0.674,0.699-1.371,1.364-2.073,2.023
			c-0.682,0.656-1.462,1.306-2.082,1.943c-0.632,0.692-1.235,1.438-1.819,2.187c-0.291,0.375-0.577,0.756-0.841,1.139
			c-0.116,0.173-0.284,0.428-0.301,0.505c-0.042,0.162-0.04,0.385-0.048,0.631c0.003,0.968-0.188,2.072-0.806,2.938l0.02-0.032
			c-0.505,0.917-1.113,1.799-1.888,2.55c-0.773,0.75-1.761,1.311-2.791,1.595c-0.513,0.151-1.027,0.253-1.527,0.354
			c-0.512,0.104-1.074,0.146-1.593,0.155c-1.05,0.015-2.079-0.061-3.104-0.145c-1.022-0.083-2.042-0.192-3.049-0.25l-1.532-0.069
			c-0.53-0.041-1.05-0.104-1.563-0.184c-1.03-0.166-2.041-0.411-3.034-0.689l-1.47-0.419c-0.119-0.032-0.238-0.063-0.344-0.081
			c-0.121-0.027-0.152-0.02-0.311-0.019c-0.317,0-0.572-0.057-0.836-0.1l0.357-0.129c-0.704,0.846-1.483,1.62-2.284,2.355
			c-0.798,0.734-1.629,1.426-2.347,2.178c-0.353,0.378-0.669,0.778-0.874,1.21c-0.2,0.403-0.282,0.975-0.389,1.467
			c-0.196,1.048-0.359,2.112-0.521,3.176l-0.949,6.396c-0.085,0.534-0.175,1.068-0.278,1.607l-0.091,0.411
			c-0.037,0.137-0.094,0.337-0.158,0.459c-0.12,0.244-0.272,0.506-0.424,0.736c-0.617,0.944-1.456,1.776-2.495,2.294
			c-1.035,0.528-2.237,0.684-3.361,0.513c-1.151-0.158-2.208-0.636-3.114-1.359c-0.884-0.743-1.533-1.746-1.892-2.815
			c-0.374-1.069-0.521-2.187-0.552-3.288c-0.035-1.104,0.052-2.199,0.184-3.28c0.14-1.09,0.31-2.127,0.421-3.203l0.403-3.213
			c0.14-1.071,0.313-2.142,0.505-3.213v-0.002l0.693,0.259l-0.466,0.707l-0.522,0.652c-0.196,0.207-0.359,0.41-0.597,0.619
			c-0.002-0.047-0.102,0.317-0.164,0.549c-0.269,1.026-0.51,2.073-0.749,3.115l-0.691,3.138l-0.314,1.565l-0.056,0.355l0.037,0.342
			l0.123,0.761c0.35,2.124,0.624,4.278,0.683,6.45c0.098,2.137-0.085,4.527-1.478,6.411c-0.674,0.934-1.65,1.658-2.748,2.027
			c-0.548,0.179-1.117,0.295-1.687,0.316l-0.442,0.017c-0.141-0.01-0.253-0.003-0.419-0.027c-0.319-0.029-0.596-0.107-0.884-0.199
			c-1.143-0.406-1.995-1.296-2.593-2.236c-0.607-0.952-1.021-1.986-1.343-3.035c-0.708-2.123-0.711-4.336-0.768-6.477
			c-0.048-2.149-0.017-4.301-0.107-6.429c-0.097-2.1-0.427-4.281-0.204-6.477c0.074-0.541,0.141-1.086,0.235-1.623l0.354-1.607
			l0.444-1.547l0.552-1.547c0.793-2.031,1.851-3.943,3.057-5.741c1.211-1.802,2.543-3.475,3.789-5.222
			c1.285-1.723,2.511-3.488,4.081-5.049c0.2-0.193,0.417-0.376,0.651-0.549c0.25-0.175,0.526-0.312,0.761-0.41
			c0.48-0.228,1.001-0.432,1.487-0.645c0.989-0.41,1.948-0.862,2.896-1.341c1.889-0.985,3.593-2.199,5.234-3.613
			c0.861-0.662,1.797-1.251,2.8-1.685c1.009-0.418,2.069-0.696,3.142-0.818l0.02,0.115c-2.096,0.459-4.023,1.42-5.613,2.821
			c-1.583,1.412-3.344,2.78-5.273,3.768c-0.966,0.493-1.947,0.958-2.939,1.372c-0.497,0.22-0.976,0.406-1.465,0.64
			c-0.261,0.111-0.463,0.217-0.654,0.351c-0.197,0.146-0.39,0.309-0.576,0.489c-1.476,1.472-2.716,3.25-3.985,4.967
			c-1.241,1.749-2.58,3.442-3.758,5.207c-1.18,1.769-2.204,3.637-2.968,5.607l-0.527,1.485l-0.44,1.548l-0.332,1.537
			c-0.09,0.52-0.151,1.041-0.223,1.562c-0.208,2.093,0.115,4.193,0.225,6.375c0.098,2.159,0.071,4.302,0.124,6.442
			c0.061,2.132,0.078,4.282,0.75,6.257c0.31,0.999,0.706,1.974,1.258,2.832c0.546,0.854,1.28,1.586,2.183,1.901
			c0.222,0.07,0.466,0.136,0.683,0.153c0.099,0.021,0.256,0.016,0.383,0.024l0.361-0.018c0.504-0.019,0.995-0.123,1.465-0.276
			c0.939-0.321,1.761-0.931,2.343-1.741c1.201-1.634,1.418-3.798,1.326-5.892c-0.05-2.121-0.31-4.235-0.648-6.346l-0.128-0.829
			c-0.011-0.159-0.037-0.209-0.035-0.458c0.02-0.182,0.043-0.299,0.068-0.439l0.325-1.589l0.706-3.146
			c0.245-1.047,0.489-2.091,0.769-3.14l0.112-0.397c0.035-0.09,0.088-0.393,0.295-0.531c0.167-0.145,0.347-0.356,0.521-0.538
			l0.485-0.602l0.422-0.636l0.997-1.501l-0.304,1.76v0.002c-0.188,1.051-0.358,2.106-0.498,3.172l-0.401,3.2
			c-0.111,1.068-0.287,2.159-0.422,3.206c-0.128,1.057-0.212,2.116-0.179,3.167c0.03,1.048,0.171,2.093,0.51,3.062
			c0.326,0.973,0.898,1.838,1.663,2.485c0.772,0.624,1.753,1.064,2.735,1.194c1.006,0.152,2.033,0.014,2.926-0.439
			c0.896-0.445,1.645-1.18,2.203-2.034c0.143-0.22,0.263-0.424,0.381-0.662c0.059-0.118,0.064-0.184,0.102-0.305l0.083-0.378
			c0.1-0.519,0.188-1.047,0.272-1.577l0.948-6.391c0.162-1.067,0.325-2.133,0.526-3.203c0.124-0.556,0.178-1.072,0.446-1.646
			c0.259-0.543,0.625-0.994,1.005-1.403c0.771-0.808,1.603-1.494,2.389-2.219c0.786-0.722,1.538-1.47,2.213-2.28l0.139-0.166
			l0.22,0.037c0.241,0.04,0.49,0.088,0.686,0.086c0.097-0.004,0.324-0.005,0.452,0.03c0.147,0.025,0.276,0.06,0.404,0.094
			l1.482,0.422c0.977,0.274,1.958,0.512,2.95,0.671c0.497,0.078,0.993,0.138,1.483,0.176l1.535,0.069
			c1.036,0.06,2.053,0.169,3.069,0.251c1.015,0.084,2.029,0.157,3.027,0.143c0.504-0.012,0.966-0.042,1.459-0.141
			c0.502-0.101,0.992-0.198,1.462-0.337c0.944-0.264,1.786-0.746,2.486-1.419c0.696-0.676,1.268-1.494,1.749-2.368l0.01-0.018
			l0.01-0.016c0.505-0.719,0.671-1.59,0.673-2.529c0.011-0.231-0.002-0.494,0.071-0.799c0.13-0.382,0.27-0.51,0.408-0.741
			c0.28-0.406,0.57-0.792,0.867-1.175c0.597-0.764,1.199-1.511,1.861-2.236c0.719-0.734,1.422-1.309,2.121-1.982
			c0.696-0.653,1.388-1.313,2.045-1.995c0.321-0.333,0.662-0.706,0.905-1.026c0.057-0.058,0.135-0.21,0.177-0.268
			c0.08-0.137,0.166-0.265,0.253-0.359c0.174-0.208,0.351-0.376,0.526-0.548c0.705-0.667,1.389-1.304,1.966-2.03
			c0.575-0.712,1.037-1.541,1.284-2.369c0.256-0.891,0.325-1.822-0.099-2.504c-0.417-0.684-1.313-0.995-2.202-1.114
			c-0.896-0.126-1.855-0.065-2.812-0.054c-0.938,0.015-1.894,0.108-2.607,0.484c-0.772,0.46-1.429,1.155-2.113,1.818
			c-0.344,0.341-0.662,0.67-1.048,1.026c-0.101,0.087-0.209,0.194-0.304,0.261l-0.146,0.105c-0.113,0.074-0.133,0.073-0.2,0.111
			l-0.652,0.316c-0.854,0.416-1.738,0.831-2.49,1.317c-0.322,0.19-0.562,0.595-0.827,0.981c-0.282,0.4-0.456,0.804-0.947,1.249
			l-0.399,0.362l-0.176-0.544c-0.388-1.194-0.972-2.391-1.56-3.553c-0.606-1.162-1.237-2.306-2.001-3.38L501.616,160.802z"/>
	</g>
	<g>
		<path fill="#010101" d="M468.609,187.378c0,0,0.058-0.236,0.123-0.642c0.039-0.206,0.062-0.449,0.089-0.729
			c0.016-0.302,0.032-0.643,0.051-1.014c0.039-0.746,0.087-1.626,0.211-2.568c0.064-0.472,0.151-0.959,0.27-1.45
			c0.138-0.502,0.288-0.977,0.503-1.442c0.832-1.852,1.883-3.526,2.497-4.878c0.315-0.67,0.524-1.25,0.622-1.665
			c0.109-0.415,0.087-0.661,0.102-0.66h0.125c-0.015-0.003,0.022,0.26-0.066,0.693c-0.077,0.436-0.258,1.04-0.539,1.736
			c-0.544,1.396-1.512,3.162-2.207,4.981c-0.705,1.806-0.631,3.8-0.65,5.274c0.002,0.374,0.003,0.717,0.004,1.02
			c-0.013,0.324-0.025,0.607-0.055,0.831c-0.049,0.456-0.098,0.706-0.098,0.706L468.609,187.378z"/>
	</g>
	<path fill="none" stroke="#010101" stroke-width="0.75" stroke-miterlimit="10" d="M480.948,190.948c0,0,0.506-4.244,1.332-5.456
		s3.216-5.616,2.941-8.04"/>
	<path fill="none" stroke="#010101" stroke-width="0.75" stroke-miterlimit="10" d="M493.185,162.086
		c2.423,0,6.003,2.588,5.948,4.901s-0.495,5.563-3.25,9.308c-2.753,3.745-3.523,4.24-6.003,4.131
		c-2.478-0.111-5.066-2.755-5.287-4.462c-0.22-1.707,0.827-4.791,1.764-6.663c0.936-1.873,0.55-2.919,1.101-3.911
		C488.009,164.398,489.44,162.086,493.185,162.086z"/>
	<path fill="none" stroke="#010101" stroke-width="0.75" stroke-miterlimit="10" d="M490.899,169.686
		c-2.589,0-4.213,1.791-4.269,2.947c0,0.496,1.652,0.248,2.781,0.248s3.993,0.936,4.323,0.66
		C494.066,173.266,493.873,169.686,490.899,169.686z"/>
	<path fill="none" stroke="#010101" stroke-width="0.75" stroke-miterlimit="10" d="M473.139,196.764
		c-2.682,0-4.021,4.406-4.021,5.104s1.23,0.845,3.177,0.918c1.945,0.073,3.524,0.036,4.075-0.514
		C476.919,201.72,477.03,196.764,473.139,196.764z"/>
	<path fill="none" stroke="#010101" stroke-width="0.75" stroke-miterlimit="10" d="M459.847,206.199
		c-1.431,0-3.487,2.203-2.423,4.994c0.452,1.184,0.551,1.798,2.606,1.872c2.057,0.073,3.231-1.652,3.231-3.231
		S462.563,206.199,459.847,206.199z"/>
	<g>
		<path fill="#010101" d="M486.602,185.105c0,0-0.791-0.215-1.574-0.408c-0.791-0.18-1.582-0.359-1.582-0.359v-0.078
			c0,0,0.819,0.014,1.639,0.027c0.823,0.029,1.633,0.078,1.633,0.078L486.602,185.105z"/>
	</g>
	<g>
		<path fill="#010101" d="M510.882,175.027c0,0-0.396,0.089-1.005,0.107c-0.603,0.01-1.446-0.054-2.213-0.432
			c-0.372-0.195-0.737-0.432-0.995-0.74c-0.277-0.29-0.438-0.631-0.568-0.911c-0.108-0.293-0.161-0.544-0.181-0.722
			c-0.024-0.177-0.031-0.276-0.031-0.276s0.045,0.09,0.124,0.248c0.058,0.164,0.201,0.37,0.338,0.622
			c0.16,0.24,0.369,0.498,0.631,0.729c0.124,0.122,0.271,0.225,0.421,0.328c0.149,0.104,0.313,0.194,0.481,0.274
			c0.671,0.327,1.435,0.494,2.015,0.601C510.48,174.956,510.882,175.027,510.882,175.027z"/>
	</g>
	<g>
		<path fill="#010101" d="M515.617,170.622c0,0-0.107,0.015-0.296,0.041c-0.185,0.017-0.468,0.042-0.795,0.009
			c-0.328-0.027-0.713-0.079-1.112-0.191c-0.4-0.109-0.814-0.272-1.208-0.482c-0.393-0.209-0.763-0.471-1.065-0.766
			c-0.317-0.281-0.522-0.638-0.682-0.933c-0.06-0.161-0.129-0.301-0.143-0.44c-0.017-0.138-0.052-0.251-0.042-0.35
			c0.008-0.196,0.02-0.302,0.02-0.302s0.027,0.104,0.076,0.286c0.015,0.091,0.077,0.19,0.123,0.306
			c0.044,0.116,0.144,0.228,0.211,0.361c0.354,0.501,1.006,1.016,1.738,1.397c0.725,0.396,1.519,0.675,2.13,0.837
			c0.307,0.075,0.561,0.146,0.751,0.171C515.511,170.602,515.617,170.622,515.617,170.622z"/>
	</g>
	<g>
		<path fill="#010101" d="M505.86,167.812c0,0.001-1.49,1.164-2.855,2.489c-0.681,0.661-1.316,1.364-1.774,1.909
			c-0.425,0.57-0.708,0.95-0.708,0.95l-0.137-0.084c0,0,0.257-0.407,0.643-1.018c0.421-0.587,1.01-1.349,1.647-2.071
			c1.271-1.442,2.701-2.749,2.7-2.748L505.86,167.812z"/>
	</g>
	<g>
		<path fill="#010101" d="M482.026,178.215c0,0-0.506-0.322-1.253-0.821c-0.401-0.183-0.866-0.39-1.368-0.595
			c-0.266-0.07-0.54-0.143-0.818-0.217c-0.275-0.091-0.565-0.128-0.858-0.147c-0.292-0.021-0.581-0.087-0.869-0.086
			c-0.289,0.008-0.573,0.016-0.849,0.023c-0.277-0.008-0.534,0.074-0.786,0.097c-0.25,0.037-0.491,0.061-0.697,0.139
			c-0.213,0.062-0.408,0.118-0.581,0.168c-0.174,0.049-0.306,0.136-0.426,0.186c-0.235,0.112-0.37,0.177-0.37,0.177l-0.023-0.033
			c0,0,0.127-0.081,0.349-0.224c0.114-0.064,0.242-0.173,0.412-0.244c0.17-0.072,0.363-0.15,0.577-0.231
			c0.21-0.097,0.453-0.139,0.709-0.197c0.256-0.046,0.522-0.145,0.81-0.142c0.286-0.017,0.581-0.033,0.881-0.05
			c0.3-0.007,0.604,0.041,0.907,0.068c0.306,0.024,0.607,0.067,0.894,0.165c0.29,0.081,0.575,0.16,0.851,0.237
			c0.271,0.096,0.513,0.246,0.751,0.357c0.234,0.121,0.462,0.228,0.658,0.34c0.706,0.555,1.17,0.935,1.17,0.935L482.026,178.215z"/>
	</g>
	<g>
		<path fill="#010101" d="M470.164,189.072c0,0,0.132-0.066,0.362-0.182c0.115-0.058,0.255-0.127,0.415-0.208
			c0.163-0.076,0.336-0.185,0.556-0.232c0.216-0.063,0.449-0.131,0.696-0.203c0.247-0.088,0.515-0.129,0.794-0.152
			c0.278-0.031,0.566-0.063,0.858-0.097c0.295,0.009,0.595,0.018,0.894,0.025c0.301-0.004,0.595,0.063,0.886,0.116
			c0.288,0.065,0.583,0.076,0.846,0.188c0.265,0.097,0.521,0.19,0.764,0.278c0.24,0.093,0.441,0.242,0.641,0.347
			c0.189,0.122,0.384,0.201,0.51,0.341c0.134,0.126,0.25,0.236,0.347,0.326c0.189,0.18,0.298,0.283,0.298,0.283l-0.107,0.098
			c0,0-0.114-0.088-0.315-0.243c-0.099-0.077-0.219-0.17-0.357-0.277c-0.126-0.122-0.331-0.172-0.513-0.282
			c-0.195-0.091-0.389-0.224-0.624-0.3c-0.234-0.074-0.482-0.153-0.739-0.233c-0.249-0.106-0.534-0.114-0.81-0.176
			c-0.279-0.049-0.561-0.113-0.85-0.106c-0.288-0.015-0.576-0.028-0.859-0.043c-0.283,0.021-0.562,0.041-0.831,0.061
			c-0.547,0.013-1.024,0.171-1.457,0.234c-0.217,0.027-0.402,0.119-0.575,0.167c-0.171,0.056-0.319,0.104-0.442,0.145
			C470.304,189.026,470.164,189.072,470.164,189.072z"/>
	</g>
	<g>
		<path fill="#010101" d="M465.801,182.934c0,0-0.125-0.035-0.345-0.096c-0.216-0.063-0.525-0.172-0.896-0.271
			c-0.185-0.025-0.385-0.054-0.596-0.084c-0.213-0.021-0.422-0.084-0.661-0.071c-0.234-0.007-0.477-0.014-0.723-0.021
			c-0.245-0.021-0.495,0.021-0.744,0.043c-0.248,0.036-0.501,0.029-0.744,0.073c-0.242,0.047-0.481,0.089-0.715,0.123
			c-0.236,0.026-0.449,0.105-0.663,0.146c-0.208,0.056-0.419,0.082-0.592,0.154c-0.348,0.138-0.672,0.201-0.854,0.324
			c-0.205,0.098-0.322,0.153-0.322,0.153l-0.016-0.018c0,0,0.097-0.088,0.266-0.241c0.17-0.168,0.453-0.332,0.806-0.519
			c0.174-0.103,0.379-0.16,0.588-0.25c0.211-0.082,0.434-0.181,0.677-0.227c0.479-0.123,0.998-0.236,1.53-0.251
			c0.264-0.014,0.527-0.049,0.789-0.017c0.26,0.017,0.517,0.033,0.765,0.05c0.247,0,0.486,0.108,0.71,0.155
			c0.222,0.061,0.431,0.118,0.624,0.171c0.188,0.059,0.332,0.167,0.475,0.235c0.139,0.075,0.26,0.142,0.358,0.195
			c0.196,0.114,0.309,0.18,0.309,0.18L465.801,182.934z"/>
	</g>
	<g>
		<path fill="#010101" d="M463.243,198.482c0,0-0.483-0.126-1.194-0.351c-0.175-0.07-0.371-0.092-0.574-0.14
			c-0.202-0.043-0.416-0.089-0.637-0.136c-0.215-0.067-0.454-0.067-0.688-0.105c-0.235-0.021-0.474-0.077-0.714-0.072
			c-0.239,0.005-0.479-0.003-0.715-0.014c-0.236-0.021-0.462,0.035-0.686,0.047c-0.225,0.015-0.437,0.048-0.634,0.098
			c-0.196,0.049-0.396,0.069-0.56,0.133c-0.162,0.068-0.313,0.129-0.453,0.177c-0.147,0.038-0.234,0.129-0.327,0.179
			c-0.184,0.11-0.288,0.174-0.288,0.174l-0.078-0.074c0,0,0.088-0.093,0.242-0.255c0.085-0.072,0.17-0.196,0.31-0.267
			c0.131-0.086,0.286-0.175,0.458-0.271c0.172-0.093,0.375-0.143,0.584-0.223c0.208-0.091,0.438-0.129,0.678-0.156
			c0.238-0.024,0.486-0.092,0.737-0.082c0.252-0.004,0.509-0.004,0.765,0.009c0.256,0.006,0.505,0.072,0.753,0.104
			c0.245,0.049,0.493,0.06,0.722,0.139c0.228,0.074,0.447,0.146,0.656,0.214c0.205,0.073,0.409,0.122,0.572,0.21
			c0.671,0.325,1.107,0.566,1.107,0.566L463.243,198.482z"/>
	</g>
</g>
<g>
	<g>
		<path fill="#FFFFFF" d="M658.74,141.5c1.211,1.487,3.341,5.214,3.892,6.829c0.404-0.294,0.973-1.486,1.505-2.019
			c0.533-0.532,3.122-1.689,3.599-1.947c0.477-0.257,2.093-2.129,3.231-2.974c1.138-0.844,2.45-0.79,4.433-0.826
			c1.983-0.037,4.966,0.239,4.416,3.507c-0.552,3.268-3.746,5.103-4.223,6.059c-0.478,0.953-4.187,4.295-4.92,4.956
			c-0.735,0.66-3.231,3.782-3.414,4.332c-0.184,0.551,0.183,2.057-0.809,3.488c-1.982,3.598-4.039,3.929-6.058,4.332
			c-2.02,0.404-6.058-0.256-8.188-0.294c-2.13-0.036-4.112-0.514-6.095-1.101c-1.983-0.588-0.944-0.17-2.304-0.427
			c-2.396,2.887-5.123,4.304-5.711,6.213c-0.587,1.909-1.788,12.204-2.192,13.049c-0.404,0.844-2.276,4.185-6.389,3.341
			c-6.498-1.652-4.59-9.913-4.296-12.41c0.294-2.496,0.624-5.36,1.028-7.453c-0.551,0.954-1.396,1.8-1.579,1.945
			c-0.183,0.147-2.056,8.446-2.056,8.959c0,0.514,0.917,4.627,0.844,8.922c-0.072,4.296-2.387,6.977-5.91,6.977
			c-3.525,0-4.847-4.7-5.287-6.683c-0.441-1.982-0.368-5.948-0.441-10.133c-0.073-4.187-0.881-6.021,0.294-10.722
			c1.174-4.7,3.378-8.077,5.801-11.309c2.423-3.23,5.361-7.636,6.976-8.444c1.616-0.809,5.141-1.902,8.446-4.553
			c1.626-1.305,3.45-3.305,7.342-3.966"/>
		<path fill="#010101" d="M658.764,141.482c0.853,0.999,1.597,2.104,2.305,3.214c0.697,1.127,1.379,2.245,1.918,3.512l-0.575-0.183
			c0.225-0.2,0.506-0.664,0.762-1.053c0.275-0.392,0.526-0.86,1.028-1.188c0.86-0.556,1.722-0.949,2.59-1.376l0.643-0.312
			c0.037-0.019,0.13-0.064,0.114-0.061l0.146-0.106c0.103-0.07,0.157-0.141,0.239-0.21c0.317-0.296,0.669-0.653,1.006-0.987
			c0.689-0.666,1.363-1.39,2.24-1.921c0.999-0.528,2.022-0.57,2.987-0.601c0.958-0.011,1.926-0.077,2.935,0.061
			c0.966,0.136,2.104,0.465,2.736,1.459c0.606,0.993,0.447,2.159,0.192,3.076c-0.299,1.013-0.805,1.881-1.427,2.663
			c-0.618,0.778-1.345,1.452-2.032,2.103c-0.167,0.162-0.337,0.327-0.47,0.487c-0.076,0.083-0.12,0.156-0.164,0.225
			c-0.09,0.144-0.118,0.208-0.216,0.335c-0.335,0.445-0.649,0.775-0.992,1.134c-0.674,0.699-1.371,1.364-2.072,2.023
			c-0.683,0.656-1.463,1.306-2.083,1.943c-0.632,0.692-1.235,1.438-1.819,2.187c-0.291,0.375-0.577,0.756-0.841,1.139
			c-0.116,0.173-0.284,0.428-0.301,0.505c-0.042,0.162-0.04,0.385-0.048,0.631c0.003,0.968-0.188,2.072-0.806,2.938l0.02-0.032
			c-0.505,0.917-1.113,1.799-1.888,2.55c-0.773,0.75-1.761,1.311-2.791,1.595c-0.513,0.151-1.027,0.253-1.527,0.354
			c-0.512,0.104-1.074,0.146-1.593,0.155c-1.05,0.015-2.079-0.061-3.104-0.145c-1.022-0.083-2.042-0.192-3.049-0.25l-1.532-0.069
			c-0.53-0.041-1.05-0.104-1.563-0.184c-1.03-0.166-2.04-0.411-3.034-0.689l-1.47-0.419c-0.12-0.032-0.238-0.063-0.344-0.081
			c-0.121-0.027-0.152-0.02-0.311-0.019c-0.317,0-0.572-0.057-0.836-0.1l0.357-0.129c-0.704,0.846-1.483,1.62-2.284,2.355
			c-0.798,0.734-1.629,1.426-2.347,2.178c-0.353,0.378-0.669,0.778-0.874,1.21c-0.2,0.403-0.282,0.975-0.389,1.467
			c-0.196,1.048-0.359,2.112-0.521,3.176l-0.949,6.396c-0.085,0.534-0.175,1.068-0.278,1.607l-0.091,0.411
			c-0.037,0.137-0.094,0.337-0.158,0.459c-0.12,0.244-0.272,0.506-0.424,0.736c-0.617,0.944-1.456,1.776-2.495,2.294
			c-1.035,0.528-2.237,0.684-3.361,0.513c-1.151-0.158-2.208-0.636-3.114-1.359c-0.884-0.743-1.534-1.746-1.892-2.815
			c-0.374-1.069-0.521-2.187-0.552-3.288c-0.035-1.104,0.052-2.199,0.184-3.28c0.14-1.09,0.31-2.127,0.421-3.203l0.403-3.213
			c0.14-1.071,0.313-2.142,0.505-3.213v-0.002l0.693,0.259l-0.466,0.707l-0.522,0.652c-0.196,0.207-0.359,0.41-0.597,0.619
			c-0.002-0.047-0.102,0.317-0.164,0.549c-0.269,1.026-0.51,2.073-0.749,3.115l-0.691,3.138l-0.314,1.565l-0.056,0.355l0.037,0.342
			l0.123,0.761c0.35,2.124,0.624,4.278,0.683,6.45c0.098,2.137-0.085,4.527-1.478,6.411c-0.674,0.934-1.65,1.658-2.748,2.027
			c-0.548,0.179-1.117,0.295-1.687,0.316l-0.442,0.017c-0.141-0.01-0.253-0.003-0.419-0.027c-0.319-0.029-0.596-0.107-0.884-0.199
			c-1.143-0.406-1.995-1.296-2.593-2.236c-0.607-0.952-1.021-1.986-1.343-3.035c-0.708-2.123-0.711-4.336-0.768-6.477
			c-0.048-2.149-0.017-4.301-0.107-6.429c-0.097-2.1-0.427-4.281-0.204-6.477c0.074-0.541,0.141-1.086,0.235-1.623l0.354-1.607
			l0.444-1.547l0.552-1.547c0.793-2.031,1.851-3.943,3.057-5.741c1.211-1.802,2.543-3.475,3.789-5.222
			c1.285-1.723,2.511-3.488,4.081-5.049c0.2-0.193,0.417-0.376,0.651-0.549c0.25-0.175,0.526-0.312,0.761-0.41
			c0.48-0.228,1.001-0.432,1.487-0.645c0.989-0.41,1.948-0.862,2.896-1.341c1.889-0.985,3.593-2.199,5.234-3.613
			c0.861-0.662,1.797-1.251,2.8-1.685c1.009-0.418,2.069-0.696,3.142-0.818l0.02,0.115c-2.096,0.459-4.023,1.42-5.613,2.821
			c-1.583,1.412-3.344,2.78-5.273,3.768c-0.966,0.493-1.947,0.958-2.939,1.372c-0.497,0.22-0.976,0.406-1.465,0.64
			c-0.261,0.111-0.463,0.217-0.654,0.351c-0.197,0.146-0.39,0.309-0.576,0.489c-1.476,1.472-2.716,3.25-3.985,4.967
			c-1.241,1.749-2.58,3.442-3.758,5.207c-1.18,1.769-2.204,3.637-2.968,5.607l-0.527,1.485l-0.44,1.548l-0.332,1.537
			c-0.09,0.52-0.151,1.041-0.223,1.562c-0.208,2.093,0.115,4.193,0.225,6.375c0.098,2.159,0.071,4.302,0.124,6.442
			c0.061,2.132,0.078,4.282,0.75,6.257c0.31,0.999,0.706,1.974,1.258,2.832c0.545,0.854,1.28,1.586,2.183,1.901
			c0.222,0.07,0.466,0.136,0.683,0.153c0.099,0.021,0.256,0.016,0.383,0.024l0.361-0.018c0.504-0.019,0.995-0.123,1.465-0.276
			c0.939-0.321,1.761-0.931,2.343-1.741c1.201-1.634,1.418-3.798,1.326-5.892c-0.05-2.121-0.31-4.235-0.648-6.346l-0.128-0.829
			c-0.011-0.159-0.037-0.209-0.035-0.458c0.02-0.182,0.043-0.299,0.068-0.439l0.325-1.589l0.706-3.146
			c0.245-1.047,0.49-2.091,0.769-3.14l0.112-0.397c0.035-0.09,0.088-0.393,0.295-0.531c0.167-0.145,0.347-0.356,0.521-0.538
			l0.485-0.602l0.422-0.636l0.997-1.501l-0.304,1.76v0.002c-0.188,1.051-0.358,2.106-0.498,3.172l-0.401,3.2
			c-0.111,1.068-0.287,2.159-0.422,3.206c-0.128,1.057-0.212,2.116-0.179,3.167c0.03,1.048,0.171,2.093,0.51,3.062
			c0.326,0.973,0.898,1.838,1.663,2.485c0.772,0.624,1.753,1.064,2.735,1.194c1.006,0.152,2.033,0.014,2.926-0.439
			c0.896-0.445,1.645-1.18,2.203-2.034c0.143-0.22,0.263-0.424,0.381-0.662c0.059-0.118,0.064-0.184,0.102-0.305l0.083-0.378
			c0.1-0.519,0.188-1.047,0.272-1.577l0.948-6.391c0.162-1.067,0.325-2.133,0.526-3.203c0.124-0.556,0.178-1.072,0.446-1.646
			c0.259-0.543,0.625-0.994,1.005-1.403c0.771-0.808,1.603-1.494,2.389-2.219c0.786-0.722,1.538-1.47,2.213-2.28l0.139-0.166
			l0.22,0.037c0.241,0.04,0.49,0.088,0.686,0.086c0.097-0.004,0.324-0.005,0.452,0.03c0.147,0.025,0.276,0.06,0.404,0.094
			l1.482,0.422c0.977,0.274,1.958,0.512,2.95,0.671c0.497,0.078,0.993,0.138,1.483,0.176l1.535,0.069
			c1.036,0.06,2.053,0.169,3.069,0.251c1.015,0.084,2.029,0.157,3.027,0.143c0.504-0.012,0.966-0.042,1.459-0.141
			c0.502-0.101,0.992-0.198,1.462-0.337c0.944-0.264,1.786-0.746,2.486-1.419c0.696-0.676,1.268-1.494,1.749-2.368l0.01-0.018
			l0.01-0.016c0.505-0.719,0.671-1.59,0.673-2.529c0.011-0.231-0.002-0.494,0.071-0.799c0.13-0.382,0.27-0.51,0.408-0.741
			c0.28-0.406,0.57-0.792,0.867-1.175c0.597-0.764,1.199-1.511,1.861-2.236c0.719-0.734,1.422-1.309,2.121-1.982
			c0.696-0.653,1.388-1.313,2.045-1.995c0.321-0.333,0.662-0.706,0.905-1.026c0.057-0.058,0.135-0.21,0.177-0.268
			c0.08-0.137,0.166-0.265,0.253-0.359c0.174-0.208,0.351-0.376,0.526-0.548c0.706-0.667,1.389-1.304,1.966-2.03
			c0.575-0.712,1.037-1.541,1.284-2.369c0.256-0.891,0.325-1.822-0.099-2.504c-0.417-0.684-1.313-0.995-2.202-1.114
			c-0.896-0.126-1.855-0.065-2.812-0.054c-0.938,0.015-1.894,0.108-2.607,0.484c-0.772,0.46-1.429,1.155-2.113,1.818
			c-0.344,0.341-0.662,0.67-1.048,1.026c-0.101,0.087-0.208,0.194-0.304,0.261l-0.146,0.105c-0.113,0.074-0.133,0.073-0.2,0.111
			l-0.652,0.316c-0.854,0.416-1.738,0.831-2.49,1.317c-0.322,0.19-0.562,0.595-0.827,0.981c-0.282,0.4-0.456,0.804-0.947,1.249
			l-0.399,0.362l-0.176-0.544c-0.388-1.194-0.972-2.391-1.56-3.553c-0.606-1.162-1.237-2.306-2.001-3.38L658.764,141.482z"/>
	</g>
	<g>
		<path fill="#010101" d="M625.757,168.059c0,0,0.058-0.236,0.123-0.642c0.039-0.206,0.062-0.449,0.089-0.729
			c0.016-0.302,0.032-0.643,0.051-1.014c0.039-0.746,0.087-1.626,0.211-2.568c0.064-0.472,0.151-0.959,0.27-1.45
			c0.138-0.502,0.288-0.977,0.503-1.442c0.832-1.852,1.883-3.526,2.497-4.878c0.315-0.67,0.524-1.25,0.622-1.665
			c0.109-0.415,0.087-0.661,0.102-0.66h0.125c-0.015-0.003,0.022,0.26-0.066,0.693c-0.077,0.436-0.258,1.04-0.539,1.736
			c-0.544,1.396-1.512,3.162-2.207,4.981c-0.705,1.806-0.631,3.8-0.65,5.274c0.002,0.374,0.003,0.717,0.004,1.02
			c-0.013,0.324-0.025,0.607-0.055,0.831c-0.049,0.456-0.098,0.706-0.098,0.706L625.757,168.059z"/>
	</g>
	<path fill="none" stroke="#010101" stroke-width="0.75" stroke-miterlimit="10" d="M638.096,171.629c0,0,0.506-4.244,1.332-5.456
		s3.216-5.616,2.941-8.04"/>
	<path fill="none" stroke="#010101" stroke-width="0.75" stroke-miterlimit="10" d="M650.332,142.767
		c2.423,0,6.003,2.588,5.948,4.901s-0.495,5.563-3.25,9.308c-2.753,3.745-3.523,4.24-6.003,4.131
		c-2.478-0.111-5.066-2.755-5.287-4.462c-0.22-1.707,0.827-4.791,1.764-6.663c0.936-1.873,0.55-2.919,1.101-3.911
		C645.156,145.079,646.588,142.767,650.332,142.767z"/>
	<path fill="none" stroke="#010101" stroke-width="0.75" stroke-miterlimit="10" d="M648.047,150.366
		c-2.589,0-4.213,1.791-4.269,2.947c0,0.496,1.652,0.248,2.781,0.248s3.993,0.936,4.323,0.66
		C651.214,153.946,651.021,150.366,648.047,150.366z"/>
	<path fill="none" stroke="#010101" stroke-width="0.75" stroke-miterlimit="10" d="M630.286,177.444
		c-2.682,0-4.021,4.406-4.021,5.104s1.23,0.845,3.177,0.918c1.945,0.073,3.524,0.036,4.075-0.514
		C634.066,182.4,634.178,177.444,630.286,177.444z"/>
	<path fill="none" stroke="#010101" stroke-width="0.75" stroke-miterlimit="10" d="M616.994,186.88
		c-1.431,0-3.487,2.203-2.423,4.994c0.452,1.184,0.551,1.798,2.606,1.872c2.057,0.073,3.231-1.652,3.231-3.231
		S619.711,186.88,616.994,186.88z"/>
	<g>
		<path fill="#010101" d="M643.749,165.786c0,0-0.791-0.215-1.574-0.408c-0.791-0.18-1.582-0.359-1.582-0.359v-0.078
			c0,0,0.819,0.014,1.639,0.027c0.823,0.029,1.633,0.078,1.633,0.078L643.749,165.786z"/>
	</g>
	<g>
		<path fill="#010101" d="M668.029,155.708c0,0-0.396,0.065-1.002,0.065c-0.602-0.002-1.426-0.1-2.183-0.457
			c-0.365-0.194-0.718-0.429-0.979-0.722c-0.279-0.277-0.444-0.608-0.58-0.881c-0.112-0.287-0.179-0.532-0.204-0.707
			c-0.028-0.174-0.045-0.272-0.045-0.272s0.04,0.092,0.11,0.253c0.052,0.166,0.182,0.379,0.314,0.637
			c0.154,0.247,0.358,0.515,0.619,0.757c0.247,0.258,0.578,0.455,0.918,0.622c0.682,0.349,1.463,0.48,2.045,0.575
			C667.635,155.656,668.029,155.708,668.029,155.708z"/>
	</g>
	<g>
		<path fill="#010101" d="M672.765,151.303c0,0-0.107,0.01-0.296,0.026c-0.185,0.011-0.464,0.021-0.788-0.018
			c-0.651-0.061-1.512-0.284-2.292-0.698c-0.388-0.209-0.748-0.472-1.056-0.751c-0.318-0.271-0.526-0.615-0.689-0.902
			c-0.062-0.157-0.135-0.293-0.153-0.429c-0.021-0.135-0.061-0.246-0.054-0.344c0.003-0.19,0.005-0.299,0.005-0.299
			s0.022,0.104,0.063,0.288c0.01,0.092,0.068,0.193,0.11,0.313c0.039,0.12,0.134,0.235,0.2,0.373c0.348,0.515,0.99,1.068,1.74,1.442
			c0.728,0.415,1.543,0.662,2.158,0.813c0.31,0.069,0.567,0.127,0.758,0.145C672.657,151.288,672.765,151.303,672.765,151.303z"/>
	</g>
	<g>
		<path fill="#010101" d="M663.008,148.492c0,0.001-1.49,1.164-2.855,2.489c-0.681,0.661-1.316,1.364-1.774,1.909
			c-0.425,0.57-0.708,0.95-0.708,0.95l-0.137-0.084c0,0,0.257-0.407,0.643-1.018c0.421-0.587,1.01-1.349,1.647-2.071
			c1.271-1.442,2.7-2.749,2.7-2.748L663.008,148.492z"/>
	</g>
	<g>
		<path fill="#010101" d="M639.174,158.896c0,0-0.506-0.322-1.253-0.821c-0.401-0.183-0.866-0.39-1.368-0.595
			c-0.266-0.07-0.54-0.143-0.818-0.217c-0.275-0.091-0.565-0.128-0.858-0.147c-0.292-0.021-0.581-0.087-0.869-0.086
			c-0.289,0.008-0.573,0.016-0.849,0.023c-0.277-0.008-0.534,0.074-0.786,0.097c-0.25,0.037-0.491,0.061-0.697,0.139
			c-0.213,0.062-0.408,0.118-0.581,0.168c-0.174,0.049-0.306,0.136-0.426,0.186c-0.235,0.112-0.37,0.177-0.37,0.177l-0.023-0.033
			c0,0,0.127-0.081,0.349-0.224c0.114-0.064,0.242-0.173,0.412-0.244c0.17-0.072,0.363-0.15,0.577-0.231
			c0.21-0.097,0.453-0.139,0.709-0.197c0.256-0.046,0.522-0.145,0.81-0.142c0.286-0.017,0.581-0.033,0.881-0.05
			c0.3-0.007,0.604,0.041,0.907,0.068c0.306,0.024,0.607,0.067,0.894,0.165c0.29,0.081,0.575,0.16,0.851,0.237
			c0.271,0.096,0.513,0.246,0.751,0.357c0.234,0.121,0.462,0.228,0.658,0.34c0.706,0.555,1.17,0.935,1.17,0.935L639.174,158.896z"/>
	</g>
	<g>
		<path fill="#010101" d="M627.312,169.753c0,0,0.132-0.066,0.362-0.182c0.115-0.058,0.255-0.127,0.415-0.208
			c0.163-0.076,0.336-0.185,0.556-0.232c0.216-0.063,0.449-0.131,0.696-0.203c0.247-0.088,0.515-0.129,0.794-0.152
			c0.278-0.031,0.566-0.063,0.858-0.097c0.295,0.009,0.595,0.018,0.894,0.025c0.301-0.004,0.595,0.063,0.886,0.116
			c0.288,0.065,0.583,0.076,0.846,0.188c0.265,0.097,0.521,0.19,0.764,0.278c0.24,0.093,0.441,0.242,0.641,0.347
			c0.189,0.122,0.384,0.201,0.51,0.341c0.134,0.126,0.25,0.236,0.347,0.326c0.189,0.18,0.298,0.283,0.298,0.283l-0.107,0.098
			c0,0-0.114-0.088-0.315-0.243c-0.099-0.077-0.219-0.17-0.357-0.277c-0.126-0.122-0.331-0.172-0.513-0.282
			c-0.195-0.091-0.389-0.224-0.624-0.3c-0.234-0.074-0.482-0.153-0.739-0.233c-0.249-0.106-0.534-0.114-0.81-0.176
			c-0.279-0.049-0.561-0.113-0.85-0.106c-0.288-0.015-0.576-0.028-0.859-0.043c-0.283,0.021-0.562,0.041-0.831,0.061
			c-0.547,0.013-1.024,0.171-1.457,0.234c-0.217,0.027-0.402,0.119-0.575,0.167c-0.171,0.056-0.319,0.104-0.442,0.145
			C627.451,169.707,627.312,169.753,627.312,169.753z"/>
	</g>
	<g>
		<path fill="#010101" d="M622.948,163.614c0,0-0.125-0.035-0.345-0.096c-0.216-0.063-0.525-0.172-0.896-0.271
			c-0.185-0.025-0.385-0.054-0.596-0.084c-0.213-0.021-0.422-0.084-0.661-0.071c-0.234-0.007-0.477-0.014-0.723-0.021
			c-0.245-0.021-0.495,0.021-0.744,0.043c-0.248,0.036-0.501,0.029-0.744,0.073c-0.242,0.047-0.481,0.089-0.715,0.123
			c-0.236,0.026-0.449,0.105-0.663,0.146c-0.208,0.056-0.419,0.082-0.592,0.154c-0.348,0.138-0.672,0.201-0.854,0.324
			c-0.205,0.098-0.322,0.153-0.322,0.153l-0.016-0.018c0,0,0.097-0.088,0.266-0.241c0.17-0.168,0.453-0.332,0.806-0.519
			c0.174-0.103,0.379-0.16,0.588-0.25c0.211-0.082,0.434-0.181,0.677-0.227c0.479-0.123,0.998-0.236,1.53-0.251
			c0.264-0.014,0.527-0.049,0.789-0.017c0.26,0.017,0.517,0.033,0.765,0.05c0.247,0,0.486,0.108,0.71,0.155
			c0.222,0.061,0.431,0.118,0.624,0.171c0.188,0.059,0.332,0.167,0.475,0.235c0.139,0.075,0.26,0.142,0.358,0.195
			c0.196,0.114,0.309,0.18,0.309,0.18L622.948,163.614z"/>
	</g>
	<g>
		<path fill="#010101" d="M620.391,179.163c0,0-0.483-0.126-1.194-0.351c-0.175-0.07-0.371-0.092-0.574-0.14
			c-0.202-0.043-0.416-0.089-0.637-0.136c-0.215-0.067-0.454-0.067-0.688-0.105c-0.235-0.021-0.474-0.077-0.714-0.072
			c-0.239,0.005-0.479-0.003-0.715-0.014c-0.236-0.021-0.462,0.035-0.686,0.047c-0.225,0.015-0.437,0.048-0.634,0.098
			c-0.196,0.049-0.396,0.069-0.56,0.133c-0.162,0.068-0.313,0.129-0.453,0.177c-0.147,0.038-0.234,0.129-0.327,0.179
			c-0.184,0.11-0.288,0.174-0.288,0.174l-0.078-0.074c0,0,0.088-0.093,0.242-0.255c0.085-0.072,0.17-0.196,0.31-0.267
			c0.131-0.086,0.286-0.175,0.458-0.271c0.172-0.093,0.375-0.143,0.584-0.223c0.208-0.091,0.438-0.129,0.678-0.156
			c0.238-0.024,0.486-0.092,0.737-0.082c0.252-0.004,0.509-0.004,0.765,0.009c0.256,0.006,0.505,0.072,0.753,0.104
			c0.245,0.049,0.493,0.06,0.722,0.139c0.228,0.074,0.447,0.146,0.656,0.214c0.205,0.073,0.409,0.122,0.572,0.21
			c0.671,0.325,1.107,0.566,1.107,0.566L620.391,179.163z"/>
	</g>
</g>
<g>
	<path fill="#FFFFFF" d="M9.885,221.751c-5.175,0-9.385-4.21-9.385-9.385s4.21-9.385,9.385-9.385s9.385,4.21,9.385,9.385
		S15.06,221.751,9.885,221.751z"/>
	<path fill="#333333" d="M9.885,203.481c4.899,0,8.885,3.986,8.885,8.885s-3.986,8.885-8.885,8.885S1,217.265,1,212.366
		S4.986,203.481,9.885,203.481 M9.885,202.481c-5.459,0-9.885,4.425-9.885,9.885s4.425,9.885,9.885,9.885s9.885-4.425,9.885-9.885
		S15.344,202.481,9.885,202.481L9.885,202.481z"/>
</g>
<text transform="matrix(1 0 0 1 5.5195 218.876)" fill="#333333" font-family="'Roboto-Regular'" font-size="18">1</text>
<g>
	<path fill="#FFFFFF" d="M148.385,221.751c-5.175,0-9.385-4.21-9.385-9.385s4.21-9.385,9.385-9.385s9.385,4.21,9.385,9.385
		S153.56,221.751,148.385,221.751z"/>
	<path fill="#333333" d="M148.385,203.481c4.899,0,8.885,3.986,8.885,8.885s-3.986,8.885-8.885,8.885s-8.885-3.986-8.885-8.885
		S143.486,203.481,148.385,203.481 M148.385,202.481c-5.459,0-9.885,4.425-9.885,9.885s4.425,9.885,9.885,9.885
		s9.885-4.425,9.885-9.885S153.844,202.481,148.385,202.481L148.385,202.481z"/>
</g>
<text transform="matrix(1 0 0 1 143.353 217.876)" fill="#333333" font-family="'Roboto-Regular'" font-size="18">2</text>
<g>
	<path fill="#FFFFFF" d="M378.885,221.751c-5.175,0-9.385-4.21-9.385-9.385s4.21-9.385,9.385-9.385s9.385,4.21,9.385,9.385
		S384.06,221.751,378.885,221.751z"/>
	<path fill="#333333" d="M378.885,203.481c4.899,0,8.885,3.986,8.885,8.885s-3.986,8.885-8.885,8.885S370,217.265,370,212.366
		S373.986,203.481,378.885,203.481 M378.885,202.481c-5.459,0-9.885,4.425-9.885,9.885s4.425,9.885,9.885,9.885
		s9.885-4.425,9.885-9.885S384.344,202.481,378.885,202.481L378.885,202.481z"/>
</g>
<text transform="matrix(1 0 0 1 373.853 218.876)" fill="#333333" font-family="'Roboto-Regular'" font-size="18">3</text>
<g>
	<path fill="#FFFFFF" d="M535.385,221.751c-5.175,0-9.385-4.21-9.385-9.385s4.21-9.385,9.385-9.385s9.385,4.21,9.385,9.385
		S540.56,221.751,535.385,221.751z"/>
	<path fill="#333333" d="M535.385,203.481c4.898,0,8.885,3.986,8.885,8.885s-3.986,8.885-8.885,8.885s-8.885-3.986-8.885-8.885
		S530.486,203.481,535.385,203.481 M535.385,202.481c-5.459,0-9.885,4.425-9.885,9.885s4.426,9.885,9.885,9.885
		s9.885-4.425,9.885-9.885S540.844,202.481,535.385,202.481L535.385,202.481z"/>
</g>
<text transform="matrix(1 0 0 1 530.3535 218.876)" fill="#333333" font-family="'Roboto-Regular'" font-size="18">4</text>
<g>
	<path fill="#FFFFFF" d="M689.767,221.751c-5.175,0-9.385-4.21-9.385-9.385s4.21-9.385,9.385-9.385s9.385,4.21,9.385,9.385
		S694.941,221.751,689.767,221.751z"/>
	<path fill="#333333" d="M689.767,203.481c4.898,0,8.885,3.986,8.885,8.885s-3.986,8.885-8.885,8.885s-8.885-3.986-8.885-8.885
		S684.868,203.481,689.767,203.481 M689.767,202.481c-5.459,0-9.885,4.425-9.885,9.885s4.426,9.885,9.885,9.885
		s9.885-4.425,9.885-9.885S695.226,202.481,689.767,202.481L689.767,202.481z"/>
</g>
<text transform="matrix(1 0 0 1 684.7344 218.876)" fill="#333333" font-family="'Roboto-Regular'" font-size="18">5</text>
<g>
	<path fill="#FFFFFF" d="M823.767,221.751c-5.175,0-9.385-4.21-9.385-9.385s4.21-9.385,9.385-9.385s9.385,4.21,9.385,9.385
		S828.941,221.751,823.767,221.751z"/>
	<path fill="#333333" d="M823.767,203.481c4.898,0,8.885,3.986,8.885,8.885s-3.986,8.885-8.885,8.885s-8.885-3.986-8.885-8.885
		S818.868,203.481,823.767,203.481 M823.767,202.481c-5.459,0-9.885,4.425-9.885,9.885s4.426,9.885,9.885,9.885
		s9.885-4.425,9.885-9.885S829.226,202.481,823.767,202.481L823.767,202.481z"/>
</g>
<text transform="matrix(1 0 0 1 818.7344 218.876)" fill="#333333" font-family="'Roboto-Regular'" font-size="18">6</text>
</svg>
