<?xml version="1.0" encoding="utf-8"?>
<!-- Generator: Adobe Illustrator 16.0.3, SVG Export Plug-In . SVG Version: 6.00 Build 0)  -->
<!DOCTYPE svg PUBLIC "-//W3C//DTD SVG 1.1//EN" "http://www.w3.org/Graphics/SVG/1.1/DTD/svg11.dtd">
<svg version="1.1" id="Layer_1" xmlns="http://www.w3.org/2000/svg" xmlns:xlink="http://www.w3.org/1999/xlink" x="0px" y="0px"
	 width="288px" height="288px" viewBox="0 0 288 288" enable-background="new 0 0 288 288" xml:space="preserve">
<path fill="#FFFFFF" d="M150.39,99.04v90.38c0,0-1.87,0-4.77,0h-7.99c-7.01,0-15.97-5.62-19.9-12.5l-14.52-25.35l-4.59-8.021v31.47
	c0,7.921-5.33,14.4-11.85,14.4H86c-6.16,0-11.08,0-11.08,0V99.04c0,0,2.36,0,5.91,0h6.86c7.02,0,15.98,5.63,19.92,12.5l14.45,25.25
	l4.63,8.09v-31.44c0-7.92,5.33-14.4,11.85-14.4H144C147.78,99.04,150.39,99.04,150.39,99.04z"/>
<g>
	<path fill="#FFFFFF" d="M200.85,189.421h-48.161V165.72h36.311v-8.49h-13.234v-23.701h25.085c6.545,0,11.851,5.306,11.851,11.851
		v32.191C212.7,184.115,207.395,189.421,200.85,189.421z"/>
</g>
<path fill="#FFFFFF" d="M213.01,109.85v10.8h-60.34V99.04h49.54C208.17,99.04,213.01,103.88,213.01,109.85z"/>
</svg>
